<svg width="25" height="22" viewBox="0 0 25 22" fill="none" xmlns="http://www.w3.org/2000/svg">
<path d="M22.25 8C22.5547 8 22.8438 8.05859 23.1172 8.17578C23.3906 8.29297 23.6309 8.45312 23.8379 8.65625C24.0449 8.85938 24.207 9.09766 24.3242 9.37109C24.4414 9.64453 24.5 9.9375 24.5 10.25C24.5 10.5 24.4609 10.7383 24.3828 10.9648L21.3828 19.9648C21.3047 20.1914 21.1953 20.4004 21.0547 20.5918C20.9141 20.7832 20.75 20.9453 20.5625 21.0781C20.375 21.2109 20.1699 21.3145 19.9473 21.3887C19.7246 21.4629 19.4922 21.5 19.25 21.5H13.25C11.8516 21.5 10.5039 21.2305 9.20703 20.6914C8.64453 20.4648 8.08008 20.293 7.51367 20.1758C6.94727 20.0586 6.35938 20 5.75 20H0.5V9.5H5.38672C5.89453 9.5 6.37305 9.40625 6.82227 9.21875C7.27148 9.03125 7.67578 8.75781 8.03516 8.39844L15.3242 1.12109C15.5195 0.925781 15.7148 0.773438 15.9102 0.664062C16.1055 0.554688 16.3438 0.5 16.625 0.5C16.8828 0.5 17.125 0.548828 17.3516 0.646484C17.5781 0.744141 17.7773 0.878906 17.9492 1.05078C18.1211 1.22266 18.2559 1.42188 18.3535 1.64844C18.4512 1.875 18.5 2.11719 18.5 2.375C18.5 3.00781 18.4297 3.61133 18.2891 4.18555C18.1484 4.75977 17.9414 5.32812 17.668 5.89062C17.5117 6.22656 17.3789 6.56836 17.2695 6.91602C17.1602 7.26367 17.0859 7.625 17.0469 8H22.25ZM19.25 20C19.4062 20 19.5508 19.9531 19.6836 19.8594C19.8164 19.7656 19.9102 19.6406 19.9648 19.4844C20.0039 19.375 20.0762 19.1641 20.1816 18.8516C20.2871 18.5391 20.4141 18.1621 20.5625 17.7207C20.7109 17.2793 20.875 16.7949 21.0547 16.2676C21.2344 15.7402 21.4141 15.207 21.5938 14.668C21.7734 14.1289 21.9473 13.6035 22.1152 13.0918C22.2832 12.5801 22.4336 12.1191 22.5664 11.709C22.6992 11.2988 22.8047 10.9629 22.8828 10.7012C22.9609 10.4395 23 10.2891 23 10.25C23 10.0469 22.9258 9.87109 22.7773 9.72266C22.6289 9.57422 22.4531 9.5 22.25 9.5H15.5C15.5 9.08594 15.5098 8.70117 15.5293 8.3457C15.5488 7.99023 15.5879 7.64453 15.6465 7.30859C15.7051 6.97266 15.7891 6.63672 15.8984 6.30078C16.0078 5.96484 16.1523 5.60938 16.332 5.23438C16.5508 4.78125 16.7168 4.31836 16.8301 3.8457C16.9434 3.37305 17 2.88281 17 2.375C17 2.26562 16.9648 2.17578 16.8945 2.10547C16.8242 2.03516 16.7344 2 16.625 2C16.5781 2 16.5371 2.01758 16.502 2.05273L16.4023 2.15234L9.10156 9.46484C8.85156 9.71484 8.58398 9.93359 8.29883 10.1211C8.01367 10.3086 7.71094 10.4688 7.39062 10.6016C6.76562 10.8672 6.09766 11 5.38672 11H2V18.5H5.75C7.14062 18.5 8.48828 18.7695 9.79297 19.3086C10.918 19.7695 12.0703 20 13.25 20H19.25Z" fill="white"/>
</svg>
