<svg width="339" height="49" viewBox="0 0 339 49" fill="none" xmlns="http://www.w3.org/2000/svg">
<g filter="url(#filter0_f)">
<path d="M4.81611 43.8595L2.44141 46.2342L2.53261 46.3254L2.63054 46.4093L4.81611 43.8595ZM4.81611 6.07445L7.19081 8.44916L7.19082 8.44915L4.81611 6.07445ZM11.8011 6.73445L8.76606 8.17211L8.80183 8.24761L8.8413 8.32124L11.8011 6.73445ZM22.4161 26.5345L19.4563 28.1212L22.4009 33.6137L25.3691 28.134L22.4161 26.5345ZM33.1411 6.73445L36.0941 8.33397L36.1036 8.31633L36.113 8.29858L33.1411 6.73445ZM40.0711 6.07445L37.6964 8.44914L37.6964 8.44916L40.0711 6.07445ZM40.0711 43.8595L42.2567 46.4093L42.3546 46.3254L42.4458 46.2342L40.0711 43.8595ZM33.5261 43.8045L35.9008 41.4298L35.9008 41.4297L33.5261 43.8045ZM33.1411 19.0545H36.4994L30.1669 17.4949L33.1411 19.0545ZM25.4411 33.7395L28.3324 35.4479L28.3758 35.3745L28.4154 35.299L25.4411 33.7395ZM19.4461 33.7395L16.4719 35.299L16.5115 35.3745L16.5548 35.4479L19.4461 33.7395ZM11.7461 19.0545L14.7204 17.4949L8.38778 19.0545H11.7461ZM11.3611 43.8045L8.98641 41.4298L8.89521 41.521L8.81128 41.6189L11.3611 43.8045ZM5.80611 40.8311C5.90903 40.8311 6.091 40.8453 6.31811 40.921C6.55306 40.9993 6.79054 41.1286 7.00169 41.3096L2.63054 46.4093C3.6087 47.2477 4.76339 47.5478 5.80611 47.5478V40.8311ZM7.19081 41.4848C7.38327 41.6772 7.54842 41.9221 7.65735 42.2022C7.76359 42.4754 7.78945 42.7121 7.78945 42.8695H1.07278C1.07278 44.055 1.48217 45.2749 2.44141 46.2342L7.19081 41.4848ZM7.78945 42.8695V7.06445H1.07278V42.8695H7.78945ZM7.78945 7.06445C7.78945 7.22178 7.76359 7.45847 7.65735 7.73167C7.54842 8.01176 7.38327 8.2567 7.19081 8.44916L2.44142 3.69975C1.48217 4.65899 1.07278 5.87891 1.07278 7.06445H7.78945ZM7.19082 8.44915C6.99836 8.6416 6.75342 8.80676 6.47333 8.91568C6.20014 9.02192 5.96345 9.04778 5.80611 9.04778V2.33112C4.62056 2.33112 3.40065 2.74051 2.44141 3.69976L7.19082 8.44915ZM5.80611 9.04778H10.1511V2.33112H5.80611V9.04778ZM10.1511 9.04778C10.0178 9.04778 9.69835 9.01216 9.34423 8.78788C8.99035 8.56376 8.82232 8.29087 8.76606 8.17211L14.8362 5.29679C14.4499 4.48136 13.8419 3.68597 12.938 3.11352C12.0339 2.54091 11.0544 2.33112 10.1511 2.33112V9.04778ZM8.8413 8.32124L19.4563 28.1212L25.3759 24.9477L14.7609 5.14766L8.8413 8.32124ZM25.3691 28.134L36.0941 8.33397L30.1882 5.13493L19.4632 24.9349L25.3691 28.134ZM36.113 8.29858C36.0799 8.36147 35.941 8.58804 35.6255 8.78789C35.2971 8.99587 34.9779 9.04778 34.7911 9.04778V2.33112C33.871 2.33112 32.9101 2.5572 32.0317 3.11351C31.1662 3.66169 30.569 4.41076 30.1693 5.17032L36.113 8.29858ZM34.7911 9.04778H39.0811V2.33112H34.7911V9.04778ZM39.0811 9.04778C38.9238 9.04778 38.6871 9.02192 38.4139 8.91568C38.1338 8.80676 37.8889 8.6416 37.6964 8.44914L42.4458 3.69976C41.4866 2.74051 40.2667 2.33112 39.0811 2.33112V9.04778ZM37.6964 8.44916C37.504 8.25671 37.3388 8.01176 37.2299 7.73167C37.1236 7.45848 37.0978 7.22178 37.0978 7.06445H43.8144C43.8144 5.8789 43.4051 4.65899 42.4458 3.69974L37.6964 8.44916ZM37.0978 7.06445V42.8695H43.8144V7.06445H37.0978ZM37.0978 42.8695C37.0978 42.7121 37.1236 42.4754 37.2299 42.2022C37.3388 41.9221 37.504 41.6772 37.6964 41.4847L42.4458 46.2342C43.4051 45.2749 43.8144 44.055 43.8144 42.8695H37.0978ZM37.8855 41.3096C38.0967 41.1286 38.3342 40.9993 38.5691 40.921C38.7962 40.8453 38.9782 40.8311 39.0811 40.8311V47.5478C40.1238 47.5478 41.2785 47.2477 42.2567 46.4093L37.8855 41.3096ZM39.0811 40.8311H34.4611V47.5478H39.0811V40.8311ZM34.4611 40.8311C34.6776 40.8311 34.9469 40.8708 35.2311 40.9878C35.5159 41.1051 35.74 41.2689 35.9008 41.4298L31.1514 46.1791C32.045 47.0728 33.2139 47.5478 34.4611 47.5478V40.8311ZM35.9008 41.4297C36.0616 41.5906 36.2254 41.8147 36.3427 42.0995C36.4598 42.3837 36.4994 42.6529 36.4994 42.8695H29.7828C29.7828 44.1166 30.2578 45.2855 31.1514 46.1792L35.9008 41.4297ZM36.4994 42.8695V19.0545H29.7828V42.8695H36.4994ZM30.1669 17.4949L22.4669 32.1799L28.4154 35.299L36.1154 20.614L30.1669 17.4949ZM22.5498 32.031C22.5087 32.1006 22.5672 31.9727 22.7917 31.8274C23.0444 31.6639 23.3341 31.5911 23.5711 31.5911V38.3078C25.8021 38.3078 27.4048 37.0177 28.3324 35.4479L22.5498 32.031ZM23.5711 31.5911H21.3161V38.3078H23.5711V31.5911ZM21.3161 31.5911C21.5531 31.5911 21.8428 31.6639 22.0955 31.8274C22.32 31.9727 22.3785 32.1006 22.3374 32.031L16.5548 35.4479C17.4824 37.0177 19.0851 38.3078 21.3161 38.3078V31.5911ZM22.4204 32.1799L14.7204 17.4949L8.77185 20.614L16.4719 35.299L22.4204 32.1799ZM8.38778 19.0545V42.8695H15.1044V19.0545H8.38778ZM8.38778 42.8695C8.38778 42.6529 8.42747 42.3837 8.54449 42.0995C8.66178 41.8147 8.82559 41.5906 8.98641 41.4298L13.7358 46.1792C14.6294 45.2855 15.1044 44.1166 15.1044 42.8695H8.38778ZM8.81128 41.6189C9.04536 41.3458 9.3476 41.1262 9.68368 40.9878C10.0049 40.8556 10.2736 40.8311 10.4261 40.8311V47.5478C11.6016 47.5478 12.9288 47.1358 13.911 45.99L8.81128 41.6189ZM10.4261 40.8311H5.80611V47.5478H10.4261V40.8311ZM51.0462 41.4395L48.7292 43.8704L48.7392 43.88L48.7493 43.8895L51.0462 41.4395ZM47.2512 32.3095L43.8937 32.3858L43.8947 32.4275L43.8967 32.4692L47.2512 32.3095ZM47.1962 29.8895L43.8387 29.8131L43.837 29.8895L43.8387 29.9658L47.1962 29.8895ZM47.2512 27.4695L43.8967 27.3082L43.8947 27.3506L43.8937 27.3931L47.2512 27.4695ZM51.1012 18.3945L53.3993 20.8433V20.8433L51.1012 18.3945ZM70.9012 18.3945L68.603 20.8433V20.8433L70.9012 18.3945ZM74.7512 27.4695L71.3967 27.6307L71.3996 27.6896L71.4045 27.7484L74.7512 27.4695ZM74.7512 32.3095L71.4045 32.0305L71.3995 32.0901L71.3967 32.1497L74.7512 32.3095ZM70.9562 41.4395L73.2531 43.8895L73.2632 43.88L73.2732 43.8704L70.9562 41.4395ZM65.5112 37.4795L68.0339 39.6963L68.0502 39.6777L68.0663 39.6588L65.5112 37.4795ZM67.2712 32.0345L63.9295 31.7003L63.9206 31.7898L63.9164 31.8796L67.2712 32.0345ZM67.2712 27.7445L63.9164 27.8993L63.9206 27.9891L63.9295 28.0786L67.2712 27.7445ZM65.5112 22.3545L62.9561 24.5338L62.9722 24.5527L62.9885 24.5713L65.5112 22.3545ZM56.4912 22.3545L59.0139 24.5713L59.0302 24.5527L59.0463 24.5338L56.4912 22.3545ZM54.7312 27.7445L51.3764 27.5896L51.3748 27.624L51.374 27.6584L54.7312 27.7445ZM54.6762 29.8895L51.319 29.8034L51.3168 29.8895L51.319 29.9755L54.6762 29.8895ZM54.7312 32.0345L51.374 32.1205L51.3748 32.1549L51.3764 32.1893L54.7312 32.0345ZM56.4912 37.4795L53.9361 39.6588L53.9522 39.6777L53.9685 39.6963L56.4912 37.4795ZM61.0012 41.3811C57.2732 41.3811 54.8832 40.4332 53.3431 38.9894L48.7493 43.8895C51.9026 46.8457 56.1492 48.0978 61.0012 48.0978V41.3811ZM53.3632 39.0085C51.7569 37.4774 50.7563 35.311 50.6057 32.1497L43.8967 32.4692C44.1128 37.0079 45.6422 40.9282 48.7292 43.8704L53.3632 39.0085ZM50.6087 32.2331L50.5537 29.8131L43.8387 29.9658L43.8937 32.3858L50.6087 32.2331ZM50.5537 29.9658L50.6087 27.5458L43.8937 27.3931L43.8387 29.8131L50.5537 29.9658ZM50.6057 27.6307C50.7547 24.531 51.7578 22.3838 53.3993 20.8433L48.803 15.9456C45.6779 18.8784 44.1144 22.7813 43.8967 27.3082L50.6057 27.6307ZM53.3993 20.8433C54.9954 19.3455 57.382 18.3978 61.0012 18.3978V11.6811C56.1871 11.6811 51.9736 12.9701 48.803 15.9456L53.3993 20.8433ZM61.0012 18.3978C64.6204 18.3978 67.007 19.3455 68.603 20.8433L73.1993 15.9456C70.0287 12.9701 65.8153 11.6811 61.0012 11.6811V18.3978ZM68.603 20.8433C70.2446 22.3838 71.2477 24.531 71.3967 27.6307L78.1057 27.3082C77.888 22.7813 76.3245 18.8784 73.1993 15.9456L68.603 20.8433ZM71.4045 27.7484C71.428 28.0305 71.4479 28.7056 71.4479 29.8895H78.1645C78.1645 28.7266 78.1478 27.7884 78.0979 27.1905L71.4045 27.7484ZM71.4479 29.8895C71.4479 31.0733 71.428 31.7484 71.4045 32.0305L78.0979 32.5884C78.1478 31.9905 78.1645 31.0523 78.1645 29.8895H71.4479ZM71.3967 32.1497C71.2461 35.3111 70.2455 37.4774 68.6392 39.0085L73.2732 43.8704C76.3602 40.9282 77.8896 37.0079 78.1057 32.4692L71.3967 32.1497ZM68.6593 38.9894C67.1192 40.4332 64.7292 41.3811 61.0012 41.3811V48.0978C65.8532 48.0978 70.0998 46.8457 73.2531 43.8895L68.6593 38.9894ZM61.0012 42.6528C63.6929 42.6528 66.2021 41.7807 68.0339 39.6963L62.9885 35.2626C62.6936 35.5982 62.1962 35.9361 61.0012 35.9361V42.6528ZM68.0663 39.6588C69.7905 37.6374 70.4967 34.9895 70.626 32.1893L63.9164 31.8796C63.8257 33.8461 63.3586 34.8282 62.9561 35.3001L68.0663 39.6588ZM70.6129 32.3686C70.6688 31.8092 70.6845 30.9296 70.6845 29.8895H63.9679C63.9679 30.976 63.9469 31.5264 63.9295 31.7003L70.6129 32.3686ZM70.6845 29.8895C70.6845 28.8493 70.6688 27.9698 70.6129 27.4103L63.9295 28.0786C63.9469 28.2525 63.9679 28.8029 63.9679 29.8895H70.6845ZM70.626 27.5896C70.4971 24.7973 69.7927 22.139 68.0339 20.1376L62.9885 24.5713C63.3564 24.9899 63.8253 25.9249 63.9164 27.8993L70.626 27.5896ZM68.0663 20.1751C66.2447 18.0394 63.7261 17.1261 61.0012 17.1261V23.8428C62.163 23.8428 62.651 24.1762 62.9561 24.5338L68.0663 20.1751ZM61.0012 17.1261C58.2763 17.1261 55.7577 18.0394 53.9361 20.1751L59.0463 24.5338C59.3514 24.1762 59.8394 23.8428 61.0012 23.8428V17.1261ZM53.9685 20.1376C52.2097 22.139 51.5053 24.7973 51.3764 27.5896L58.086 27.8993C58.1771 25.9249 58.646 24.9899 59.0139 24.5713L53.9685 20.1376ZM51.374 27.6584L51.319 29.8034L58.0334 29.9755L58.0884 27.8305L51.374 27.6584ZM51.319 29.9755L51.374 32.1205L58.0884 31.9484L58.0334 29.8034L51.319 29.9755ZM51.3764 32.1893C51.5057 34.9895 52.2119 37.6374 53.9361 39.6588L59.0463 35.3001C58.6438 34.8282 58.1767 33.8461 58.086 31.8796L51.3764 32.1893ZM53.9685 39.6963C55.8003 41.7807 58.3095 42.6528 61.0012 42.6528V35.9361C59.8062 35.9361 59.3088 35.5982 59.0139 35.2626L53.9685 39.6963ZM83.595 41.4395L81.278 43.8704L81.288 43.88L81.2981 43.8895L83.595 41.4395ZM79.8 32.3095L76.4426 32.3858L76.4435 32.4275L76.4455 32.4692L79.8 32.3095ZM79.745 29.8895L76.3876 29.8131L76.3858 29.8895L76.3876 29.9658L79.745 29.8895ZM79.8 27.4695L76.4456 27.3082L76.4435 27.3506L76.4426 27.3931L79.8 27.4695ZM83.65 18.3945L85.9482 20.8433V20.8433L83.65 18.3945ZM103.45 18.3945L101.152 20.8433V20.8433L103.45 18.3945ZM107.3 27.4695L103.946 27.6307L103.948 27.6896L103.953 27.7484L107.3 27.4695ZM107.3 32.3095L103.953 32.0305L103.948 32.0901L103.945 32.1497L107.3 32.3095ZM103.505 41.4395L105.802 43.8895L105.812 43.88L105.822 43.8704L103.505 41.4395ZM98.06 37.4795L100.583 39.6963L100.599 39.6777L100.615 39.6588L98.06 37.4795ZM99.82 32.0345L96.4784 31.7003L96.4694 31.7898L96.4653 31.8796L99.82 32.0345ZM99.82 27.7445L96.4653 27.8993L96.4694 27.9891L96.4784 28.0786L99.82 27.7445ZM98.06 22.3545L95.5049 24.5338L95.521 24.5527L95.5374 24.5713L98.06 22.3545ZM89.04 22.3545L91.5627 24.5713L91.5791 24.5527L91.5952 24.5338L89.04 22.3545ZM87.28 27.7445L83.9253 27.5896L83.9237 27.624L83.9228 27.6584L87.28 27.7445ZM87.225 29.8895L83.8678 29.8034L83.8656 29.8895L83.8678 29.9755L87.225 29.8895ZM87.28 32.0345L83.9228 32.1205L83.9237 32.1549L83.9253 32.1893L87.28 32.0345ZM89.04 37.4795L86.4849 39.6588L86.501 39.6777L86.5174 39.6963L89.04 37.4795ZM93.55 41.3811C89.822 41.3811 87.432 40.4332 85.8919 38.9894L81.2981 43.8895C84.4514 46.8457 88.6981 48.0978 93.55 48.0978V41.3811ZM85.9121 39.0085C84.3057 37.4774 83.3051 35.311 83.1545 32.1497L76.4455 32.4692C76.6616 37.0079 78.191 40.9282 81.278 43.8704L85.9121 39.0085ZM83.1575 32.2331L83.1025 29.8131L76.3876 29.9658L76.4426 32.3858L83.1575 32.2331ZM83.1025 29.9658L83.1575 27.5458L76.4426 27.3931L76.3876 29.8131L83.1025 29.9658ZM83.1545 27.6307C83.3035 24.531 84.3066 22.3838 85.9482 20.8433L81.3519 15.9456C78.2267 18.8784 76.6632 22.7813 76.4456 27.3082L83.1545 27.6307ZM85.9482 20.8433C87.5442 19.3455 89.9308 18.3978 93.55 18.3978V11.6811C88.7359 11.6811 84.5225 12.9701 81.3519 15.9456L85.9482 20.8433ZM93.55 18.3978C97.1693 18.3978 99.5558 19.3455 101.152 20.8433L105.748 15.9456C102.578 12.9701 98.3641 11.6811 93.55 11.6811V18.3978ZM101.152 20.8433C102.793 22.3838 103.797 24.531 103.946 27.6307L110.654 27.3082C110.437 22.7813 108.873 18.8784 105.748 15.9456L101.152 20.8433ZM103.953 27.7484C103.977 28.0305 103.997 28.7056 103.997 29.8895H110.713C110.713 28.7266 110.697 27.7884 110.647 27.1905L103.953 27.7484ZM103.997 29.8895C103.997 31.0733 103.977 31.7484 103.953 32.0305L110.647 32.5884C110.697 31.9905 110.713 31.0523 110.713 29.8895H103.997ZM103.945 32.1497C103.795 35.3111 102.794 37.4774 101.188 39.0085L105.822 43.8704C108.909 40.9282 110.438 37.0079 110.655 32.4692L103.945 32.1497ZM101.208 38.9894C99.6681 40.4332 97.2781 41.3811 93.55 41.3811V48.0978C98.402 48.0978 102.649 46.8457 105.802 43.8895L101.208 38.9894ZM93.55 42.6528C96.2417 42.6528 98.7509 41.7807 100.583 39.6963L95.5374 35.2626C95.2424 35.5982 94.745 35.9361 93.55 35.9361V42.6528ZM100.615 39.6588C102.339 37.6374 103.046 34.9895 103.175 32.1893L96.4653 31.8796C96.3745 33.8461 95.9074 34.8282 95.5049 35.3001L100.615 39.6588ZM103.162 32.3686C103.218 31.8092 103.233 30.9296 103.233 29.8895H96.5167C96.5167 30.976 96.4957 31.5264 96.4784 31.7003L103.162 32.3686ZM103.233 29.8895C103.233 28.8493 103.218 27.9698 103.162 27.4103L96.4784 28.0786C96.4957 28.2525 96.5167 28.8029 96.5167 29.8895H103.233ZM103.175 27.5896C103.046 24.7973 102.342 22.139 100.583 20.1376L95.5374 24.5713C95.9052 24.9899 96.3741 25.9249 96.4653 27.8993L103.175 27.5896ZM100.615 20.1751C98.7935 18.0394 96.2749 17.1261 93.55 17.1261V23.8428C94.7118 23.8428 95.1998 24.1762 95.5049 24.5338L100.615 20.1751ZM93.55 17.1261C90.8251 17.1261 88.3065 18.0394 86.4849 20.1751L91.5952 24.5338C91.9002 24.1762 92.3882 23.8428 93.55 23.8428V17.1261ZM86.5174 20.1376C84.7585 22.139 84.0541 24.7973 83.9253 27.5896L90.6348 27.8993C90.7259 25.9249 91.1949 24.9899 91.5627 24.5713L86.5174 20.1376ZM83.9228 27.6584L83.8678 29.8034L90.5823 29.9755L90.6373 27.8305L83.9228 27.6584ZM83.8678 29.9755L83.9228 32.1205L90.6373 31.9484L90.5823 29.8034L83.8678 29.9755ZM83.9253 32.1893C84.0545 34.9895 84.7607 37.6374 86.4849 39.6588L91.5952 35.3001C91.1927 34.8282 90.7255 33.8461 90.6348 31.8796L83.9253 32.1893ZM86.5174 39.6963C88.3491 41.7807 90.8584 42.6528 93.55 42.6528V35.9361C92.355 35.9361 91.8576 35.5982 91.5627 35.2626L86.5174 39.6963ZM121.283 43.8595L119.072 46.3869L119.167 46.4702L119.268 46.5461L121.283 43.8595ZM120.568 42.8145L117.453 44.0698L117.461 44.088L117.468 44.1061L120.568 42.8145ZM110.283 17.2945L107.005 18.023L107.065 18.2931L107.168 18.5498L110.283 17.2945ZM110.173 16.7995H106.815V17.1681L106.895 17.528L110.173 16.7995ZM110.503 15.9745L112.878 18.3492L112.878 18.3491L110.503 15.9745ZM117.268 16.6345L114.117 17.7954L114.122 17.81L114.128 17.8244L117.268 16.6345ZM124.583 35.9395L121.443 37.1294L124.583 45.4174L127.724 37.1294L124.583 35.9395ZM131.898 16.6345L128.812 15.3115L128.783 15.3774L128.758 15.4445L131.898 16.6345ZM132.393 15.9195L130.208 13.3696L130.11 13.4536L130.019 13.5447L132.393 15.9195ZM138.608 15.9745L136.059 18.16L136.227 18.3562L136.423 18.5243L138.608 15.9745ZM138.938 17.2945L142.051 18.5556L142.091 18.4572L142.124 18.3564L138.938 17.2945ZM128.598 42.8145L131.698 44.1061L131.705 44.0909L131.711 44.0756L128.598 42.8145ZM127.883 43.8595L129.898 46.5461L130 46.4702L130.095 46.3869L127.883 43.8595ZM122.548 40.8311C122.488 40.8311 122.54 40.8242 122.667 40.8574C122.8 40.8921 123.037 40.9768 123.298 41.1728L119.268 46.5461C120.369 47.3717 121.617 47.5478 122.548 47.5478V40.8311ZM123.495 41.3321C123.665 41.4809 123.697 41.5923 123.668 41.5228L117.468 44.1061C117.806 44.9166 118.315 45.7246 119.072 46.3869L123.495 41.3321ZM123.683 41.5591L113.398 16.0391L107.168 18.5498L117.453 44.0698L123.683 41.5591ZM113.562 16.5659L113.452 16.0709L106.895 17.528L107.005 18.023L113.562 16.5659ZM113.532 16.7995C113.532 17.013 113.495 17.2909 113.374 17.593C113.252 17.8989 113.073 18.1541 112.878 18.3492L108.129 13.5997C107.238 14.4907 106.815 15.6387 106.815 16.7995H113.532ZM112.878 18.3491C112.75 18.4776 112.547 18.6379 112.262 18.7625C111.971 18.8898 111.667 18.9478 111.383 18.9478V12.2311C110.069 12.2311 108.946 12.7824 108.129 13.5998L112.878 18.3491ZM111.383 18.9478H115.838V12.2311H111.383V18.9478ZM115.838 18.9478C115.606 18.9478 115.172 18.8801 114.737 18.5622C114.318 18.2564 114.159 17.9081 114.117 17.7954L120.42 15.4735C120.121 14.6642 119.595 13.7934 118.7 13.1392C117.788 12.4729 116.767 12.2311 115.838 12.2311V18.9478ZM114.128 17.8244L121.443 37.1294L127.724 34.7495L120.409 15.4445L114.128 17.8244ZM127.724 37.1294L135.039 17.8244L128.758 15.4445L121.443 34.7495L127.724 37.1294ZM134.985 17.9574C134.909 18.1358 134.816 18.2465 134.768 18.2942L130.019 13.5447C129.531 14.0324 129.108 14.6198 128.812 15.3115L134.985 17.9574ZM134.579 18.4693C134.4 18.6228 134.181 18.7527 133.937 18.8388C133.697 18.9236 133.484 18.9478 133.328 18.9478V12.2311C132.233 12.2311 131.126 12.5822 130.208 13.3696L134.579 18.4693ZM133.328 18.9478H137.838V12.2311H133.328V18.9478ZM137.838 18.9478C137.476 18.9478 137.098 18.8638 136.749 18.6895C136.412 18.5211 136.189 18.312 136.059 18.16L141.158 13.7889C140.408 12.914 139.267 12.2311 137.838 12.2311V18.9478ZM136.423 18.5243C136.23 18.3587 136.014 18.1087 135.854 17.7659C135.693 17.4209 135.635 17.0817 135.635 16.7995H142.352C142.352 15.4619 141.774 14.2648 140.794 13.4246L136.423 18.5243ZM135.635 16.7995C135.635 16.8227 135.634 16.7901 135.642 16.7173C135.649 16.6564 135.671 16.4751 135.752 16.2325L142.124 18.3564C142.336 17.7214 142.352 17.1175 142.352 16.7995H135.635ZM135.826 16.0333L125.486 41.5533L131.711 44.0756L142.051 18.5556L135.826 16.0333ZM125.498 41.5228C125.469 41.5923 125.502 41.4809 125.672 41.332L130.095 46.3869C130.852 45.7246 131.361 44.9166 131.698 44.1061L125.498 41.5228ZM125.868 41.1728C126.13 40.9768 126.366 40.8921 126.499 40.8574C126.626 40.8242 126.678 40.8311 126.618 40.8311V47.5478C127.55 47.5478 128.798 47.3717 129.898 46.5461L125.868 41.1728ZM126.618 40.8311H122.548V47.5478H126.618V40.8311ZM144.175 10.4745L146.55 8.09976L146.55 8.09974L144.175 10.4745ZM144.175 4.64445L141.801 2.26975L141.801 2.26976L144.175 4.64445ZM151.05 4.64445L148.676 7.01916L148.755 7.09822L148.839 7.17185L151.05 4.64445ZM151.105 10.4745L148.731 8.09975L148.731 8.09976L151.105 10.4745ZM144.395 43.8045L146.77 41.4298L144.395 43.8045ZM144.395 15.9745L146.77 18.3492L146.77 18.3491L144.395 15.9745ZM150.83 15.9745L148.281 18.16L148.449 18.3562L148.645 18.5243L150.83 15.9745ZM150.83 43.8045L148.456 41.4298L148.364 41.521L148.281 41.6189L150.83 43.8045ZM145.11 7.50112C145.327 7.50112 145.596 7.54081 145.88 7.65783C146.165 7.77512 146.389 7.93893 146.55 8.09976L141.801 12.8491C142.694 13.7428 143.863 14.2178 145.11 14.2178V7.50112ZM146.55 8.09974C146.711 8.26058 146.875 8.48466 146.992 8.76952C147.109 9.0537 147.149 9.32292 147.149 9.53945H140.432C140.432 10.7866 140.907 11.9555 141.801 12.8492L146.55 8.09974ZM147.149 9.53945V5.57945H140.432V9.53945H147.149ZM147.149 5.57945C147.149 5.79598 147.109 6.06521 146.992 6.34939C146.875 6.63424 146.711 6.85832 146.55 7.01915L141.801 2.26976C140.907 3.16338 140.432 4.33226 140.432 5.57945H147.149ZM146.55 7.01916C146.389 7.17998 146.165 7.34379 145.88 7.46108C145.596 7.5781 145.327 7.61779 145.11 7.61779V0.901119C143.863 0.901119 142.694 1.37612 141.801 2.26975L146.55 7.01916ZM145.11 7.61779H150.115V0.901119H145.11V7.61779ZM150.115 7.61779C149.899 7.61779 149.63 7.5781 149.345 7.46108C149.061 7.34379 148.837 7.17999 148.676 7.01916L153.425 2.26975C152.531 1.37612 151.363 0.901119 150.115 0.901119V7.61779ZM148.839 7.17185C148.683 7.03537 148.49 6.81551 148.342 6.50067C148.191 6.18065 148.132 5.85795 148.132 5.57945H154.849C154.849 4.17726 154.232 2.96586 153.262 2.11705L148.839 7.17185ZM148.132 5.57945V9.53945H154.849V5.57945H148.132ZM148.132 9.53945C148.132 9.32292 148.172 9.0537 148.289 8.76952C148.406 8.48466 148.57 8.26058 148.731 8.09975L153.48 12.8492C154.374 11.9555 154.849 10.7866 154.849 9.53945H148.132ZM148.731 8.09976C148.923 7.9073 149.168 7.74215 149.448 7.63322C149.721 7.52698 149.958 7.50112 150.115 7.50112V14.2178C151.301 14.2178 152.521 13.8084 153.48 12.8491L148.731 8.09976ZM150.115 7.50112H145.11V14.2178H150.115V7.50112ZM145.33 40.8311C145.547 40.8311 145.816 40.8708 146.1 40.9878C146.385 41.1051 146.609 41.2689 146.77 41.4298L142.021 46.1792C142.914 47.0728 144.083 47.5478 145.33 47.5478V40.8311ZM146.77 41.4298C146.931 41.5906 147.095 41.8147 147.212 42.0995C147.329 42.3837 147.369 42.6529 147.369 42.8695H140.652C140.652 44.1166 141.127 45.2855 142.021 46.1792L146.77 41.4298ZM147.369 42.8695V16.9095H140.652V42.8695H147.369ZM147.369 16.9095C147.369 17.126 147.329 17.3952 147.212 17.6794C147.095 17.9642 146.931 18.1883 146.77 18.3492L142.021 13.5997C141.127 14.4934 140.652 15.6623 140.652 16.9095H147.369ZM146.77 18.3491C146.609 18.51 146.385 18.6738 146.1 18.7911C145.816 18.9081 145.547 18.9478 145.33 18.9478V12.2311C144.083 12.2311 142.914 12.7061 142.021 13.5998L146.77 18.3491ZM145.33 18.9478H149.895V12.2311H145.33V18.9478ZM149.895 18.9478C149.743 18.9478 149.474 18.9233 149.153 18.7911C148.817 18.6527 148.515 18.4331 148.281 18.16L153.38 13.7889C152.398 12.6431 151.071 12.2311 149.895 12.2311V18.9478ZM148.645 18.5243C148.372 18.2902 148.152 17.988 148.014 17.6519C147.882 17.3307 147.857 17.062 147.857 16.9095H154.574C154.574 15.734 154.162 14.4067 153.016 13.4246L148.645 18.5243ZM147.857 16.9095V42.8695H154.574V16.9095H147.857ZM147.857 42.8695C147.857 42.6529 147.897 42.3837 148.014 42.0995C148.131 41.8147 148.295 41.5906 148.456 41.4298L153.205 46.1792C154.099 45.2855 154.574 44.1166 154.574 42.8695H147.857ZM148.281 41.6189C148.515 41.3458 148.817 41.1262 149.153 40.9878C149.474 40.8556 149.743 40.8311 149.895 40.8311V47.5478C151.071 47.5478 152.398 47.1358 153.38 45.99L148.281 41.6189ZM149.895 40.8311H145.33V47.5478H149.895V40.8311ZM161.097 41.2195L158.723 43.5942L158.741 43.6124L158.759 43.6304L161.097 41.2195ZM157.302 31.2095L160.659 31.0947L160.658 31.085L160.658 31.0752L157.302 31.2095ZM157.247 29.8345L153.892 29.7002L153.886 29.8345L153.892 29.9687L157.247 29.8345ZM157.302 28.4595L153.947 28.3123L153.947 28.3252L157.302 28.4595ZM161.152 18.6145L158.796 16.2217L158.787 16.2307L158.778 16.2398L161.152 18.6145ZM180.842 18.9995L178.332 21.2306L178.341 21.2403L178.35 21.2499L180.842 18.9995ZM184.032 31.6495L186.407 34.0242V34.0241L184.032 31.6495ZM164.782 32.0345V28.6761H161.424V32.0345H164.782ZM164.782 32.4745H161.424V32.5355L161.426 32.5965L164.782 32.4745ZM166.432 37.5895L163.729 39.5816L163.758 39.6218L163.789 39.6611L166.432 37.5895ZM176.002 37.0945L173.403 34.9678L173.38 34.996L173.358 35.0247L176.002 37.0945ZM176.772 36.3245L175.27 33.3207L175.155 33.3783L175.044 33.4447L176.772 36.3245ZM183.262 36.4895L180.888 38.8641L181.084 39.0607L181.31 39.2222L183.262 36.4895ZM182.052 40.3395L179.53 38.1226L179.525 38.128L182.052 40.3395ZM177.597 43.4195L178.983 46.4787L177.597 43.4195ZM176.937 27.4145V30.7728H180.296V27.4145H176.937ZM175.287 22.0245L172.672 24.1312L172.69 24.153L172.707 24.1744L175.287 22.0245ZM166.377 22.0245L163.762 19.9177V19.9177L166.377 22.0245ZM164.782 27.4145H161.424V30.7728H164.782V27.4145ZM170.832 41.3811C167.443 41.3811 165.103 40.4256 163.435 38.8085L158.759 43.6304C161.932 46.7066 166.082 48.0978 170.832 48.0978V41.3811ZM163.472 38.8448C161.842 37.2148 160.785 34.7759 160.659 31.0947L153.946 31.3242C154.113 36.223 155.586 40.4575 158.723 43.5942L163.472 38.8448ZM160.658 31.0752L160.603 29.7002L153.892 29.9687L153.947 31.3437L160.658 31.0752ZM160.603 29.9687L160.658 28.5937L153.947 28.3252L153.892 29.7002L160.603 29.9687ZM160.657 28.6066C160.813 25.054 161.872 22.6442 163.527 20.9892L158.778 16.2398C155.666 19.3513 154.158 23.5049 153.947 28.3123L160.657 28.6066ZM163.509 21.0072C165.185 19.3567 167.504 18.3978 170.832 18.3978V11.6811C166.094 11.6811 161.96 13.1055 158.796 16.2217L163.509 21.0072ZM170.832 18.3978C174.434 18.3978 176.763 19.4655 178.332 21.2306L183.352 16.7683C180.228 13.2534 175.884 11.6811 170.832 11.6811V18.3978ZM178.35 21.2499C180.052 23.1354 181.059 25.7851 181.059 29.5595H187.776C187.776 24.5338 186.4 20.1435 183.335 16.749L178.35 21.2499ZM181.059 29.5595V30.7145H187.776V29.5595H181.059ZM181.059 30.7145C181.059 30.4979 181.099 30.2287 181.216 29.9445C181.333 29.6597 181.497 29.4356 181.658 29.2748L186.407 34.0241C187.301 33.1305 187.776 31.9616 187.776 30.7145H181.059ZM181.658 29.2747C181.85 29.0823 182.095 28.9171 182.375 28.8082C182.648 28.702 182.885 28.6761 183.042 28.6761V35.3928C184.228 35.3928 185.448 34.9834 186.407 34.0242L181.658 29.2747ZM183.042 28.6761H164.782V35.3928H183.042V28.6761ZM161.424 32.0345V32.4745H168.141V32.0345H161.424ZM161.426 32.5965C161.52 35.173 162.238 37.5589 163.729 39.5816L169.136 35.5973C168.573 34.8333 168.191 33.8092 168.138 32.3524L161.426 32.5965ZM163.789 39.6611C165.534 41.8879 167.988 42.9828 170.777 42.9828V36.2661C169.9 36.2661 169.457 36.0043 169.076 35.5178L163.789 39.6611ZM170.777 42.9828C173.961 42.9828 176.683 41.6738 178.647 39.1642L173.358 35.0247C172.682 35.8885 171.92 36.2661 170.777 36.2661V42.9828ZM178.602 39.2211C178.66 39.1496 178.708 39.0934 178.746 39.0506C178.785 39.0072 178.808 38.9832 178.817 38.9742C178.821 38.9701 178.82 38.9716 178.813 38.9778C178.806 38.9838 178.792 38.9966 178.771 39.0144C178.75 39.032 178.718 39.0577 178.675 39.0886C178.633 39.1192 178.575 39.1595 178.5 39.2042L175.044 33.4447C174.306 33.888 173.725 34.5738 173.403 34.9678L178.602 39.2211ZM178.274 39.3282C178.025 39.4528 177.832 39.4944 177.755 39.5079C177.674 39.5222 177.651 39.5178 177.707 39.5178V32.8011C177.077 32.8011 176.163 32.8742 175.27 33.3207L178.274 39.3282ZM177.707 39.5178H182.437V32.8011H177.707V39.5178ZM182.437 39.5178C182.224 39.5178 181.946 39.4809 181.644 39.3601C181.338 39.2377 181.083 39.0592 180.888 38.8641L185.637 34.1148C184.746 33.2238 183.598 32.8011 182.437 32.8011V39.5178ZM181.31 39.2222C181.09 39.0647 180.811 38.7998 180.594 38.3979C180.373 37.9874 180.289 37.5659 180.289 37.2045H187.006C187.006 35.7342 186.276 34.5148 185.214 33.7567L181.31 39.2222ZM180.289 37.2045C180.289 36.9691 180.358 36.9245 180.255 37.1253C180.154 37.3243 179.94 37.6559 179.53 38.1226L184.575 42.5563C185.779 41.1864 187.006 39.3495 187.006 37.2045H180.289ZM179.525 38.128C178.908 38.8333 177.87 39.6094 176.212 40.3602L178.983 46.4787C181.211 45.4695 183.144 44.1923 184.58 42.5509L179.525 38.128ZM176.212 40.3602C174.783 41.0072 173.017 41.3811 170.832 41.3811V48.0978C173.781 48.0978 176.525 47.5917 178.983 46.4787L176.212 40.3602ZM180.296 27.4145V27.2495H173.579V27.4145H180.296ZM180.296 27.2495C180.296 24.5093 179.589 21.9411 177.867 19.8745L172.707 24.1744C173.185 24.7478 173.579 25.6629 173.579 27.2495H180.296ZM177.903 19.9177C176.117 17.7008 173.612 16.6861 170.832 16.6861V23.4028C171.866 23.4028 172.331 23.7081 172.672 24.1312L177.903 19.9177ZM170.832 16.6861C168.053 16.6861 165.548 17.7008 163.762 19.9177L168.993 24.1312C169.333 23.7081 169.798 23.4028 170.832 23.4028V16.6861ZM163.762 19.9177C162.098 21.9831 161.424 24.535 161.424 27.2495H168.141C168.141 25.6372 168.53 24.7058 168.993 24.1312L163.762 19.9177ZM161.424 27.2495V27.4145H168.141V27.2495H161.424ZM164.782 30.7728H176.937V24.0561H164.782V30.7728ZM191.3 43.8045L188.926 46.1792H188.926L191.3 43.8045ZM191.245 6.07445L188.871 3.69976L188.78 3.79095L188.696 3.88887L191.245 6.07445ZM216.985 8.82445L214.847 11.4136L214.856 11.4211L214.865 11.4286L216.985 8.82445ZM218.855 24.4995L216.13 22.5371L216.123 22.5475L218.855 24.4995ZM213.465 28.4045L212.358 25.2339L208.543 26.5662L210.551 30.0731L213.465 28.4045ZM221.495 42.4295L224.499 40.9276L224.457 40.8429L224.41 40.7608L221.495 42.4295ZM221.275 43.8595L219.09 41.3096L218.992 41.3936L218.901 41.4847L221.275 43.8595ZM214.125 43.8045L211.914 46.3319L211.987 46.3958L212.064 46.4554L214.125 43.8045ZM213.3 42.7045L216.257 41.1123L216.254 41.1056L216.25 41.0989L213.3 42.7045ZM206.205 29.6695L209.155 28.0639L208.201 26.3111H206.205V29.6695ZM198.56 29.6695V26.3111H195.202V29.6695H198.56ZM198.175 43.8045L195.801 41.4298L195.71 41.521L195.626 41.6189L198.175 43.8045ZM211.265 21.9695L209.06 19.437L209.039 19.4549L209.019 19.4732L211.265 21.9695ZM211.265 13.3344L208.974 15.7896L208.994 15.8083L209.014 15.8267L211.265 13.3344ZM198.56 11.7945V8.43612H195.202V11.7945H198.56ZM198.56 23.4545H195.202V26.8128H198.56V23.4545ZM192.235 40.8311C192.452 40.8311 192.721 40.8708 193.005 40.9878C193.29 41.1051 193.514 41.2689 193.675 41.4298L188.926 46.1792C189.819 47.0728 190.988 47.5478 192.235 47.5478V40.8311ZM193.675 41.4298C193.836 41.5906 194 41.8147 194.117 42.0995C194.234 42.3837 194.274 42.6529 194.274 42.8695H187.557C187.557 44.1166 188.032 45.2855 188.926 46.1792L193.675 41.4298ZM194.274 42.8695V7.06445H187.557V42.8695H194.274ZM194.274 7.06445C194.274 7.16737 194.26 7.34934 194.184 7.57645C194.106 7.8114 193.976 8.04888 193.795 8.26003L188.696 3.88887C187.857 4.86704 187.557 6.02173 187.557 7.06445H194.274ZM193.62 8.44915C193.428 8.6416 193.183 8.80676 192.903 8.91568C192.63 9.02192 192.393 9.04778 192.235 9.04778V2.33112C191.05 2.33112 189.83 2.74051 188.871 3.69976L193.62 8.44915ZM192.235 9.04778H206.48V2.33112H192.235V9.04778ZM206.48 9.04778C210.456 9.04778 213.105 9.97519 214.847 11.4136L219.124 6.23531C215.806 3.49371 211.452 2.33112 206.48 2.33112V9.04778ZM214.865 11.4286C216.516 12.7729 217.477 14.7102 217.477 17.7345H224.194C224.194 13.0587 222.588 9.05597 219.106 6.22028L214.865 11.4286ZM217.477 17.7345C217.477 19.8406 216.967 21.3751 216.13 22.5372L221.581 26.4617C223.384 23.9571 224.194 20.9816 224.194 17.7345H217.477ZM216.123 22.5475C215.286 23.7192 214.088 24.63 212.358 25.2339L214.573 31.575C217.463 30.5656 219.859 28.873 221.588 26.4514L216.123 22.5475ZM210.551 30.0731L218.581 44.0981L224.41 40.7608L216.38 26.7358L210.551 30.0731ZM218.492 43.9314C218.445 43.837 218.302 43.5193 218.302 43.0345H225.019C225.019 42.1829 224.766 41.4619 224.499 40.9276L218.492 43.9314ZM218.302 43.0345C218.302 42.7522 218.36 42.413 218.521 42.068C218.681 41.7252 218.897 41.4752 219.09 41.3096L223.461 46.4093C224.441 45.5691 225.019 44.372 225.019 43.0345H218.302ZM218.901 41.4847C219.058 41.3271 219.288 41.1516 219.595 41.0202C219.906 40.887 220.221 40.8311 220.505 40.8311V47.5478C221.748 47.5478 222.843 47.0416 223.65 46.2342L218.901 41.4847ZM220.505 40.8311H215.5V47.5478H220.505V40.8311ZM215.5 40.8311C215.366 40.8311 215.731 40.7987 216.187 41.1535L212.064 46.4554C213.18 47.3236 214.462 47.5478 215.5 47.5478V40.8311ZM216.337 41.2771C216.394 41.3266 216.407 41.3501 216.386 41.322C216.365 41.294 216.32 41.2287 216.257 41.1123L210.344 44.2966C210.722 44.9995 211.226 45.7295 211.914 46.3319L216.337 41.2771ZM216.25 41.0989L209.155 28.0639L203.256 31.275L210.351 44.31L216.25 41.0989ZM206.205 26.3111H198.56V33.0278H206.205V26.3111ZM195.202 29.6695V42.8695H201.919V29.6695H195.202ZM195.202 42.8695C195.202 42.6529 195.242 42.3837 195.359 42.0995C195.476 41.8147 195.64 41.5906 195.801 41.4298L200.55 46.1792C201.444 45.2855 201.919 44.1166 201.919 42.8695H195.202ZM195.626 41.6189C195.86 41.3458 196.162 41.1262 196.498 40.9878C196.819 40.8556 197.088 40.8311 197.24 40.8311V47.5478C198.416 47.5478 199.743 47.1358 200.725 45.99L195.626 41.6189ZM197.24 40.8311H192.235V47.5478H197.24V40.8311ZM206.315 26.8128C208.951 26.8128 211.555 26.2275 213.512 24.4657L209.019 19.4732C208.776 19.6914 208.08 20.0961 206.315 20.0961V26.8128ZM213.471 24.5019C215.512 22.7248 216.329 20.2675 216.329 17.6795H209.612C209.612 18.8314 209.293 19.2341 209.06 19.437L213.471 24.5019ZM216.329 17.6795C216.329 15.0865 215.511 12.6434 213.517 10.8422L209.014 15.8267C209.294 16.0788 209.612 16.5324 209.612 17.6795H216.329ZM213.557 10.8793C211.6 9.05266 208.978 8.43612 206.315 8.43612V15.1528C208.053 15.1528 208.731 15.5629 208.974 15.7896L213.557 10.8793ZM206.315 8.43612H198.56V15.1528H206.315V8.43612ZM195.202 11.7945V23.4545H201.919V11.7945H195.202ZM198.56 26.8128H206.315V20.0961H198.56V26.8128ZM229.635 41.4395L227.318 43.8704L227.328 43.88L227.338 43.8895L229.635 41.4395ZM225.84 32.3095L222.483 32.3858L222.484 32.4275L222.486 32.4692L225.84 32.3095ZM225.785 29.8895L222.428 29.8131L222.426 29.8895L222.428 29.9658L225.785 29.8895ZM225.84 27.4695L222.486 27.3082L222.484 27.3506L222.483 27.3931L225.84 27.4695ZM229.69 18.3945L231.988 20.8433V20.8433L229.69 18.3945ZM249.49 18.3945L247.192 20.8433V20.8433L249.49 18.3945ZM253.34 27.4695L249.986 27.6307L249.988 27.6896L249.993 27.7484L253.34 27.4695ZM253.34 32.3095L249.993 32.0305L249.988 32.0901L249.986 32.1497L253.34 32.3095ZM249.545 41.4395L251.842 43.8895L251.852 43.88L251.862 43.8704L249.545 41.4395ZM244.1 37.4795L246.623 39.6963L246.639 39.6777L246.655 39.6588L244.1 37.4795ZM245.86 32.0345L242.518 31.7003L242.509 31.7898L242.505 31.8796L245.86 32.0345ZM245.86 27.7445L242.505 27.8993L242.509 27.9891L242.518 28.0786L245.86 27.7445ZM244.1 22.3545L241.545 24.5338L241.561 24.5527L241.577 24.5713L244.1 22.3545ZM235.08 22.3545L237.603 24.5713L237.619 24.5527L237.635 24.5338L235.08 22.3545ZM233.32 27.7445L229.965 27.5896L229.964 27.624L229.963 27.6584L233.32 27.7445ZM233.265 29.8895L229.908 29.8034L229.906 29.8895L229.908 29.9755L233.265 29.8895ZM233.32 32.0345L229.963 32.1205L229.964 32.1549L229.965 32.1893L233.32 32.0345ZM235.08 37.4795L232.525 39.6588L232.541 39.6777L232.557 39.6963L235.08 37.4795ZM239.59 41.3811C235.862 41.3811 233.472 40.4332 231.932 38.9894L227.338 43.8895C230.491 46.8457 234.738 48.0978 239.59 48.0978V41.3811ZM231.952 39.0085C230.346 37.4774 229.345 35.311 229.195 32.1497L222.486 32.4692C222.702 37.0079 224.231 40.9282 227.318 43.8704L231.952 39.0085ZM229.198 32.2331L229.143 29.8131L222.428 29.9658L222.483 32.3858L229.198 32.2331ZM229.143 29.9658L229.198 27.5458L222.483 27.3931L222.428 29.8131L229.143 29.9658ZM229.195 27.6307C229.344 24.531 230.347 22.3838 231.988 20.8433L227.392 15.9456C224.267 18.8784 222.703 22.7813 222.486 27.3082L229.195 27.6307ZM231.988 20.8433C233.584 19.3455 235.971 18.3978 239.59 18.3978V11.6811C234.776 11.6811 230.563 12.9701 227.392 15.9456L231.988 20.8433ZM239.59 18.3978C243.209 18.3978 245.596 19.3455 247.192 20.8433L251.788 15.9456C248.618 12.9701 244.404 11.6811 239.59 11.6811V18.3978ZM247.192 20.8433C248.833 22.3838 249.837 24.531 249.986 27.6307L256.695 27.3082C256.477 22.7813 254.913 18.8784 251.788 15.9456L247.192 20.8433ZM249.993 27.7484C250.017 28.0305 250.037 28.7056 250.037 29.8895H256.753C256.753 28.7266 256.737 27.7884 256.687 27.1905L249.993 27.7484ZM250.037 29.8895C250.037 31.0733 250.017 31.7484 249.993 32.0305L256.687 32.5884C256.737 31.9905 256.753 31.0523 256.753 29.8895H250.037ZM249.986 32.1497C249.835 35.3111 248.834 37.4774 247.228 39.0085L251.862 43.8704C254.949 40.9282 256.478 37.0079 256.695 32.4692L249.986 32.1497ZM247.248 38.9894C245.708 40.4332 243.318 41.3811 239.59 41.3811V48.0978C244.442 48.0978 248.689 46.8457 251.842 43.8895L247.248 38.9894ZM239.59 42.6528C242.282 42.6528 244.791 41.7807 246.623 39.6963L241.577 35.2626C241.282 35.5982 240.785 35.9361 239.59 35.9361V42.6528ZM246.655 39.6588C248.379 37.6374 249.086 34.9895 249.215 32.1893L242.505 31.8796C242.415 33.8461 241.947 34.8282 241.545 35.3001L246.655 39.6588ZM249.202 32.3686C249.258 31.8092 249.273 30.9296 249.273 29.8895H242.557C242.557 30.976 242.536 31.5264 242.518 31.7003L249.202 32.3686ZM249.273 29.8895C249.273 28.8493 249.258 27.9698 249.202 27.4103L242.518 28.0786C242.536 28.2525 242.557 28.8029 242.557 29.8895H249.273ZM249.215 27.5896C249.086 24.7973 248.382 22.139 246.623 20.1376L241.577 24.5713C241.945 24.9899 242.414 25.9249 242.505 27.8993L249.215 27.5896ZM246.655 20.1751C244.834 18.0394 242.315 17.1261 239.59 17.1261V23.8428C240.752 23.8428 241.24 24.1762 241.545 24.5338L246.655 20.1751ZM239.59 17.1261C236.865 17.1261 234.347 18.0394 232.525 20.1751L237.635 24.5338C237.94 24.1762 238.428 23.8428 239.59 23.8428V17.1261ZM232.557 20.1376C230.799 22.139 230.094 24.7973 229.965 27.5896L236.675 27.8993C236.766 25.9249 237.235 24.9899 237.603 24.5713L232.557 20.1376ZM229.963 27.6584L229.908 29.8034L236.622 29.9755L236.677 27.8305L229.963 27.6584ZM229.908 29.9755L229.963 32.1205L236.677 31.9484L236.622 29.8034L229.908 29.9755ZM229.965 32.1893C230.095 34.9895 230.801 37.6374 232.525 39.6588L237.635 35.3001C237.233 34.8282 236.766 33.8461 236.675 31.8796L229.965 32.1893ZM232.557 39.6963C234.389 41.7807 236.898 42.6528 239.59 42.6528V35.9361C238.395 35.9361 237.898 35.5982 237.603 35.2626L232.557 39.6963ZM262.184 41.4395L259.867 43.8704L259.877 43.88L259.887 43.8895L262.184 41.4395ZM258.389 32.3095L255.031 32.3858L255.032 32.4275L255.034 32.4692L258.389 32.3095ZM258.334 29.8895L254.976 29.8131L254.975 29.8895L254.976 29.9658L258.334 29.8895ZM258.389 27.4695L255.034 27.3082L255.032 27.3506L255.031 27.3931L258.389 27.4695ZM262.239 18.3945L264.537 20.8433V20.8433L262.239 18.3945ZM282.039 18.3945L279.741 20.8433V20.8433L282.039 18.3945ZM285.889 27.4695L282.534 27.6307L282.537 27.6896L282.542 27.7484L285.889 27.4695ZM285.889 32.3095L282.542 32.0305L282.537 32.0901L282.534 32.1497L285.889 32.3095ZM282.094 41.4395L284.391 43.8895L284.401 43.88L284.411 43.8704L282.094 41.4395ZM276.649 37.4795L279.172 39.6963L279.188 39.6777L279.204 39.6588L276.649 37.4795ZM278.409 32.0345L275.067 31.7003L275.058 31.7898L275.054 31.8796L278.409 32.0345ZM278.409 27.7445L275.054 27.8993L275.058 27.9891L275.067 28.0786L278.409 27.7445ZM276.649 22.3545L274.094 24.5338L274.11 24.5527L274.126 24.5713L276.649 22.3545ZM267.629 22.3545L270.152 24.5713L270.168 24.5527L270.184 24.5338L267.629 22.3545ZM265.869 27.7445L262.514 27.5896L262.513 27.624L262.512 27.6584L265.869 27.7445ZM265.814 29.8895L262.457 29.8034L262.454 29.8895L262.457 29.9755L265.814 29.8895ZM265.869 32.0345L262.512 32.1205L262.513 32.1549L262.514 32.1893L265.869 32.0345ZM267.629 37.4795L265.074 39.6588L265.09 39.6777L265.106 39.6963L267.629 37.4795ZM272.139 41.3811C268.411 41.3811 266.021 40.4332 264.481 38.9894L259.887 43.8895C263.04 46.8457 267.287 48.0978 272.139 48.0978V41.3811ZM264.501 39.0085C262.895 37.4774 261.894 35.311 261.743 32.1497L255.034 32.4692C255.25 37.0079 256.78 40.9282 259.867 43.8704L264.501 39.0085ZM261.746 32.2331L261.691 29.8131L254.976 29.9658L255.031 32.3858L261.746 32.2331ZM261.691 29.9658L261.746 27.5458L255.031 27.3931L254.976 29.8131L261.691 29.9658ZM261.743 27.6307C261.892 24.531 262.896 22.3838 264.537 20.8433L259.941 15.9456C256.816 18.8784 255.252 22.7813 255.034 27.3082L261.743 27.6307ZM264.537 20.8433C266.133 19.3455 268.52 18.3978 272.139 18.3978V11.6811C267.325 11.6811 263.111 12.9701 259.941 15.9456L264.537 20.8433ZM272.139 18.3978C275.758 18.3978 278.145 19.3455 279.741 20.8433L284.337 15.9456C281.166 12.9701 276.953 11.6811 272.139 11.6811V18.3978ZM279.741 20.8433C281.382 22.3838 282.385 24.531 282.534 27.6307L289.243 27.3082C289.026 22.7813 287.462 18.8784 284.337 15.9456L279.741 20.8433ZM282.542 27.7484C282.566 28.0305 282.586 28.7056 282.586 29.8895H289.302C289.302 28.7266 289.285 27.7884 289.236 27.1905L282.542 27.7484ZM282.586 29.8895C282.586 31.0733 282.566 31.7484 282.542 32.0305L289.236 32.5884C289.285 31.9905 289.302 31.0523 289.302 29.8895H282.586ZM282.534 32.1497C282.384 35.3111 281.383 37.4774 279.777 39.0085L284.411 43.8704C287.498 40.9282 289.027 37.0079 289.243 32.4692L282.534 32.1497ZM279.797 38.9894C278.257 40.4332 275.867 41.3811 272.139 41.3811V48.0978C276.991 48.0978 281.238 46.8457 284.391 43.8895L279.797 38.9894ZM272.139 42.6528C274.831 42.6528 277.34 41.7807 279.172 39.6963L274.126 35.2626C273.831 35.5982 273.334 35.9361 272.139 35.9361V42.6528ZM279.204 39.6588C280.928 37.6374 281.634 34.9895 281.764 32.1893L275.054 31.8796C274.963 33.8461 274.496 34.8282 274.094 35.3001L279.204 39.6588ZM281.751 32.3686C281.806 31.8092 281.822 30.9296 281.822 29.8895H275.106C275.106 30.976 275.085 31.5264 275.067 31.7003L281.751 32.3686ZM281.822 29.8895C281.822 28.8493 281.806 27.9698 281.751 27.4103L275.067 28.0786C275.085 28.2525 275.106 28.8029 275.106 29.8895H281.822ZM281.764 27.5896C281.635 24.7973 280.93 22.139 279.172 20.1376L274.126 24.5713C274.494 24.9899 274.963 25.9249 275.054 27.8993L281.764 27.5896ZM279.204 20.1751C277.382 18.0394 274.864 17.1261 272.139 17.1261V23.8428C273.301 23.8428 273.789 24.1762 274.094 24.5338L279.204 20.1751ZM272.139 17.1261C269.414 17.1261 266.895 18.0394 265.074 20.1751L270.184 24.5338C270.489 24.1762 270.977 23.8428 272.139 23.8428V17.1261ZM265.106 20.1376C263.347 22.139 262.643 24.7973 262.514 27.5896L269.224 27.8993C269.315 25.9249 269.784 24.9899 270.152 24.5713L265.106 20.1376ZM262.512 27.6584L262.457 29.8034L269.171 29.9755L269.226 27.8305L262.512 27.6584ZM262.457 29.9755L262.512 32.1205L269.226 31.9484L269.171 29.8034L262.457 29.9755ZM262.514 32.1893C262.643 34.9895 263.35 37.6374 265.074 39.6588L270.184 35.3001C269.782 34.8282 269.314 33.8461 269.224 31.8796L262.514 32.1893ZM265.106 39.6963C266.938 41.7807 269.447 42.6528 272.139 42.6528V35.9361C270.944 35.9361 270.446 35.5982 270.152 35.2626L265.106 39.6963ZM292.423 43.8045L294.797 41.4298L292.423 43.8045ZM292.423 15.9745L294.797 18.3492V18.3491L292.423 15.9745ZM298.583 15.9745L296.208 18.3491V18.3492L298.583 15.9745ZM298.968 18.7795H295.609V28.6997L301.635 20.8195L298.968 18.7795ZM315.468 19.9345L312.457 21.4228L315.183 26.9364L318.347 21.6623L315.468 19.9345ZM319.208 16.4145L320.816 19.3627L320.841 19.3488L320.867 19.3344L319.208 16.4145ZM331.803 18.1195L334.264 15.8343L331.803 18.1195ZM334.278 43.8045L331.903 41.4298L331.812 41.521L331.728 41.6189L334.278 43.8045ZM327.898 43.8045L330.272 41.4298L330.272 41.4297L327.898 43.8045ZM326.028 22.5195L323.527 24.7613L323.568 24.8067L323.61 24.8506L326.028 22.5195ZM318.493 22.5195L316.077 20.1868L316.056 20.2087L316.035 20.231L318.493 22.5195ZM316.623 43.8045L314.248 41.4297V41.4298L316.623 43.8045ZM308.318 22.5195L305.86 24.8079L305.901 24.8518L305.943 24.8942L308.318 22.5195ZM300.783 22.5195L298.367 20.1868L298.346 20.2087L298.325 20.231L300.783 22.5195ZM293.358 40.8311C293.574 40.8311 293.843 40.8708 294.128 40.9878C294.413 41.1051 294.637 41.2689 294.797 41.4298L290.048 46.1792C290.942 47.0728 292.111 47.5478 293.358 47.5478V40.8311ZM294.797 41.4298C294.958 41.5906 295.122 41.8147 295.239 42.0995C295.356 42.3837 295.396 42.6529 295.396 42.8695H288.679C288.679 44.1166 289.154 45.2855 290.048 46.1792L294.797 41.4298ZM295.396 42.8695V16.9095H288.679V42.8695H295.396ZM295.396 16.9095C295.396 17.126 295.356 17.3952 295.239 17.6794C295.122 17.9642 294.958 18.1883 294.797 18.3492L290.048 13.5997C289.154 14.4934 288.679 15.6623 288.679 16.9095H295.396ZM294.797 18.3491C294.637 18.51 294.413 18.6738 294.128 18.7911C293.843 18.9081 293.574 18.9478 293.358 18.9478V12.2311C292.111 12.2311 290.942 12.7061 290.048 13.5998L294.797 18.3491ZM293.358 18.9478H297.648V12.2311H293.358V18.9478ZM297.648 18.9478C297.431 18.9478 297.162 18.9081 296.878 18.7911C296.593 18.6738 296.369 18.51 296.208 18.3491L300.957 13.5998C300.064 12.7061 298.895 12.2311 297.648 12.2311V18.9478ZM296.208 18.3492C296.047 18.1883 295.883 17.9642 295.766 17.6794C295.649 17.3952 295.609 17.126 295.609 16.9095H302.326C302.326 15.6623 301.851 14.4934 300.957 13.5997L296.208 18.3492ZM295.609 16.9095V18.7795H302.326V16.9095H295.609ZM301.635 20.8195C302.846 19.2365 304.474 18.3978 306.943 18.3978V11.6811C302.591 11.6811 298.903 13.3357 296.3 16.7394L301.635 20.8195ZM306.943 18.3978C308.531 18.3978 309.652 18.7148 310.454 19.1756C311.234 19.6236 311.912 20.3192 312.457 21.4228L318.478 18.4461C317.411 16.2864 315.86 14.5345 313.799 13.3508C311.76 12.18 309.424 11.6811 306.943 11.6811V18.3978ZM318.347 21.6623C318.897 20.7465 319.687 19.9784 320.816 19.3627L317.6 13.4662C315.502 14.6105 313.798 16.189 312.588 18.2066L318.347 21.6623ZM320.867 19.3344C321.97 18.7074 323.14 18.3978 324.433 18.3978V11.6811C321.986 11.6811 319.672 12.2882 317.549 13.4945L320.867 19.3344ZM324.433 18.3978C326.582 18.3978 328.121 19.0896 329.342 20.4046L334.264 15.8343C331.671 13.0426 328.297 11.6811 324.433 11.6811V18.3978ZM329.342 20.4046C330.476 21.6257 331.304 23.6683 331.304 27.0845H338.021C338.021 22.6539 336.943 18.7199 334.264 15.8343L329.342 20.4046ZM331.304 27.0845V42.8695H338.021V27.0845H331.304ZM331.304 42.8695C331.304 42.6529 331.344 42.3837 331.461 42.0995C331.578 41.8147 331.742 41.5906 331.903 41.4298L336.652 46.1791C337.546 45.2855 338.021 44.1166 338.021 42.8695H331.304ZM331.728 41.6189C331.962 41.3458 332.264 41.1262 332.6 40.9878C332.921 40.8556 333.19 40.8311 333.343 40.8311V47.5478C334.518 47.5478 335.845 47.1358 336.828 45.99L331.728 41.6189ZM333.343 40.8311H328.833V47.5478H333.343V40.8311ZM328.833 40.8311C329.049 40.8311 329.318 40.8708 329.603 40.9878C329.888 41.1051 330.112 41.2689 330.272 41.4298L325.523 46.1791C326.417 47.0728 327.586 47.5478 328.833 47.5478V40.8311ZM330.272 41.4297C330.433 41.5906 330.597 41.8147 330.714 42.0995C330.831 42.3837 330.871 42.6529 330.871 42.8695H324.154C324.154 44.1166 324.629 45.2855 325.523 46.1792L330.272 41.4297ZM330.871 42.8695V27.5245H324.154V42.8695H330.871ZM330.871 27.5245C330.871 24.858 330.32 22.1323 328.445 20.1883L323.61 24.8506C323.716 24.96 324.154 25.5709 324.154 27.5245H330.871ZM328.528 20.2776C326.852 18.4075 324.608 17.5661 322.178 17.5661V24.2828C322.974 24.2828 323.297 24.5047 323.527 24.7613L328.528 20.2776ZM322.178 17.5661C319.803 17.5661 317.712 18.4927 316.077 20.1868L320.909 24.8521C321.326 24.4195 321.693 24.2828 322.178 24.2828V17.5661ZM316.035 20.231C314.214 22.1865 313.649 24.8629 313.649 27.5245H320.366C320.366 25.6394 320.791 24.9791 320.951 24.8079L316.035 20.231ZM313.649 27.5245V42.8695H320.366V27.5245H313.649ZM313.649 42.8695C313.649 42.6529 313.689 42.3837 313.806 42.0995C313.923 41.8147 314.087 41.5906 314.248 41.4297L318.997 46.1792C319.891 45.2855 320.366 44.1166 320.366 42.8695H313.649ZM314.248 41.4298C314.409 41.2689 314.633 41.1051 314.918 40.9878C315.202 40.8708 315.471 40.8311 315.688 40.8311V47.5478C316.935 47.5478 318.104 47.0728 318.997 46.1791L314.248 41.4298ZM315.688 40.8311H311.178V47.5478H315.688V40.8311ZM311.178 40.8311C311.394 40.8311 311.663 40.8708 311.948 40.9878C312.233 41.1051 312.457 41.2689 312.617 41.4298L307.868 46.1792C308.762 47.0728 309.931 47.5478 311.178 47.5478V40.8311ZM312.617 41.4298C312.778 41.5906 312.942 41.8147 313.059 42.0995C313.176 42.3837 313.216 42.6529 313.216 42.8695H306.499C306.499 44.1166 306.974 45.2855 307.868 46.1792L312.617 41.4298ZM313.216 42.8695V27.5245H306.499V42.8695H313.216ZM313.216 27.5245C313.216 24.8315 312.635 22.0869 310.692 20.1448L305.943 24.8942C306.054 25.0053 306.499 25.5974 306.499 27.5245H313.216ZM310.776 20.231C309.109 18.4407 306.932 17.5661 304.523 17.5661V24.2828C305.193 24.2828 305.547 24.4715 305.86 24.8079L310.776 20.231ZM304.523 17.5661C302.137 17.5661 300.021 18.4737 298.367 20.1868L303.199 24.8521C303.598 24.4385 303.975 24.2828 304.523 24.2828V17.5661ZM298.325 20.231C296.504 22.1865 295.939 24.8629 295.939 27.5245H302.656C302.656 25.6394 303.081 24.9791 303.241 24.8079L298.325 20.231ZM295.939 27.5245V42.8695H302.656V27.5245H295.939ZM295.939 42.8695C295.939 42.6529 295.979 42.3837 296.096 42.0995C296.213 41.8147 296.377 41.5906 296.538 41.4298L301.287 46.1792C302.181 45.2855 302.656 44.1166 302.656 42.8695H295.939ZM296.538 41.4298C296.699 41.2689 296.923 41.1051 297.208 40.9878C297.492 40.8708 297.761 40.8311 297.978 40.8311V47.5478C299.225 47.5478 300.394 47.0728 301.287 46.1792L296.538 41.4298ZM297.978 40.8311H293.358V47.5478H297.978V40.8311Z" fill="#FB37FF"/>
</g>
<defs>
<filter id="filter0_f" x="0.233171" y="0.0617839" width="338.627" height="48.8758" filterUnits="userSpaceOnUse" color-interpolation-filters="sRGB">
<feFlood flood-opacity="0" result="BackgroundImageFix"/>
<feBlend mode="normal" in="SourceGraphic" in2="BackgroundImageFix" result="shape"/>
<feGaussianBlur stdDeviation="0.419792" result="effect1_foregroundBlur"/>
</filter>
</defs>
</svg>
