<svg width="335" height="45" viewBox="0 0 335 45" fill="none" xmlns="http://www.w3.org/2000/svg">
<g filter="url(#filter0_f)">
<path d="M2.81611 41.8595L1.62876 43.0468L1.67436 43.0924L1.72333 43.1344L2.81611 41.8595ZM2.81611 4.07445L4.00346 5.2618L4.00347 5.2618L2.81611 4.07445ZM9.80111 4.73445L8.28359 5.45328L8.30147 5.49103L8.32121 5.52784L9.80111 4.73445ZM20.4161 24.5345L18.9362 25.3278L20.4085 28.0741L21.8926 25.3342L20.4161 24.5345ZM31.1411 4.73445L32.6176 5.53421L32.6224 5.52539L32.627 5.51652L31.1411 4.73445ZM38.0711 4.07445L36.8838 5.2618L36.8838 5.26181L38.0711 4.07445ZM38.0711 41.8595L39.1639 43.1344L39.2129 43.0924L39.2585 43.0468L38.0711 41.8595ZM31.5261 41.8045L32.7135 40.6171L32.7135 40.6171L31.5261 41.8045ZM31.1411 17.0545H32.8203L29.654 16.2747L31.1411 17.0545ZM23.4411 31.7395L24.8868 32.5937L24.9084 32.557L24.9282 32.5192L23.4411 31.7395ZM17.4461 31.7395L15.959 32.5192L15.9788 32.557L16.0005 32.5937L17.4461 31.7395ZM9.74611 17.0545L11.2332 16.2747L8.06695 17.0545H9.74611ZM9.36111 41.8045L8.17376 40.6171L8.12816 40.6627L8.08619 40.7117L9.36111 41.8045ZM3.80611 40.5103C3.75674 40.5103 3.75606 40.5036 3.78711 40.514C3.80252 40.5191 3.82279 40.5275 3.84559 40.5403C3.8685 40.5532 3.88998 40.5683 3.9089 40.5845L1.72333 43.1344C2.34074 43.6636 3.08308 43.8686 3.80611 43.8686V40.5103ZM4.00346 40.6721C4.03552 40.7042 4.06998 40.7533 4.09235 40.8108C4.11339 40.8649 4.11028 40.8916 4.11028 40.8695H0.751947C0.751947 41.6639 1.02081 42.4389 1.62876 43.0468L4.00346 40.6721ZM4.11028 40.8695V5.06445H0.751947V40.8695H4.11028ZM4.11028 5.06445C4.11028 5.04228 4.11339 5.06896 4.09235 5.12306C4.06998 5.1806 4.03552 5.22974 4.00346 5.2618L1.62877 2.8871C1.02081 3.49505 0.751947 4.27001 0.751947 5.06445H4.11028ZM4.00347 5.2618C3.97141 5.29386 3.92227 5.32831 3.86472 5.35069C3.81063 5.37173 3.78395 5.36862 3.80611 5.36862V2.01028C3.01167 2.01028 2.23671 2.27915 1.62876 2.8871L4.00347 5.2618ZM3.80611 5.36862H8.15111V2.01028H3.80611V5.36862ZM8.15111 5.36862C8.21715 5.36862 8.25027 5.37607 8.25892 5.37835C8.26579 5.38016 8.25733 5.37858 8.24267 5.36929C8.22802 5.36001 8.22313 5.35315 8.22795 5.35887C8.23395 5.366 8.25509 5.39313 8.28359 5.45328L11.3186 4.01562C11.043 3.43374 10.629 2.90542 10.0396 2.53211C9.45 2.15872 8.79527 2.01028 8.15111 2.01028V5.36862ZM8.32121 5.52784L18.9362 25.3278L21.896 23.7411L11.281 3.94106L8.32121 5.52784ZM21.8926 25.3342L32.6176 5.53421L29.6646 3.93469L18.9396 23.7347L21.8926 25.3342ZM32.627 5.51652C32.7022 5.37379 32.7473 5.35645 32.7271 5.36929C32.7196 5.37399 32.7135 5.37579 32.7153 5.3753C32.7185 5.37444 32.7412 5.36862 32.7911 5.36862V2.01028C32.1477 2.01028 31.5069 2.16687 30.9302 2.53211C30.3599 2.89328 29.9467 3.39844 29.6552 3.95238L32.627 5.51652ZM32.7911 5.36862H37.0811V2.01028H32.7911V5.36862ZM37.0811 5.36862C37.1033 5.36862 37.0766 5.37173 37.0225 5.35069C36.965 5.32831 36.9158 5.29386 36.8838 5.2618L39.2585 2.88711C38.6505 2.27915 37.8756 2.01028 37.0811 2.01028V5.36862ZM36.8838 5.26181C36.8517 5.22975 36.8173 5.18061 36.7949 5.12306C36.7738 5.06896 36.7769 5.04228 36.7769 5.06445H40.1353C40.1353 4.27001 39.8664 3.49505 39.2585 2.8871L36.8838 5.26181ZM36.7769 5.06445V40.8695H40.1353V5.06445H36.7769ZM36.7769 40.8695C36.7769 40.8916 36.7738 40.8649 36.7949 40.8108C36.8173 40.7533 36.8517 40.7042 36.8838 40.6721L39.2585 43.0468C39.8664 42.4389 40.1353 41.6639 40.1353 40.8695H36.7769ZM36.9783 40.5845C36.9972 40.5683 37.0187 40.5532 37.0416 40.5403C37.0644 40.5275 37.0847 40.5191 37.1001 40.514C37.1312 40.5036 37.1305 40.5103 37.0811 40.5103V43.8686C37.8041 43.8686 38.5465 43.6636 39.1639 43.1344L36.9783 40.5845ZM37.0811 40.5103H32.4611V43.8686H37.0811V40.5103ZM32.4611 40.5103C32.4777 40.5103 32.5275 40.5141 32.5917 40.5405C32.6562 40.5671 32.6972 40.6009 32.7135 40.6171L30.3388 42.9918C30.9139 43.567 31.6542 43.8686 32.4611 43.8686V40.5103ZM32.7135 40.6171C32.7297 40.6333 32.7635 40.6743 32.7901 40.7389C32.8165 40.803 32.8203 40.8529 32.8203 40.8695H29.4619C29.4619 41.6764 29.7636 42.4167 30.3388 42.9918L32.7135 40.6171ZM32.8203 40.8695V17.0545H29.4619V40.8695H32.8203ZM29.654 16.2747L21.954 30.9597L24.9282 32.5192L32.6282 17.8342L29.654 16.2747ZM21.9955 30.8852C21.8557 31.1217 21.7475 31.209 21.7039 31.2372C21.6744 31.2562 21.6451 31.2703 21.5711 31.2703V34.6286C23.0716 34.6286 24.1846 33.7819 24.8868 32.5937L21.9955 30.8852ZM21.5711 31.2703H19.3161V34.6286H21.5711V31.2703ZM19.3161 31.2703C19.2421 31.2703 19.2128 31.2562 19.1833 31.2372C19.1397 31.209 19.0315 31.1217 18.8918 30.8852L16.0005 32.5937C16.7026 33.7819 17.8156 34.6286 19.3161 34.6286V31.2703ZM18.9332 30.9597L11.2332 16.2747L8.25898 17.8342L15.959 32.5192L18.9332 30.9597ZM8.06695 17.0545V40.8695H11.4253V17.0545H8.06695ZM8.06695 40.8695C8.06695 40.8529 8.07075 40.803 8.09718 40.7389C8.12374 40.6744 8.15752 40.6334 8.17376 40.6171L10.5485 42.9918C11.1236 42.4167 11.4253 41.6764 11.4253 40.8695H8.06695ZM8.08619 40.7117C8.14824 40.6393 8.2329 40.5776 8.32302 40.5405C8.40569 40.5065 8.45067 40.5103 8.42611 40.5103V43.8686C9.21552 43.8686 10.035 43.5985 10.636 42.8972L8.08619 40.7117ZM8.42611 40.5103H3.80611V43.8686H8.42611V40.5103ZM49.0462 39.4395L47.8876 40.655L47.8977 40.6645L49.0462 39.4395ZM45.2512 30.3095L43.5725 30.3476L43.5729 30.3685L43.5739 30.3893L45.2512 30.3095ZM45.1962 27.8895L43.5175 27.8513L43.5166 27.8895L43.5175 27.9276L45.1962 27.8895ZM45.2512 25.4695L43.574 25.3888L43.5729 25.41L43.5725 25.4313L45.2512 25.4695ZM49.1012 16.3945L50.2503 17.6189L49.1012 16.3945ZM68.9012 16.3945L67.7521 17.6189L68.9012 16.3945ZM72.7512 25.4695L71.074 25.5501L71.0754 25.5795L71.0778 25.6089L72.7512 25.4695ZM72.7512 30.3095L71.0778 30.17L71.0753 30.1998L71.0739 30.2296L72.7512 30.3095ZM68.9562 39.4395L70.1047 40.6645L70.1147 40.6549L68.9562 39.4395ZM63.5112 35.4795L64.7725 36.5879L64.7807 36.5786L64.7888 36.5691L63.5112 35.4795ZM65.2712 30.0345L63.6004 29.8674L63.5959 29.9121L63.5938 29.957L65.2712 30.0345ZM65.2712 25.7445L63.5938 25.8219L63.5959 25.8668L63.6004 25.9115L65.2712 25.7445ZM63.5112 20.3545L62.2336 21.4441L62.2417 21.4536L62.2499 21.4629L63.5112 20.3545ZM54.4912 20.3545L55.7525 21.4629L55.7607 21.4536L55.7688 21.4441L54.4912 20.3545ZM52.7312 25.7445L51.0538 25.667L51.053 25.6842L51.0526 25.7014L52.7312 25.7445ZM52.6762 27.8895L50.9976 27.8464L50.9965 27.8895L50.9976 27.9325L52.6762 27.8895ZM52.7312 30.0345L51.0526 30.0775L51.053 30.0947L51.0538 30.1119L52.7312 30.0345ZM54.4912 35.4795L53.2136 36.5691L53.2217 36.5786L53.2299 36.5879L54.4912 35.4795ZM59.0012 41.0603C54.9922 41.0603 52.138 40.0363 50.1946 38.2144L47.8977 40.6645C50.6477 43.2426 54.4302 44.4186 59.0012 44.4186V41.0603ZM50.2047 38.224C48.2282 36.3401 47.0954 33.7353 46.9285 30.2296L43.5739 30.3893C43.7737 34.5837 45.1708 38.0655 47.8877 40.6549L50.2047 38.224ZM46.9299 30.2713L46.8749 27.8513L43.5175 27.9276L43.5725 30.3476L46.9299 30.2713ZM46.8749 27.9276L46.9299 25.5076L43.5725 25.4313L43.5175 27.8513L46.8749 27.9276ZM46.9284 25.5501C47.0946 22.0935 48.2378 19.5075 50.2503 17.6189L47.9521 15.17C45.1979 17.7548 43.7744 21.2187 43.574 25.3888L46.9284 25.5501ZM50.2503 17.6189C52.24 15.7516 55.0832 14.7186 59.0012 14.7186V11.3603C54.4858 11.3603 50.7291 12.5639 47.9521 15.17L50.2503 17.6189ZM59.0012 14.7186C62.9191 14.7186 65.7624 15.7516 67.7521 17.6189L70.0503 15.17C67.2733 12.5639 63.5166 11.3603 59.0012 11.3603V14.7186ZM67.7521 17.6189C69.7645 19.5075 70.9078 22.0935 71.074 25.5501L74.4284 25.3888C74.2279 21.2187 72.8045 17.7548 70.0503 15.17L67.7521 17.6189ZM71.0778 25.6089C71.1079 25.97 71.127 26.7109 71.127 27.8895H74.4854C74.4854 26.7214 74.4678 25.8489 74.4246 25.33L71.0778 25.6089ZM71.127 27.8895C71.127 29.068 71.1079 29.8089 71.0778 30.17L74.4246 30.4489C74.4678 29.93 74.4854 29.0575 74.4854 27.8895H71.127ZM71.0739 30.2296C70.907 33.7353 69.7742 36.3401 67.7977 38.224L70.1147 40.6549C72.8315 38.0655 74.2287 34.5837 74.4285 30.3893L71.0739 30.2296ZM67.8077 38.2144C65.8644 40.0363 63.0102 41.0603 59.0012 41.0603V44.4186C63.5722 44.4186 67.3547 43.2426 70.1046 40.6645L67.8077 38.2144ZM59.0012 38.9736C61.3187 38.9736 63.325 38.2351 64.7725 36.5879L62.2499 34.371C61.5707 35.1438 60.5704 35.6153 59.0012 35.6153V38.9736ZM64.7888 36.5691C66.1825 34.9351 66.8289 32.7037 66.9486 30.1119L63.5938 29.957C63.4934 32.1319 62.9665 33.5305 62.2336 34.3898L64.7888 36.5691ZM66.942 30.2015C66.9883 29.7385 67.0054 28.9412 67.0054 27.8895H63.647C63.647 28.9644 63.6274 29.5971 63.6004 29.8674L66.942 30.2015ZM67.0054 27.8895C67.0054 26.8377 66.9883 26.0404 66.942 25.5774L63.6004 25.9115C63.6274 26.1818 63.647 26.8145 63.647 27.8895H67.0054ZM66.9486 25.667C66.8291 23.0792 66.1836 20.8517 64.7725 19.246L62.2499 21.4629C62.9654 22.2772 63.4932 23.643 63.5938 25.8219L66.9486 25.667ZM64.7888 19.2648C63.3463 17.5736 61.3353 16.8053 59.0012 16.8053V20.1636C60.5538 20.1636 61.5494 20.642 62.2336 21.4441L64.7888 19.2648ZM59.0012 16.8053C56.6671 16.8053 54.6561 17.5736 53.2136 19.2648L55.7688 21.4441C56.453 20.642 57.4486 20.1636 59.0012 20.1636V16.8053ZM53.2299 19.246C51.8188 20.8517 51.1732 23.0792 51.0538 25.667L54.4086 25.8219C54.5091 23.643 55.0369 22.2772 55.7525 21.4629L53.2299 19.246ZM51.0526 25.7014L50.9976 27.8464L54.3548 27.9325L54.4098 25.7875L51.0526 25.7014ZM50.9976 27.9325L51.0526 30.0775L54.4098 29.9914L54.3548 27.8464L50.9976 27.9325ZM51.0538 30.1119C51.1734 32.7037 51.8199 34.9351 53.2136 36.5691L55.7688 34.3898C55.0358 33.5305 54.509 32.1319 54.4086 29.957L51.0538 30.1119ZM53.2299 36.5879C54.6774 38.2351 56.6837 38.9736 59.0012 38.9736V35.6153C57.432 35.6153 56.4317 35.1438 55.7525 34.371L53.2299 36.5879ZM81.595 39.4395L80.4365 40.655L80.4466 40.6645L81.595 39.4395ZM77.8 30.3095L76.1213 30.3476L76.1218 30.3685L76.1228 30.3893L77.8 30.3095ZM77.745 27.8895L76.0663 27.8513L76.0654 27.8895L76.0663 27.9276L77.745 27.8895ZM77.8 25.4695L76.1228 25.3888L76.1218 25.41L76.1213 25.4313L77.8 25.4695ZM81.65 16.3945L82.7991 17.6189L81.65 16.3945ZM101.45 16.3945L100.301 17.6189L101.45 16.3945ZM105.3 25.4695L103.623 25.5501L103.624 25.5795L103.627 25.6089L105.3 25.4695ZM105.3 30.3095L103.627 30.17L103.624 30.1998L103.623 30.2296L105.3 30.3095ZM101.505 39.4395L102.654 40.6645L102.664 40.6549L101.505 39.4395ZM96.06 35.4795L97.3214 36.5879L97.3295 36.5786L97.3376 36.5691L96.06 35.4795ZM97.82 30.0345L96.1492 29.8674L96.1447 29.9121L96.1426 29.957L97.82 30.0345ZM97.82 25.7445L96.1426 25.8219L96.1447 25.8668L96.1492 25.9115L97.82 25.7445ZM96.06 20.3545L94.7825 21.4441L94.7905 21.4536L94.7987 21.4629L96.06 20.3545ZM87.04 20.3545L88.3014 21.4629L88.3095 21.4536L88.3176 21.4441L87.04 20.3545ZM85.28 25.7445L83.6026 25.667L83.6018 25.6842L83.6014 25.7014L85.28 25.7445ZM85.225 27.8895L83.5464 27.8464L83.5453 27.8895L83.5464 27.9325L85.225 27.8895ZM85.28 30.0345L83.6014 30.0775L83.6018 30.0947L83.6026 30.1119L85.28 30.0345ZM87.04 35.4795L85.7625 36.5691L85.7705 36.5786L85.7787 36.5879L87.04 35.4795ZM91.55 41.0603C87.541 41.0603 84.6868 40.0363 82.7435 38.2144L80.4466 40.6645C83.1965 43.2426 86.979 44.4186 91.55 44.4186V41.0603ZM82.7535 38.224C80.777 36.3401 79.6442 33.7353 79.4773 30.2296L76.1228 30.3893C76.3225 34.5837 77.7197 38.0655 80.4365 40.6549L82.7535 38.224ZM79.4788 30.2713L79.4238 27.8513L76.0663 27.9276L76.1213 30.3476L79.4788 30.2713ZM79.4238 27.9276L79.4788 25.5076L76.1213 25.4313L76.0663 27.8513L79.4238 27.9276ZM79.4772 25.5501C79.6434 22.0935 80.7867 19.5075 82.7991 17.6189L80.5009 15.17C77.7467 17.7548 76.3233 21.2187 76.1228 25.3888L79.4772 25.5501ZM82.7991 17.6189C84.7888 15.7516 87.6321 14.7186 91.55 14.7186V11.3603C87.0346 11.3603 83.2779 12.5639 80.5009 15.17L82.7991 17.6189ZM91.55 14.7186C95.468 14.7186 98.3112 15.7516 100.301 17.6189L102.599 15.17C99.8221 12.5639 96.0654 11.3603 91.55 11.3603V14.7186ZM100.301 17.6189C102.313 19.5075 103.457 22.0935 103.623 25.5501L106.977 25.3888C106.777 21.2187 105.353 17.7548 102.599 15.17L100.301 17.6189ZM103.627 25.6089C103.657 25.97 103.676 26.7109 103.676 27.8895H107.034C107.034 26.7214 107.017 25.8489 106.973 25.33L103.627 25.6089ZM103.676 27.8895C103.676 29.068 103.657 29.8089 103.627 30.17L106.973 30.4489C107.017 29.93 107.034 29.0575 107.034 27.8895H103.676ZM103.623 30.2296C103.456 33.7353 102.323 36.3401 100.347 38.224L102.664 40.6549C105.38 38.0655 106.778 34.5837 106.977 30.3893L103.623 30.2296ZM100.357 38.2144C98.4132 40.0363 95.559 41.0603 91.55 41.0603V44.4186C96.121 44.4186 99.9035 43.2426 102.653 40.6645L100.357 38.2144ZM91.55 38.9736C93.8675 38.9736 95.8738 38.2351 97.3214 36.5879L94.7987 34.371C94.1196 35.1438 93.1192 35.6153 91.55 35.6153V38.9736ZM97.3376 36.5691C98.7313 34.9351 99.3778 32.7037 99.4974 30.1119L96.1426 29.957C96.0423 32.1319 95.5154 33.5305 94.7825 34.3898L97.3376 36.5691ZM99.4909 30.2015C99.5372 29.7385 99.5542 28.9412 99.5542 27.8895H96.1959C96.1959 28.9644 96.1762 29.5971 96.1492 29.8674L99.4909 30.2015ZM99.5542 27.8895C99.5542 26.8377 99.5372 26.0404 99.4909 25.5774L96.1492 25.9115C96.1762 26.1818 96.1959 26.8145 96.1959 27.8895H99.5542ZM99.4974 25.667C99.378 23.0792 98.7324 20.8517 97.3214 19.246L94.7987 21.4629C95.5143 22.2772 96.0421 23.643 96.1426 25.8219L99.4974 25.667ZM97.3376 19.2648C95.8951 17.5736 93.8841 16.8053 91.55 16.8053V20.1636C93.1026 20.1636 94.0983 20.642 94.7825 21.4441L97.3376 19.2648ZM91.55 16.8053C89.2159 16.8053 87.2049 17.5736 85.7625 19.2648L88.3176 21.4441C89.0018 20.642 89.9975 20.1636 91.55 20.1636V16.8053ZM85.7787 19.246C84.3676 20.8517 83.7221 23.0792 83.6026 25.667L86.9574 25.8219C87.058 23.643 87.5858 22.2772 88.3014 21.4629L85.7787 19.246ZM83.6014 25.7014L83.5464 27.8464L86.9036 27.9325L86.9586 25.7875L83.6014 25.7014ZM83.5464 27.9325L83.6014 30.0775L86.9586 29.9914L86.9036 27.8464L83.5464 27.9325ZM83.6026 30.1119C83.7223 32.7037 84.3687 34.9351 85.7625 36.5691L88.3176 34.3898C87.5847 33.5305 87.0578 32.1319 86.9574 29.957L83.6026 30.1119ZM85.7787 36.5879C87.2262 38.2351 89.2325 38.9736 91.55 38.9736V35.6153C89.9809 35.6153 88.9805 35.1438 88.3014 34.371L85.7787 36.5879ZM119.283 41.8595L118.178 43.1232L118.225 43.1648L118.276 43.2028L119.283 41.8595ZM118.568 40.8145L117.011 41.4421L117.015 41.4512L117.018 41.4603L118.568 40.8145ZM108.283 15.2945L106.644 15.6587L106.674 15.7938L106.726 15.9221L108.283 15.2945ZM108.173 14.7995H106.494V14.9838L106.534 15.1637L108.173 14.7995ZM108.503 13.9745L109.691 15.1618V15.1618L108.503 13.9745ZM115.268 14.6345L113.693 15.2149L113.695 15.2222L113.698 15.2294L115.268 14.6345ZM122.583 33.9395L121.013 34.5344L122.583 38.6784L124.154 34.5344L122.583 33.9395ZM129.898 14.6345L128.355 13.973L128.341 14.0059L128.328 14.0395L129.898 14.6345ZM130.393 13.9195L129.301 12.6445L129.252 12.6865L129.206 12.7321L130.393 13.9195ZM136.608 13.9745L135.333 15.0672L135.417 15.1653L135.516 15.2494L136.608 13.9745ZM136.938 15.2945L138.495 15.925L138.515 15.8758L138.531 15.8254L136.938 15.2945ZM126.598 40.8145L128.148 41.4603L128.152 41.4527L128.155 41.445L126.598 40.8145ZM125.883 41.8595L126.891 43.2028L126.941 43.1648L126.989 43.1232L125.883 41.8595ZM120.548 40.5103C120.381 40.5103 120.285 40.4931 120.243 40.4822C120.205 40.472 120.233 40.4731 120.291 40.5161L118.276 43.2028C118.973 43.7256 119.808 43.8686 120.548 43.8686V40.5103ZM120.389 40.5958C120.327 40.5419 120.224 40.4234 120.118 40.1686L117.018 41.4603C117.279 42.0856 117.653 42.6637 118.178 43.1232L120.389 40.5958ZM120.126 40.1868L109.841 14.6668L106.726 15.9221L117.011 41.4421L120.126 40.1868ZM109.923 14.9302L109.813 14.4352L106.534 15.1637L106.644 15.6587L109.923 14.9302ZM109.853 14.7995C109.853 14.8237 109.848 14.8871 109.815 14.9693C109.781 15.0536 109.733 15.1193 109.691 15.1618L107.316 12.7871C106.76 13.3426 106.494 14.0541 106.494 14.7995H109.853ZM109.691 15.1618C109.691 15.1613 109.683 15.1693 109.666 15.1816C109.648 15.1942 109.622 15.2095 109.589 15.2241C109.517 15.2556 109.443 15.2686 109.383 15.2686V11.9103C108.561 11.9103 107.853 12.2501 107.316 12.7871L109.691 15.1618ZM109.383 15.2686H113.838V11.9103H109.383V15.2686ZM113.838 15.2686C113.873 15.2686 113.87 15.2729 113.842 15.2645C113.811 15.2554 113.769 15.2369 113.728 15.2064C113.687 15.1766 113.665 15.1495 113.66 15.1418C113.656 15.1362 113.671 15.1554 113.693 15.2149L116.844 14.054C116.631 13.4751 116.276 12.9091 115.709 12.495C115.134 12.0747 114.477 11.9103 113.838 11.9103V15.2686ZM113.698 15.2294L121.013 34.5344L124.154 33.3445L116.839 14.0395L113.698 15.2294ZM124.154 34.5344L131.469 15.2294L128.328 14.0395L121.013 33.3445L124.154 34.5344ZM131.442 15.2959C131.458 15.2568 131.495 15.193 131.581 15.1068L129.206 12.7321C128.852 13.0859 128.558 13.4988 128.355 13.973L131.442 15.2959ZM131.486 15.1944C131.461 15.2161 131.423 15.2398 131.378 15.2554C131.336 15.2703 131.315 15.2686 131.328 15.2686V11.9103C130.597 11.9103 129.888 12.1408 129.301 12.6445L131.486 15.1944ZM131.328 15.2686H135.838V11.9103H131.328V15.2686ZM135.838 15.2686C135.73 15.2686 135.61 15.2427 135.5 15.1876C135.396 15.1355 135.344 15.079 135.333 15.0672L137.883 12.8817C137.398 12.3159 136.699 11.9103 135.838 11.9103V15.2686ZM135.516 15.2494C135.483 15.2216 135.423 15.1585 135.375 15.0558C135.327 14.952 135.314 14.8581 135.314 14.7995H138.673C138.673 13.9657 138.32 13.2296 137.701 12.6995L135.516 15.2494ZM135.314 14.7995C135.314 14.8315 135.314 14.8562 135.313 14.8743C135.312 14.8926 135.311 14.9016 135.311 14.9028C135.311 14.9042 135.312 14.8933 135.316 14.8723C135.32 14.852 135.329 14.814 135.345 14.7635L138.531 15.8254C138.656 15.4529 138.673 15.0685 138.673 14.7995H135.314ZM135.382 14.6639L125.042 40.1839L128.155 41.445L138.495 15.925L135.382 14.6639ZM125.048 40.1686C124.942 40.4234 124.839 40.5419 124.778 40.5957L126.989 43.1232C127.514 42.6637 127.888 42.0856 128.148 41.4603L125.048 40.1686ZM124.876 40.5161C124.933 40.4731 124.962 40.472 124.923 40.4822C124.881 40.4931 124.786 40.5103 124.618 40.5103V43.8686C125.359 43.8686 126.194 43.7256 126.891 43.2028L124.876 40.5161ZM124.618 40.5103H120.548V43.8686H124.618V40.5103ZM142.175 8.47445L143.363 7.2871V7.2871L142.175 8.47445ZM142.175 2.64445L140.988 1.4571V1.4571L142.175 2.64445ZM149.05 2.64445L147.863 3.8318L147.903 3.87134L147.945 3.90815L149.05 2.64445ZM149.105 8.47445L147.918 7.2871L147.918 7.2871L149.105 8.47445ZM142.395 41.8045L143.583 40.6171L142.395 41.8045ZM142.395 13.9745L143.583 15.1618V15.1618L142.395 13.9745ZM148.83 13.9745L147.555 15.0672L147.64 15.1653L147.738 15.2494L148.83 13.9745ZM148.83 41.8045L147.643 40.6171L147.597 40.6627L147.555 40.7117L148.83 41.8045ZM143.11 7.18029C143.127 7.18029 143.177 7.18409 143.241 7.21051C143.305 7.23708 143.346 7.27086 143.363 7.2871L140.988 9.6618C141.563 10.2369 142.303 10.5386 143.11 10.5386V7.18029ZM143.363 7.2871C143.379 7.30335 143.413 7.34435 143.439 7.40886C143.466 7.47303 143.47 7.52285 143.47 7.53945H140.111C140.111 8.34638 140.413 9.08665 140.988 9.6618L143.363 7.2871ZM143.47 7.53945V3.57945H140.111V7.53945H143.47ZM143.47 3.57945C143.47 3.59605 143.466 3.64587 143.439 3.71004C143.413 3.77455 143.379 3.81555 143.363 3.8318L140.988 1.4571C140.413 2.03225 140.111 2.77252 140.111 3.57945H143.47ZM143.363 3.8318C143.346 3.84805 143.305 3.88183 143.241 3.90839C143.177 3.93482 143.127 3.93862 143.11 3.93862V0.580286C142.303 0.580286 141.563 0.881953 140.988 1.4571L143.363 3.8318ZM143.11 3.93862H148.115V0.580286H143.11V3.93862ZM148.115 3.93862C148.099 3.93862 148.049 3.93482 147.985 3.90839C147.92 3.88183 147.879 3.84805 147.863 3.8318L150.238 1.4571C149.663 0.881952 148.922 0.580286 148.115 0.580286V3.93862ZM147.945 3.90815C147.94 3.90408 147.898 3.86519 147.861 3.78569C147.822 3.70359 147.811 3.62704 147.811 3.57945H151.17C151.17 2.69502 150.788 1.93349 150.156 1.38075L147.945 3.90815ZM147.811 3.57945V7.53945H151.17V3.57945H147.811ZM147.811 7.53945C147.811 7.52285 147.815 7.47303 147.841 7.40886C147.868 7.34435 147.902 7.30335 147.918 7.2871L150.293 9.6618C150.868 9.08665 151.17 8.34638 151.17 7.53945H147.811ZM147.918 7.2871C147.95 7.25504 147.999 7.22059 148.057 7.19821C148.111 7.17717 148.138 7.18029 148.115 7.18029V10.5386C148.91 10.5386 149.685 10.2698 150.293 9.6618L147.918 7.2871ZM148.115 7.18029H143.11V10.5386H148.115V7.18029ZM143.33 40.5103C143.347 40.5103 143.397 40.5141 143.461 40.5405C143.525 40.5671 143.566 40.6009 143.583 40.6171L141.208 42.9918C141.783 43.567 142.523 43.8686 143.33 43.8686V40.5103ZM143.583 40.6171C143.599 40.6334 143.633 40.6744 143.659 40.7389C143.686 40.803 143.69 40.8529 143.69 40.8695H140.331C140.331 41.6764 140.633 42.4167 141.208 42.9918L143.583 40.6171ZM143.69 40.8695V14.9095H140.331V40.8695H143.69ZM143.69 14.9095C143.69 14.9261 143.686 14.9759 143.659 15.04C143.633 15.1046 143.599 15.1456 143.583 15.1618L141.208 12.7871C140.633 13.3622 140.331 14.1025 140.331 14.9095H143.69ZM143.583 15.1618C143.566 15.178 143.525 15.2118 143.461 15.2384C143.397 15.2648 143.347 15.2686 143.33 15.2686V11.9103C142.523 11.9103 141.783 12.212 141.208 12.7871L143.583 15.1618ZM143.33 15.2686H147.895V11.9103H143.33V15.2686ZM147.895 15.2686C147.92 15.2686 147.875 15.2724 147.792 15.2384C147.702 15.2013 147.617 15.1396 147.555 15.0672L150.105 12.8817C149.504 12.1804 148.685 11.9103 147.895 11.9103V15.2686ZM147.738 15.2494C147.665 15.1873 147.604 15.1027 147.566 15.0125C147.532 14.9299 147.536 14.8849 147.536 14.9095H150.895C150.895 14.12 150.624 13.3006 149.923 12.6995L147.738 15.2494ZM147.536 14.9095V40.8695H150.895V14.9095H147.536ZM147.536 40.8695C147.536 40.8529 147.54 40.803 147.566 40.7389C147.593 40.6744 147.627 40.6334 147.643 40.6171L150.018 42.9918C150.593 42.4167 150.895 41.6764 150.895 40.8695H147.536ZM147.555 40.7117C147.617 40.6393 147.702 40.5776 147.792 40.5405C147.875 40.5065 147.92 40.5103 147.895 40.5103V43.8686C148.685 43.8686 149.504 43.5985 150.105 42.8972L147.555 40.7117ZM147.895 40.5103H143.33V43.8686H147.895V40.5103ZM159.097 39.2195L157.91 40.4068L157.919 40.4159L157.928 40.4249L159.097 39.2195ZM155.302 29.2095L156.981 29.1521L156.98 29.1423L155.302 29.2095ZM155.247 27.8345L153.57 27.7673L153.567 27.8345L153.57 27.9016L155.247 27.8345ZM155.302 26.4595L153.625 26.3859L153.624 26.3923L155.302 26.4595ZM159.152 16.6145L157.974 15.418L157.965 15.4271L159.152 16.6145ZM178.842 16.9995L177.587 18.1151L177.596 18.1247L178.842 16.9995ZM182.032 29.6495L183.22 30.8368V30.8368L182.032 29.6495ZM162.782 30.0345V28.3553H161.103V30.0345H162.782ZM162.782 30.4745H161.103V30.505L161.104 30.5355L162.782 30.4745ZM164.432 35.5895L163.081 36.5855L163.095 36.6056L163.111 36.6253L164.432 35.5895ZM174.002 35.0945L172.703 34.0311L172.691 34.0452L172.68 34.0596L174.002 35.0945ZM174.772 34.3245L174.021 32.8226L173.964 32.8514L173.908 32.8846L174.772 34.3245ZM181.262 34.4895L180.075 35.6768L180.173 35.7751L180.286 35.8558L181.262 34.4895ZM180.052 38.3395L178.791 37.231L178.789 37.2337L180.052 38.3395ZM175.597 41.4195L176.29 42.9491L175.597 41.4195ZM174.937 25.4145V27.0936H176.616V25.4145H174.937ZM173.287 20.0245L171.98 21.0778L171.988 21.0887L171.997 21.0994L173.287 20.0245ZM164.377 20.0245L163.07 18.9711V18.9711L164.377 20.0245ZM162.782 25.4145H161.103V27.0936H162.782V25.4145ZM168.832 41.0603C165.103 41.0603 162.31 39.9959 160.266 38.014L157.928 40.4249C160.725 43.1364 164.422 44.4186 168.832 44.4186V41.0603ZM160.285 38.0321C158.278 36.0254 157.117 33.1377 156.981 29.1521L153.624 29.2668C153.781 33.8612 155.15 37.6468 157.91 40.4068L160.285 38.0321ZM156.98 29.1423L156.925 27.7673L153.57 27.9016L153.624 29.2766L156.98 29.1423ZM156.925 27.9016L156.98 26.5266L153.624 26.3923L153.57 27.7673L156.925 27.9016ZM156.98 26.533C157.149 22.6667 158.32 19.821 160.34 17.8018L157.965 15.4271C155.218 18.1746 153.822 21.8922 153.625 26.3859L156.98 26.533ZM160.331 17.8108C162.379 15.7939 165.151 14.7186 168.832 14.7186V11.3603C164.447 11.3603 160.766 12.6683 157.974 15.4181L160.331 17.8108ZM168.832 14.7186C172.796 14.7186 175.63 15.9125 177.587 18.115L180.097 15.8839C177.362 12.8064 173.522 11.3603 168.832 11.3603V14.7186ZM177.596 18.1247C179.639 20.3874 180.738 23.4723 180.738 27.5595H184.096C184.096 22.8466 182.813 18.8915 180.089 15.8742L177.596 18.1247ZM180.738 27.5595V28.7145H184.096V27.5595H180.738ZM180.738 28.7145C180.738 28.6979 180.742 28.648 180.768 28.5839C180.795 28.5194 180.829 28.4784 180.845 28.4621L183.22 30.8368C183.795 30.2617 184.096 29.5214 184.096 28.7145H180.738ZM180.845 28.4621C180.877 28.43 180.926 28.3956 180.984 28.3732C181.038 28.3522 181.064 28.3553 181.042 28.3553V31.7136C181.837 31.7136 182.612 31.4448 183.22 30.8368L180.845 28.4621ZM181.042 28.3553H162.782V31.7136H181.042V28.3553ZM161.103 30.0345V30.4745H164.461V30.0345H161.103ZM161.104 30.5355C161.188 32.8321 161.822 34.8775 163.081 36.5855L165.784 34.5934C164.989 33.5147 164.524 32.1502 164.46 30.4134L161.104 30.5355ZM163.111 36.6253C164.515 38.417 166.466 39.3036 168.777 39.3036V35.9453C167.422 35.9453 166.476 35.4752 165.754 34.5536L163.111 36.6253ZM168.777 39.3036C171.451 39.3036 173.683 38.2274 175.325 36.1293L172.68 34.0596C171.682 35.3348 170.43 35.9453 168.777 35.9453V39.3036ZM175.302 36.1578C175.445 35.9824 175.554 35.8628 175.63 35.7868C175.667 35.7495 175.689 35.7305 175.696 35.7244C175.705 35.7166 175.685 35.7353 175.636 35.7643L173.908 32.8846C173.447 33.1612 173.029 33.6325 172.703 34.0311L175.302 36.1578ZM175.523 35.8263C175.454 35.8611 175.423 35.8613 175.463 35.8543C175.5 35.8477 175.578 35.8386 175.707 35.8386V32.4803C175.191 32.4803 174.578 32.5443 174.021 32.8226L175.523 35.8263ZM175.707 35.8386H180.437V32.4803H175.707V35.8386ZM180.437 35.8386C180.413 35.8386 180.35 35.8339 180.267 35.801C180.183 35.7673 180.118 35.7193 180.075 35.6768L182.45 33.3021C181.894 32.7466 181.183 32.4803 180.437 32.4803V35.8386ZM180.286 35.8558C180.24 35.8229 180.149 35.7431 180.073 35.6018C179.994 35.4561 179.968 35.3118 179.968 35.2045H183.326C183.326 34.3227 182.897 33.5938 182.238 33.1231L180.286 35.8558ZM179.968 35.2045C179.968 35.4519 179.784 36.101 178.791 37.231L181.314 39.4479C182.447 38.1579 183.326 36.717 183.326 35.2045H179.968ZM178.789 37.2337C177.967 38.173 176.705 39.0744 174.905 39.8898L176.29 42.9491C178.376 42.0045 180.085 40.8525 181.316 39.4452L178.789 37.2337ZM174.905 39.8898C173.219 40.6533 171.208 41.0603 168.832 41.0603V44.4186C171.59 44.4186 174.089 43.9456 176.29 42.9491L174.905 39.8898ZM176.616 25.4145V25.2495H173.258V25.4145H176.616ZM176.616 25.2495C176.616 22.7977 175.988 20.6428 174.577 18.9495L171.997 21.0994C172.786 22.0461 173.258 23.3745 173.258 25.2495H176.616ZM174.595 18.9711C173.17 17.2026 171.175 16.3653 168.832 16.3653V19.7236C170.303 19.7236 171.278 20.2063 171.98 21.0778L174.595 18.9711ZM168.832 16.3653C166.489 16.3653 164.494 17.2026 163.07 18.9711L165.685 21.0778C166.387 20.2063 167.362 19.7236 168.832 19.7236V16.3653ZM163.07 18.9711C161.706 20.6638 161.103 22.8106 161.103 25.2495H164.461C164.461 23.3617 164.922 22.0251 165.685 21.0778L163.07 18.9711ZM161.103 25.2495V25.4145H164.461V25.2495H161.103ZM162.782 27.0936H174.937V23.7353H162.782V27.0936ZM189.3 41.8045L188.113 42.9918L189.3 41.8045ZM189.245 4.07445L188.058 2.8871L188.013 2.9327L187.971 2.98166L189.245 4.07445ZM214.985 6.82445L213.916 8.11906L213.925 8.12654L214.985 6.82445ZM216.855 22.4995L215.493 21.5183L215.489 21.5235L216.855 22.4995ZM211.465 26.4045L210.912 24.8192L209.004 25.4853L210.008 27.2388L211.465 26.4045ZM219.495 40.4295L220.997 39.6785L220.976 39.6362L220.953 39.5951L219.495 40.4295ZM219.275 41.8595L218.183 40.5845L218.134 40.6265L218.088 40.6721L219.275 41.8595ZM212.125 41.8045L211.02 43.0682L211.056 43.1001L211.095 43.1299L212.125 41.8045ZM211.3 40.7045L212.779 39.9084L212.775 39.9017L211.3 40.7045ZM204.205 27.6695L205.68 26.8667L205.203 25.9903H204.205V27.6695ZM196.56 27.6695V25.9903H194.881V27.6695H196.56ZM196.175 41.8045L194.988 40.6171L194.943 40.6627L194.901 40.7117L196.175 41.8045ZM209.265 19.9695L208.163 18.7032L208.152 18.7122L208.142 18.7213L209.265 19.9695ZM209.265 11.3344L208.12 12.562L208.13 12.5714L208.14 12.5806L209.265 11.3344ZM196.56 9.79445V8.11528H194.881V9.79445H196.56ZM196.56 21.4545H194.881V23.1336H196.56V21.4545ZM190.235 40.5103C190.252 40.5103 190.302 40.5141 190.366 40.5405C190.431 40.5671 190.472 40.6009 190.488 40.6171L188.113 42.9918C188.688 43.567 189.429 43.8686 190.235 43.8686V40.5103ZM190.488 40.6171C190.504 40.6334 190.538 40.6744 190.564 40.7389C190.591 40.803 190.595 40.8529 190.595 40.8695H187.236C187.236 41.6764 187.538 42.4167 188.113 42.9918L190.488 40.6171ZM190.595 40.8695V5.06445H187.236V40.8695H190.595ZM190.595 5.06445C190.595 5.01508 190.601 5.01439 190.591 5.04545C190.586 5.06086 190.577 5.08113 190.565 5.10393C190.552 5.12684 190.537 5.14832 190.52 5.16724L187.971 2.98166C187.441 3.59908 187.236 4.34142 187.236 5.06445H190.595ZM190.433 5.2618C190.401 5.29386 190.352 5.32831 190.294 5.35069C190.24 5.37173 190.213 5.36862 190.235 5.36862V2.01028C189.441 2.01028 188.666 2.27915 188.058 2.8871L190.433 5.2618ZM190.235 5.36862H204.48V2.01028H190.235V5.36862ZM204.48 5.36862C208.705 5.36862 211.78 6.35482 213.916 8.11903L216.055 5.52988C213.131 3.11408 209.203 2.01028 204.48 2.01028V5.36862ZM213.925 8.12654C216.034 9.84369 217.156 12.2973 217.156 15.7345H220.515C220.515 11.4716 219.07 7.98521 216.046 5.52237L213.925 8.12654ZM217.156 15.7345C217.156 18.1259 216.571 20.0206 215.493 21.5183L218.218 23.4806C219.78 21.3116 220.515 18.6964 220.515 15.7345H217.156ZM215.489 21.5235C214.429 23.0077 212.932 24.1139 210.912 24.8192L212.019 27.9897C214.619 27.0817 216.715 25.5846 218.222 23.4754L215.489 21.5235ZM210.008 27.2388L218.038 41.2638L220.953 39.5951L212.923 25.5701L210.008 27.2388ZM217.994 41.1804C218.008 41.2083 218.005 41.2101 217.999 41.1875C217.993 41.1641 217.981 41.1112 217.981 41.0345H221.34C221.34 40.517 221.186 40.0557 220.997 39.6785L217.994 41.1804ZM217.981 41.0345C217.981 40.9758 217.994 40.8819 218.043 40.7781C218.091 40.6754 218.15 40.6123 218.183 40.5845L220.368 43.1344C220.987 42.6043 221.34 41.8682 221.34 41.0345H217.981ZM218.088 40.6721C218.112 40.6483 218.167 40.6018 218.257 40.5636C218.348 40.5245 218.436 40.5103 218.505 40.5103V43.8686C219.273 43.8686 219.949 43.5605 220.463 43.0468L218.088 40.6721ZM218.505 40.5103H213.5V43.8686H218.505V40.5103ZM213.5 40.5103C213.14 40.5103 213.093 40.4299 213.156 40.479L211.095 43.1299C211.818 43.6924 212.688 43.8686 213.5 43.8686V40.5103ZM213.231 40.5408C213.135 40.4569 212.975 40.2719 212.779 39.9084L209.822 41.5005C210.14 42.0903 210.529 42.6386 211.02 43.0682L213.231 40.5408ZM212.775 39.9017L205.68 26.8667L202.731 28.4722L209.826 41.5072L212.775 39.9017ZM204.205 25.9903H196.56V29.3486H204.205V25.9903ZM194.881 27.6695V40.8695H198.24V27.6695H194.881ZM194.881 40.8695C194.881 40.8529 194.885 40.803 194.912 40.7389C194.938 40.6744 194.972 40.6334 194.988 40.6171L197.363 42.9918C197.938 42.4167 198.24 41.6764 198.24 40.8695H194.881ZM194.901 40.7117C194.963 40.6393 195.047 40.5776 195.137 40.5405C195.22 40.5065 195.265 40.5103 195.24 40.5103V43.8686C196.03 43.8686 196.849 43.5985 197.45 42.8972L194.901 40.7117ZM195.24 40.5103H190.235V43.8686H195.24V40.5103ZM204.315 23.1336C206.733 23.1336 208.86 22.5935 210.389 21.2176L208.142 18.7213C207.471 19.3254 206.298 19.7753 204.315 19.7753V23.1336ZM210.368 21.2357C211.957 19.8521 212.65 17.9085 212.65 15.6795H209.291C209.291 17.1904 208.847 18.1068 208.163 18.7032L210.368 21.2357ZM212.65 15.6795C212.65 13.448 211.956 11.5023 210.391 10.0883L208.14 12.5806C208.848 13.22 209.291 14.1709 209.291 15.6795H212.65ZM210.411 10.1069C208.883 8.68022 206.747 8.11528 204.315 8.11528V11.4736C206.284 11.4736 207.448 11.9353 208.12 12.562L210.411 10.1069ZM204.315 8.11528H196.56V11.4736H204.315V8.11528ZM194.881 9.79445V21.4545H198.24V9.79445H194.881ZM196.56 23.1336H204.315V19.7753H196.56V23.1336ZM227.635 39.4395L226.477 40.655L226.487 40.6645L227.635 39.4395ZM223.84 30.3095L222.161 30.3476L222.162 30.3685L222.163 30.3893L223.84 30.3095ZM223.785 27.8895L222.106 27.8513L222.105 27.8895L222.106 27.9276L223.785 27.8895ZM223.84 25.4695L222.163 25.3888L222.162 25.41L222.161 25.4313L223.84 25.4695ZM227.69 16.3945L228.839 17.6189L227.69 16.3945ZM247.49 16.3945L246.341 17.6189L247.49 16.3945ZM251.34 25.4695L249.663 25.5501L249.664 25.5795L249.667 25.6089L251.34 25.4695ZM251.34 30.3095L249.667 30.17L249.664 30.1998L249.663 30.2296L251.34 30.3095ZM247.545 39.4395L248.694 40.6645L248.704 40.6549L247.545 39.4395ZM242.1 35.4795L243.361 36.5879L243.37 36.5786L243.378 36.5691L242.1 35.4795ZM243.86 30.0345L242.189 29.8674L242.185 29.9121L242.183 29.957L243.86 30.0345ZM243.86 25.7445L242.183 25.8219L242.185 25.8668L242.189 25.9115L243.86 25.7445ZM242.1 20.3545L240.822 21.4441L240.831 21.4536L240.839 21.4629L242.1 20.3545ZM233.08 20.3545L234.341 21.4629L234.35 21.4536L234.358 21.4441L233.08 20.3545ZM231.32 25.7445L229.643 25.667L229.642 25.6842L229.641 25.7014L231.32 25.7445ZM231.265 27.8895L229.586 27.8464L229.585 27.8895L229.586 27.9325L231.265 27.8895ZM231.32 30.0345L229.641 30.0775L229.642 30.0947L229.643 30.1119L231.32 30.0345ZM233.08 35.4795L231.802 36.5691L231.811 36.5786L231.819 36.5879L233.08 35.4795ZM237.59 41.0603C233.581 41.0603 230.727 40.0363 228.784 38.2144L226.487 40.6645C229.237 43.2426 233.019 44.4186 237.59 44.4186V41.0603ZM228.794 38.224C226.817 36.3401 225.684 33.7353 225.517 30.2296L222.163 30.3893C222.363 34.5837 223.76 38.0655 226.477 40.6549L228.794 38.224ZM225.519 30.2713L225.464 27.8513L222.106 27.9276L222.161 30.3476L225.519 30.2713ZM225.464 27.9276L225.519 25.5076L222.161 25.4313L222.106 27.8513L225.464 27.9276ZM225.517 25.5501C225.683 22.0935 226.827 19.5075 228.839 17.6189L226.541 15.17C223.787 17.7548 222.363 21.2187 222.163 25.3888L225.517 25.5501ZM228.839 17.6189C230.829 15.7516 233.672 14.7186 237.59 14.7186V11.3603C233.075 11.3603 229.318 12.5639 226.541 15.17L228.839 17.6189ZM237.59 14.7186C241.508 14.7186 244.351 15.7516 246.341 17.6189L248.639 15.17C245.862 12.5639 242.105 11.3603 237.59 11.3603V14.7186ZM246.341 17.6189C248.353 19.5075 249.497 22.0935 249.663 25.5501L253.017 25.3888C252.817 21.2187 251.393 17.7548 248.639 15.17L246.341 17.6189ZM249.667 25.6089C249.697 25.97 249.716 26.7109 249.716 27.8895H253.074C253.074 26.7214 253.057 25.8489 253.013 25.33L249.667 25.6089ZM249.716 27.8895C249.716 29.068 249.697 29.8089 249.667 30.17L253.013 30.4489C253.057 29.93 253.074 29.0575 253.074 27.8895H249.716ZM249.663 30.2296C249.496 33.7353 248.363 36.3401 246.387 38.224L248.704 40.6549C251.42 38.0655 252.818 34.5837 253.017 30.3893L249.663 30.2296ZM246.397 38.2144C244.453 40.0363 241.599 41.0603 237.59 41.0603V44.4186C242.161 44.4186 245.944 43.2426 248.694 40.6645L246.397 38.2144ZM237.59 38.9736C239.908 38.9736 241.914 38.2351 243.361 36.5879L240.839 34.371C240.16 35.1438 239.159 35.6153 237.59 35.6153V38.9736ZM243.378 36.5691C244.771 34.9351 245.418 32.7037 245.537 30.1119L242.183 29.957C242.082 32.1319 241.555 33.5305 240.822 34.3898L243.378 36.5691ZM245.531 30.2015C245.577 29.7385 245.594 28.9412 245.594 27.8895H242.236C242.236 28.9644 242.216 29.5971 242.189 29.8674L245.531 30.2015ZM245.594 27.8895C245.594 26.8377 245.577 26.0404 245.531 25.5774L242.189 25.9115C242.216 26.1818 242.236 26.8145 242.236 27.8895H245.594ZM245.537 25.667C245.418 23.0792 244.772 20.8517 243.361 19.246L240.839 21.4629C241.554 22.2772 242.082 23.643 242.183 25.8219L245.537 25.667ZM243.378 19.2648C241.935 17.5736 239.924 16.8053 237.59 16.8053V20.1636C239.143 20.1636 240.138 20.642 240.822 21.4441L243.378 19.2648ZM237.59 16.8053C235.256 16.8053 233.245 17.5736 231.802 19.2648L234.358 21.4441C235.042 20.642 236.037 20.1636 237.59 20.1636V16.8053ZM231.819 19.246C230.408 20.8517 229.762 23.0792 229.643 25.667L232.997 25.8219C233.098 23.643 233.626 22.2772 234.341 21.4629L231.819 19.246ZM229.641 25.7014L229.586 27.8464L232.944 27.9325L232.999 25.7875L229.641 25.7014ZM229.586 27.9325L229.641 30.0775L232.999 29.9914L232.944 27.8464L229.586 27.9325ZM229.643 30.1119C229.762 32.7037 230.409 34.9351 231.802 36.5691L234.358 34.3898C233.625 33.5305 233.098 32.1319 232.997 29.957L229.643 30.1119ZM231.819 36.5879C233.266 38.2351 235.273 38.9736 237.59 38.9736V35.6153C236.021 35.6153 235.021 35.1438 234.341 34.371L231.819 36.5879ZM260.184 39.4395L259.025 40.655L259.035 40.6645L260.184 39.4395ZM256.389 30.3095L254.71 30.3476L254.711 30.3685L254.712 30.3893L256.389 30.3095ZM256.334 27.8895L254.655 27.8513L254.654 27.8895L254.655 27.9276L256.334 27.8895ZM256.389 25.4695L254.712 25.3888L254.711 25.41L254.71 25.4313L256.389 25.4695ZM260.239 16.3945L261.388 17.6189L260.239 16.3945ZM280.039 16.3945L278.89 17.6189L280.039 16.3945ZM283.889 25.4695L282.212 25.5501L282.213 25.5795L282.216 25.6089L283.889 25.4695ZM283.889 30.3095L282.216 30.17L282.213 30.1998L282.212 30.2296L283.889 30.3095ZM280.094 39.4395L281.242 40.6645L281.252 40.6549L280.094 39.4395ZM274.649 35.4795L275.91 36.5879L275.918 36.5786L275.926 36.5691L274.649 35.4795ZM276.409 30.0345L274.738 29.8674L274.734 29.9121L274.732 29.957L276.409 30.0345ZM276.409 25.7445L274.732 25.8219L274.734 25.8668L274.738 25.9115L276.409 25.7445ZM274.649 20.3545L273.371 21.4441L273.379 21.4536L273.388 21.4629L274.649 20.3545ZM265.629 20.3545L266.89 21.4629L266.898 21.4536L266.906 21.4441L265.629 20.3545ZM263.869 25.7445L262.191 25.667L262.191 25.6842L262.19 25.7014L263.869 25.7445ZM263.814 27.8895L262.135 27.8464L262.134 27.8895L262.135 27.9325L263.814 27.8895ZM263.869 30.0345L262.19 30.0775L262.191 30.0947L262.191 30.1119L263.869 30.0345ZM265.629 35.4795L264.351 36.5691L264.359 36.5786L264.368 36.5879L265.629 35.4795ZM270.139 41.0603C266.13 41.0603 263.276 40.0363 261.332 38.2144L259.035 40.6645C261.785 43.2426 265.568 44.4186 270.139 44.4186V41.0603ZM261.342 38.224C259.366 36.3401 258.233 33.7353 258.066 30.2296L254.712 30.3893C254.911 34.5837 256.309 38.0655 259.025 40.6549L261.342 38.224ZM258.068 30.2713L258.013 27.8513L254.655 27.9276L254.71 30.3476L258.068 30.2713ZM258.013 27.9276L258.068 25.5076L254.71 25.4313L254.655 27.8513L258.013 27.9276ZM258.066 25.5501C258.232 22.0935 259.376 19.5075 261.388 17.6189L259.09 15.17C256.336 17.7548 254.912 21.2187 254.712 25.3888L258.066 25.5501ZM261.388 17.6189C263.378 15.7516 266.221 14.7186 270.139 14.7186V11.3603C265.624 11.3603 261.867 12.5639 259.09 15.17L261.388 17.6189ZM270.139 14.7186C274.057 14.7186 276.9 15.7516 278.89 17.6189L281.188 15.17C278.411 12.5639 274.654 11.3603 270.139 11.3603V14.7186ZM278.89 17.6189C280.902 19.5075 282.045 22.0935 282.212 25.5501L285.566 25.3888C285.366 21.2187 283.942 17.7548 281.188 15.17L278.89 17.6189ZM282.216 25.6089C282.246 25.97 282.265 26.7109 282.265 27.8895H285.623C285.623 26.7214 285.605 25.8489 285.562 25.33L282.216 25.6089ZM282.265 27.8895C282.265 29.068 282.246 29.8089 282.216 30.17L285.562 30.4489C285.605 29.93 285.623 29.0575 285.623 27.8895H282.265ZM282.212 30.2296C282.045 33.7353 280.912 36.3401 278.935 38.224L281.252 40.6549C283.969 38.0655 285.366 34.5837 285.566 30.3893L282.212 30.2296ZM278.945 38.2144C277.002 40.0363 274.148 41.0603 270.139 41.0603V44.4186C274.71 44.4186 278.492 43.2426 281.242 40.6645L278.945 38.2144ZM270.139 38.9736C272.456 38.9736 274.463 38.2351 275.91 36.5879L273.388 34.371C272.708 35.1438 271.708 35.6153 270.139 35.6153V38.9736ZM275.926 36.5691C277.32 34.9351 277.967 32.7037 278.086 30.1119L274.732 29.957C274.631 32.1319 274.104 33.5305 273.371 34.3898L275.926 36.5691ZM278.08 30.2015C278.126 29.7385 278.143 28.9412 278.143 27.8895H274.785C274.785 28.9644 274.765 29.5971 274.738 29.8674L278.08 30.2015ZM278.143 27.8895C278.143 26.8377 278.126 26.0404 278.08 25.5774L274.738 25.9115C274.765 26.1818 274.785 26.8145 274.785 27.8895H278.143ZM278.086 25.667C277.967 23.0792 277.321 20.8517 275.91 19.246L273.388 21.4629C274.103 22.2772 274.631 23.643 274.732 25.8219L278.086 25.667ZM275.926 19.2648C274.484 17.5736 272.473 16.8053 270.139 16.8053V20.1636C271.691 20.1636 272.687 20.642 273.371 21.4441L275.926 19.2648ZM270.139 16.8053C267.805 16.8053 265.794 17.5736 264.351 19.2648L266.906 21.4441C267.591 20.642 268.586 20.1636 270.139 20.1636V16.8053ZM264.368 19.246C262.956 20.8517 262.311 23.0792 262.191 25.667L265.546 25.8219C265.647 23.643 266.175 22.2772 266.89 21.4629L264.368 19.246ZM262.19 25.7014L262.135 27.8464L265.492 27.9325L265.548 25.7875L262.19 25.7014ZM262.135 27.9325L262.19 30.0775L265.548 29.9914L265.492 27.8464L262.135 27.9325ZM262.191 30.1119C262.311 32.7037 262.958 34.9351 264.351 36.5691L266.906 34.3898C266.174 33.5305 265.647 32.1319 265.546 29.957L262.191 30.1119ZM264.368 36.5879C265.815 38.2351 267.821 38.9736 270.139 38.9736V35.6153C268.57 35.6153 267.569 35.1438 266.89 34.371L264.368 36.5879ZM290.423 41.8045L291.61 40.6171L290.423 41.8045ZM290.423 13.9745L291.61 15.1618V15.1618L290.423 13.9745ZM296.583 13.9745L295.395 15.1618V15.1618L296.583 13.9745ZM296.968 16.7795H295.289V21.7396L298.302 17.7995L296.968 16.7795ZM313.468 17.9345L311.962 18.6786L313.325 21.4354L314.908 18.7984L313.468 17.9345ZM317.208 14.4145L318.012 15.8886L318.025 15.8816L318.037 15.8744L317.208 14.4145ZM329.803 16.1195L331.033 14.9769L329.803 16.1195ZM332.278 41.8045L331.09 40.6171L331.045 40.6627L331.003 40.7117L332.278 41.8045ZM325.898 41.8045L327.085 40.6171L327.085 40.6171L325.898 41.8045ZM324.028 20.5195L322.777 21.6404L322.798 21.6631L322.819 21.685L324.028 20.5195ZM316.493 20.5195L315.285 19.3531L315.274 19.3641L315.264 19.3752L316.493 20.5195ZM314.623 41.8045L313.435 40.6171V40.6171L314.623 41.8045ZM306.318 20.5195L305.089 21.6637L305.109 21.6856L305.13 21.7068L306.318 20.5195ZM298.783 20.5195L297.575 19.3531L297.564 19.3641L297.554 19.3752L298.783 20.5195ZM291.358 40.5103C291.374 40.5103 291.424 40.5141 291.488 40.5405C291.553 40.5671 291.594 40.6009 291.61 40.6171L289.235 42.9918C289.811 43.567 290.551 43.8686 291.358 43.8686V40.5103ZM291.61 40.6171C291.626 40.6334 291.66 40.6744 291.687 40.7389C291.713 40.803 291.717 40.8529 291.717 40.8695H288.359C288.359 41.6764 288.66 42.4167 289.235 42.9918L291.61 40.6171ZM291.717 40.8695V14.9095H288.359V40.8695H291.717ZM291.717 14.9095C291.717 14.9261 291.713 14.9759 291.687 15.04C291.66 15.1046 291.626 15.1456 291.61 15.1618L289.235 12.7871C288.66 13.3622 288.359 14.1025 288.359 14.9095H291.717ZM291.61 15.1618C291.594 15.178 291.553 15.2118 291.488 15.2384C291.424 15.2648 291.374 15.2686 291.358 15.2686V11.9103C290.551 11.9103 289.811 12.212 289.235 12.7871L291.61 15.1618ZM291.358 15.2686H295.648V11.9103H291.358V15.2686ZM295.648 15.2686C295.631 15.2686 295.581 15.2648 295.517 15.2384C295.453 15.2118 295.412 15.178 295.395 15.1618L297.77 12.7871C297.195 12.212 296.455 11.9103 295.648 11.9103V15.2686ZM295.395 15.1618C295.379 15.1456 295.345 15.1046 295.319 15.04C295.292 14.9759 295.289 14.926 295.289 14.9095H298.647C298.647 14.1025 298.345 13.3622 297.77 12.7871L295.395 15.1618ZM295.289 14.9095V16.7795H298.647V14.9095H295.289ZM298.302 17.7995C299.86 15.7613 302.004 14.7186 304.943 14.7186V11.3603C301.062 11.3603 297.889 12.8109 295.634 15.7594L298.302 17.7995ZM304.943 14.7186C306.755 14.7186 308.179 15.0811 309.29 15.7194C310.391 16.3513 311.286 17.311 311.962 18.6786L314.973 17.1903C314.036 15.2946 312.704 13.8067 310.963 12.807C309.233 11.8137 307.201 11.3603 304.943 11.3603V14.7186ZM314.908 18.7984C315.622 17.6072 316.641 16.6364 318.012 15.8886L316.404 12.9403C314.548 13.9525 313.073 15.3284 312.028 17.0705L314.908 18.7984ZM318.037 15.8744C319.396 15.1026 320.851 14.7186 322.433 14.7186V11.3603C320.274 11.3603 318.246 11.893 316.378 12.9545L318.037 15.8744ZM322.433 14.7186C325.011 14.7186 327.008 15.5779 328.572 17.262L331.033 14.9769C328.784 12.5544 325.868 11.3603 322.433 11.3603V14.7186ZM328.572 17.262C330.092 18.8992 330.984 21.4147 330.984 25.0845H334.342C334.342 20.9075 333.326 17.4463 331.033 14.9769L328.572 17.262ZM330.984 25.0845V40.8695H334.342V25.0845H330.984ZM330.984 40.8695C330.984 40.8529 330.987 40.803 331.014 40.7389C331.04 40.6744 331.074 40.6334 331.09 40.6171L333.465 42.9918C334.04 42.4167 334.342 41.6764 334.342 40.8695H330.984ZM331.003 40.7117C331.065 40.6393 331.15 40.5776 331.24 40.5405C331.322 40.5065 331.367 40.5103 331.343 40.5103V43.8686C332.132 43.8686 332.952 43.5985 333.553 42.8972L331.003 40.7117ZM331.343 40.5103H326.833V43.8686H331.343V40.5103ZM326.833 40.5103C326.849 40.5103 326.899 40.5141 326.963 40.5405C327.028 40.5671 327.069 40.6009 327.085 40.6171L324.71 42.9918C325.286 43.567 326.026 43.8686 326.833 43.8686V40.5103ZM327.085 40.6171C327.101 40.6333 327.135 40.6743 327.162 40.7389C327.188 40.803 327.192 40.8529 327.192 40.8695H323.834C323.834 41.6764 324.135 42.4167 324.71 42.9918L327.085 40.6171ZM327.192 40.8695V25.5245H323.834V40.8695H327.192ZM327.192 25.5245C327.192 23.0362 326.669 20.8392 325.236 19.3539L322.819 21.685C323.367 22.253 323.834 23.3927 323.834 25.5245H327.192ZM325.278 19.3985C323.963 17.9318 322.2 17.2453 320.178 17.2453V20.6036C321.383 20.6036 322.186 20.9804 322.777 21.6404L325.278 19.3985ZM320.178 17.2453C318.275 17.2453 316.616 17.9744 315.285 19.3531L317.701 21.6858C318.423 20.9378 319.22 20.6036 320.178 20.6036V17.2453ZM315.264 19.3752C313.858 20.8846 313.329 23.057 313.329 25.5245H316.687C316.687 23.4452 317.147 22.2809 317.722 21.6637L315.264 19.3752ZM313.329 25.5245V40.8695H316.687V25.5245H313.329ZM313.329 40.8695C313.329 40.8529 313.332 40.803 313.359 40.7389C313.385 40.6743 313.419 40.6333 313.435 40.6171L315.81 42.9918C316.385 42.4167 316.687 41.6764 316.687 40.8695H313.329ZM313.435 40.6171C313.452 40.6009 313.493 40.5671 313.557 40.5405C313.621 40.5141 313.671 40.5103 313.688 40.5103V43.8686C314.495 43.8686 315.235 43.567 315.81 42.9918L313.435 40.6171ZM313.688 40.5103H309.178V43.8686H313.688V40.5103ZM309.178 40.5103C309.194 40.5103 309.244 40.5141 309.308 40.5405C309.373 40.5671 309.414 40.6009 309.43 40.6171L307.055 42.9918C307.631 43.567 308.371 43.8686 309.178 43.8686V40.5103ZM309.43 40.6171C309.446 40.6334 309.48 40.6744 309.507 40.7389C309.533 40.803 309.537 40.8529 309.537 40.8695H306.179C306.179 41.6764 306.48 42.4167 307.055 42.9918L309.43 40.6171ZM309.537 40.8695V25.5245H306.179V40.8695H309.537ZM309.537 25.5245C309.537 23.023 308.989 20.8165 307.505 19.3321L305.13 21.7068C305.699 22.2757 306.179 23.4059 306.179 25.5245H309.537ZM307.547 19.3752C306.218 17.9484 304.497 17.2453 302.523 17.2453V20.6036C303.628 20.6036 304.437 20.9638 305.089 21.6637L307.547 19.3752ZM302.523 17.2453C300.596 17.2453 298.915 17.9649 297.575 19.3531L299.991 21.6858C300.704 20.9473 301.516 20.6036 302.523 20.6036V17.2453ZM297.554 19.3752C296.148 20.8846 295.619 23.057 295.619 25.5245H298.977C298.977 23.4452 299.437 22.2809 300.012 21.6637L297.554 19.3752ZM295.619 25.5245V40.8695H298.977V25.5245H295.619ZM295.619 40.8695C295.619 40.8529 295.622 40.803 295.649 40.7389C295.675 40.6744 295.709 40.6334 295.725 40.6171L298.1 42.9918C298.675 42.4167 298.977 41.6764 298.977 40.8695H295.619ZM295.725 40.6171C295.742 40.6009 295.783 40.5671 295.847 40.5405C295.911 40.5141 295.961 40.5103 295.978 40.5103V43.8686C296.785 43.8686 297.525 43.567 298.1 42.9918L295.725 40.6171ZM295.978 40.5103H291.358V43.8686H295.978V40.5103Z" fill="white"/>
</g>
<defs>
<filter id="filter0_f" x="0.192231" y="0.0203559" width="334.709" height="44.9578" filterUnits="userSpaceOnUse" color-interpolation-filters="sRGB">
<feFlood flood-opacity="0" result="BackgroundImageFix"/>
<feBlend mode="normal" in="SourceGraphic" in2="BackgroundImageFix" result="shape"/>
<feGaussianBlur stdDeviation="0.279861" result="effect1_foregroundBlur"/>
</filter>
</defs>
</svg>
