<svg width="393" height="104" viewBox="0 0 393 104" fill="none" xmlns="http://www.w3.org/2000/svg">
<g style="mix-blend-mode:hard-light" filter="url(#filter0_f)">
<path d="M31.8161 70.8595L27.9572 74.7183L28.1054 74.8665L28.2646 75.0029L31.8161 70.8595ZM31.8161 33.0745L35.675 36.9333L35.675 36.9333L31.8161 33.0745ZM38.8011 33.7345L33.8692 36.0706L33.9273 36.1933L33.9914 36.313L38.8011 33.7345ZM49.4161 53.5345L44.6064 56.113L49.3914 65.0383L54.2147 56.1337L49.4161 53.5345ZM60.1411 33.7345L64.9397 36.3337L64.9552 36.305L64.9704 36.2762L60.1411 33.7345ZM67.0711 33.0745L63.2122 36.9333L63.2122 36.9334L67.0711 33.0745ZM67.0711 70.8595L70.6227 75.0029L70.7818 74.8665L70.93 74.7183L67.0711 70.8595ZM60.5261 70.8045L64.385 66.9456L64.385 66.9456L60.5261 70.8045ZM60.1411 46.0545H65.5984L55.3079 43.5202L60.1411 46.0545ZM52.4411 60.7395L57.1394 63.5157L57.2099 63.3964L57.2743 63.2737L52.4411 60.7395ZM46.4461 60.7395L41.6129 63.2737L41.6773 63.3964L41.7478 63.5157L46.4461 60.7395ZM38.7461 46.0545L43.5793 43.5202L33.2888 46.0545H38.7461ZM38.3611 70.8045L34.5022 66.9456L34.354 67.0938L34.2176 67.2529L38.3611 70.8045ZM32.8061 65.7322C33.4418 65.7322 34.4519 65.931 35.3677 66.716L28.2646 75.0029C29.6937 76.2279 31.3638 76.6467 32.8061 76.6467V65.7322ZM35.675 67.0006C36.0679 67.3935 36.3965 67.8832 36.6136 68.4415C36.8263 68.9885 36.8884 69.4877 36.8884 69.8695H25.9738C25.9738 71.5439 26.5589 73.32 27.9572 74.7183L35.675 67.0006ZM36.8884 69.8695V34.0645H25.9738V69.8695H36.8884ZM36.8884 34.0645C36.8884 34.4462 36.8263 34.9454 36.6136 35.4924C36.3965 36.0507 36.0679 36.5404 35.675 36.9333L27.9572 29.2156C26.5589 30.6139 25.9738 32.39 25.9738 34.0645H36.8884ZM35.675 36.9333C35.2821 37.3263 34.7924 37.6548 34.2341 37.8719C33.687 38.0847 33.1878 38.1467 32.8061 38.1467V27.2322C31.1317 27.2322 29.3556 27.8172 27.9572 29.2156L35.675 36.9333ZM32.8061 38.1467H37.1511V27.2322H32.8061V38.1467ZM37.1511 38.1467C36.6938 38.1467 35.9685 38.0344 35.2212 37.5611C34.4743 37.0881 34.0637 36.4813 33.8692 36.0706L43.7331 31.3983C43.2085 30.2909 42.358 29.1617 41.061 28.3403C39.7637 27.5186 38.3784 27.2322 37.1511 27.2322V38.1467ZM33.9914 36.313L44.6064 56.113L54.2258 50.9559L43.6108 31.1559L33.9914 36.313ZM54.2147 56.1337L64.9397 36.3337L55.3426 31.1352L44.6176 50.9352L54.2147 56.1337ZM64.9704 36.2762C64.802 36.5961 64.4332 37.1275 63.7485 37.5611C63.043 38.008 62.3238 38.1467 61.7911 38.1467V27.2322C60.5251 27.2322 59.1642 27.5451 57.9087 28.3403C56.6741 29.1222 55.8469 30.1762 55.3119 31.1927L64.9704 36.2762ZM61.7911 38.1467H66.0811V27.2322H61.7911V38.1467ZM66.0811 38.1467C65.6994 38.1467 65.2002 38.0847 64.6531 37.8719C64.0949 37.6548 63.6052 37.3263 63.2122 36.9333L70.93 29.2156C69.5317 27.8172 67.7556 27.2322 66.0811 27.2322V38.1467ZM63.2122 36.9334C62.8193 36.5404 62.4908 36.0507 62.2736 35.4924C62.0609 34.9454 61.9988 34.4462 61.9988 34.0645H72.9134C72.9134 32.39 72.3284 30.6139 70.93 29.2155L63.2122 36.9334ZM61.9988 34.0645V69.8695H72.9134V34.0645H61.9988ZM61.9988 69.8695C61.9988 69.4877 62.0609 68.9885 62.2736 68.4415C62.4908 67.8832 62.8193 67.3935 63.2122 67.0006L70.93 74.7183C72.3284 73.32 72.9134 71.5439 72.9134 69.8695H61.9988ZM63.5195 66.716C64.4353 65.931 65.4454 65.7322 66.0811 65.7322V76.6467C67.5235 76.6467 69.1936 76.2279 70.6227 75.0029L63.5195 66.716ZM66.0811 65.7322H61.4611V76.6467H66.0811V65.7322ZM61.4611 65.7322C61.9276 65.7322 62.471 65.8167 63.0302 66.047C63.5905 66.2777 64.0435 66.604 64.385 66.9456L56.6672 74.6633C57.959 75.9551 59.6636 76.6467 61.4611 76.6467V65.7322ZM64.385 66.9456C64.7266 67.2871 65.0529 67.74 65.2836 68.3003C65.5139 68.8595 65.5984 69.403 65.5984 69.8695H54.6838C54.6838 71.667 55.3755 73.3716 56.6672 74.6633L64.385 66.9456ZM65.5984 69.8695V46.0545H54.6838V69.8695H65.5984ZM55.3079 43.5202L47.6079 58.2052L57.2743 63.2737L64.9743 48.5887L55.3079 43.5202ZM47.7428 57.9632C47.8249 57.8242 48.0918 57.4273 48.6514 57.0652C49.2569 56.6734 49.9454 56.4922 50.5711 56.4922V67.4067C53.7152 67.4067 55.9301 65.5624 57.1394 63.5157L47.7428 57.9632ZM50.5711 56.4922H48.3161V67.4067H50.5711V56.4922ZM48.3161 56.4922C48.9419 56.4922 49.6303 56.6734 50.2358 57.0652C50.7954 57.4273 51.0623 57.8242 51.1444 57.9632L41.7478 63.5157C42.9572 65.5624 45.172 67.4067 48.3161 67.4067V56.4922ZM51.2793 58.2052L43.5793 43.5202L33.9129 48.5887L41.6129 63.2737L51.2793 58.2052ZM33.2888 46.0545V69.8695H44.2034V46.0545H33.2888ZM33.2888 69.8695C33.2888 69.403 33.3734 68.8595 33.6036 68.3003C33.8343 67.7401 34.1607 67.2871 34.5022 66.9456L42.22 74.6633C43.5117 73.3716 44.2034 71.667 44.2034 69.8695H33.2888ZM34.2176 67.2529C34.6668 66.7289 35.241 66.3119 35.8845 66.047C36.5038 65.792 37.0522 65.7322 37.4261 65.7322V76.6467C39.0842 76.6467 41.0462 76.0575 42.5046 74.356L34.2176 67.2529ZM37.4261 65.7322H32.8061V76.6467H37.4261V65.7322ZM78.0462 68.4395L74.281 72.3898L74.2973 72.4053L74.3137 72.4207L78.0462 68.4395ZM74.2512 59.3095L68.7953 59.4334L68.7969 59.5013L68.8001 59.569L74.2512 59.3095ZM74.1962 56.8895L68.7403 56.7655L68.7375 56.8895L68.7403 57.0135L74.1962 56.8895ZM74.2512 54.4695L68.8002 54.2074L68.7969 54.2764L68.7953 54.3455L74.2512 54.4695ZM78.1012 45.3945L81.8357 49.3738L78.1012 45.3945ZM97.9012 45.3945L94.1667 49.3738V49.3738L97.9012 45.3945ZM101.751 54.4695L96.3002 54.7315L96.3048 54.8272L96.3128 54.9227L101.751 54.4695ZM101.751 59.3095L96.3128 58.8562L96.3047 58.9529L96.3001 59.0499L101.751 59.3095ZM97.9562 68.4395L101.689 72.4207L101.705 72.4053L101.721 72.3898L97.9562 68.4395ZM92.5112 64.4795L96.6105 68.0819L96.6371 68.0516L96.6633 68.0209L92.5112 64.4795ZM94.2712 59.0345L88.841 58.4914L88.8264 58.6369L88.8197 58.7828L94.2712 59.0345ZM94.2712 54.7445L88.8197 54.9961L88.8264 55.142L88.841 55.2875L94.2712 54.7445ZM92.5112 49.3545L88.3591 52.8959L88.3853 52.9266L88.4119 52.9569L92.5112 49.3545ZM83.4912 49.3545L87.5905 52.9569L87.6171 52.9266L87.6433 52.8959L83.4912 49.3545ZM81.7312 54.7445L76.2797 54.4928L76.2771 54.5487L76.2757 54.6046L81.7312 54.7445ZM81.6762 56.8895L76.2207 56.7496L76.2171 56.8895L76.2207 57.0293L81.6762 56.8895ZM81.7312 59.0345L76.2757 59.1743L76.2771 59.2302L76.2797 59.2861L81.7312 59.0345ZM83.4912 64.4795L79.3391 68.0209L79.3653 68.0516L79.3919 68.0819L83.4912 64.4795ZM88.0012 66.2822C84.6244 66.2822 82.8146 65.4294 81.7787 64.4582L74.3137 72.4207C77.9711 75.8496 82.798 77.1967 88.0012 77.1967V66.2822ZM81.8114 64.4891C80.6677 63.399 79.8324 61.7808 79.7023 59.0499L68.8001 59.569C69.0367 64.5381 70.7313 69.0065 74.281 72.3898L81.8114 64.4891ZM79.7071 59.1855L79.6521 56.7655L68.7403 57.0135L68.7953 59.4334L79.7071 59.1855ZM79.6521 57.0135L79.7071 54.5934L68.7953 54.3455L68.7403 56.7655L79.6521 57.0135ZM79.7022 54.7315C79.8298 52.0778 80.6578 50.4792 81.8357 49.3738L74.3667 41.4151C70.7779 44.783 69.0393 49.2345 68.8002 54.2074L79.7022 54.7315ZM81.8357 49.3738C82.9397 48.3378 84.7554 47.4967 88.0012 47.4967V36.5822C82.8137 36.5822 78.0293 37.9778 74.3667 41.4151L81.8357 49.3738ZM88.0012 47.4967C91.247 47.4967 93.0627 48.3378 94.1667 49.3738L101.636 41.4151C97.973 37.9778 93.1887 36.5822 88.0012 36.5822V47.4967ZM94.1667 49.3738C95.3446 50.4792 96.1726 52.0778 96.3002 54.7315L107.202 54.2074C106.963 49.2345 105.224 44.783 101.636 41.4151L94.1667 49.3738ZM96.3128 54.9227C96.328 55.1061 96.3489 55.699 96.3489 56.8895H107.263C107.263 55.7332 107.248 54.7128 107.19 54.0162L96.3128 54.9227ZM96.3489 56.8895C96.3489 58.0799 96.328 58.6728 96.3128 58.8562L107.19 59.7627C107.248 59.0661 107.263 58.0457 107.263 56.8895H96.3489ZM96.3001 59.0499C96.17 61.7808 95.3347 63.399 94.191 64.4891L101.721 72.3898C105.271 69.0065 106.966 64.5381 107.202 59.569L96.3001 59.0499ZM94.2237 64.4582C93.1878 65.4294 91.378 66.2822 88.0012 66.2822V77.1967C93.2044 77.1967 98.0313 75.8496 101.689 72.4207L94.2237 64.4582ZM88.0012 71.7517C91.1606 71.7517 94.2985 70.7128 96.6105 68.0819L88.4119 60.877C88.4207 60.867 88.4441 60.8433 88.4803 60.8177C88.5164 60.7922 88.5434 60.7802 88.5488 60.778C88.5599 60.7735 88.4106 60.8372 88.0012 60.8372V71.7517ZM96.6633 68.0209C98.8005 65.5153 99.5814 62.3469 99.7227 59.2861L88.8197 58.7828C88.7818 59.6051 88.6681 60.1577 88.5559 60.5047C88.5013 60.6738 88.4504 60.7837 88.4153 60.8489C88.3809 60.9126 88.3598 60.9372 88.3591 60.938L96.6633 68.0209ZM99.7014 59.5775C99.7694 58.8975 99.7835 57.9151 99.7835 56.8895H88.8689C88.8689 57.3945 88.8645 57.7889 88.8569 58.0833C88.8487 58.4062 88.8387 58.5142 88.841 58.4914L99.7014 59.5775ZM99.7835 56.8895C99.7835 55.8638 99.7694 54.8814 99.7014 54.2014L88.841 55.2875C88.8387 55.2647 88.8487 55.3727 88.8569 55.6956C88.8645 55.99 88.8689 56.3844 88.8689 56.8895H99.7835ZM99.7227 54.4928C99.582 51.4449 98.8041 48.2481 96.6105 45.752L88.4119 52.9569C88.345 52.8808 88.7404 53.2773 88.8197 54.9961L99.7227 54.4928ZM96.6633 45.813C94.3678 43.1217 91.2145 42.0272 88.0012 42.0272V52.9417C88.392 52.9417 88.5223 53.004 88.496 52.9931C88.4838 52.988 88.4537 52.9734 88.4176 52.9471C88.3817 52.9209 88.3621 52.8994 88.3591 52.8959L96.6633 45.813ZM88.0012 42.0272C84.7879 42.0272 81.6346 43.1217 79.3391 45.813L87.6433 52.8959C87.6403 52.8994 87.6207 52.9209 87.5848 52.9471C87.5487 52.9734 87.5186 52.988 87.5064 52.9931C87.4801 53.004 87.6104 52.9417 88.0012 52.9417V42.0272ZM79.3919 45.752C77.1983 48.2481 76.4204 51.4449 76.2797 54.4928L87.1827 54.9961C87.262 53.2773 87.6574 52.8808 87.5905 52.9569L79.3919 45.752ZM76.2757 54.6046L76.2207 56.7496L87.1317 57.0293L87.1867 54.8843L76.2757 54.6046ZM76.2207 57.0293L76.2757 59.1743L87.1867 58.8946L87.1317 56.7496L76.2207 57.0293ZM76.2797 59.2861C76.421 62.3469 77.2019 65.5153 79.3391 68.0209L87.6433 60.938C87.6426 60.9372 87.6215 60.9126 87.5871 60.8489C87.552 60.7837 87.5011 60.6738 87.4465 60.5047C87.3343 60.1577 87.2206 59.6051 87.1827 58.7828L76.2797 59.2861ZM79.3919 68.0819C81.7039 70.7128 84.8418 71.7517 88.0012 71.7517V60.8372C87.5918 60.8372 87.4425 60.7735 87.4536 60.778C87.459 60.7802 87.486 60.7922 87.5221 60.8177C87.5582 60.8433 87.5817 60.867 87.5905 60.877L79.3919 68.0819ZM110.595 68.4395L106.83 72.3898L106.846 72.4053L106.863 72.4207L110.595 68.4395ZM106.8 59.3095L101.344 59.4334L101.346 59.5013L101.349 59.569L106.8 59.3095ZM106.745 56.8895L101.289 56.7655L101.286 56.8895L101.289 57.0135L106.745 56.8895ZM106.8 54.4695L101.349 54.2074L101.346 54.2764L101.344 54.3455L106.8 54.4695ZM110.65 45.3945L114.385 49.3738L110.65 45.3945ZM130.45 45.3945L126.716 49.3738V49.3738L130.45 45.3945ZM134.3 54.4695L128.849 54.7315L128.854 54.8272L128.862 54.9227L134.3 54.4695ZM134.3 59.3095L128.862 58.8562L128.854 58.9529L128.849 59.0499L134.3 59.3095ZM130.505 68.4395L134.237 72.4207L134.254 72.4053L134.27 72.3898L130.505 68.4395ZM125.06 64.4795L129.159 68.0819L129.186 68.0516L129.212 68.0209L125.06 64.4795ZM126.82 59.0345L121.39 58.4914L121.375 58.6369L121.369 58.7828L126.82 59.0345ZM126.82 54.7445L121.369 54.9961L121.375 55.142L121.39 55.2875L126.82 54.7445ZM125.06 49.3545L120.908 52.8959L120.934 52.9266L120.961 52.9569L125.06 49.3545ZM116.04 49.3545L120.139 52.9569L120.166 52.9266L120.192 52.8959L116.04 49.3545ZM114.28 54.7445L108.829 54.4928L108.826 54.5487L108.825 54.6046L114.28 54.7445ZM114.225 56.8895L108.77 56.7496L108.766 56.8895L108.77 57.0293L114.225 56.8895ZM114.28 59.0345L108.825 59.1743L108.826 59.2302L108.829 59.2861L114.28 59.0345ZM116.04 64.4795L111.888 68.0209L111.914 68.0516L111.941 68.0819L116.04 64.4795ZM120.55 66.2822C117.173 66.2822 115.363 65.4294 114.327 64.4582L106.863 72.4207C110.52 75.8496 115.347 77.1967 120.55 77.1967V66.2822ZM114.36 64.4891C113.217 63.399 112.381 61.7808 112.251 59.0499L101.349 59.569C101.586 64.5381 103.28 69.0065 106.83 72.3898L114.36 64.4891ZM112.256 59.1855L112.201 56.7655L101.289 57.0135L101.344 59.4334L112.256 59.1855ZM112.201 57.0135L112.256 54.5934L101.344 54.3455L101.289 56.7655L112.201 57.0135ZM112.251 54.7315C112.379 52.0778 113.207 50.4792 114.385 49.3738L106.916 41.4151C103.327 44.783 101.588 49.2345 101.349 54.2074L112.251 54.7315ZM114.385 49.3738C115.489 48.3378 117.304 47.4967 120.55 47.4967V36.5822C115.363 36.5822 110.578 37.9778 106.916 41.4151L114.385 49.3738ZM120.55 47.4967C123.796 47.4967 125.612 48.3378 126.716 49.3738L134.185 41.4151C130.522 37.9778 125.738 36.5822 120.55 36.5822V47.4967ZM126.716 49.3738C127.893 50.4792 128.721 52.0778 128.849 54.7315L139.751 54.2074C139.512 49.2345 137.773 44.783 134.185 41.4151L126.716 49.3738ZM128.862 54.9227C128.877 55.1061 128.898 55.699 128.898 56.8895H139.812C139.812 55.7332 139.797 54.7128 139.738 54.0162L128.862 54.9227ZM128.898 56.8895C128.898 58.0799 128.877 58.6728 128.862 58.8562L139.738 59.7627C139.797 59.0661 139.812 58.0457 139.812 56.8895H128.898ZM128.849 59.0499C128.719 61.7808 127.883 63.399 126.74 64.4891L134.27 72.3898C137.82 69.0065 139.515 64.5381 139.751 59.569L128.849 59.0499ZM126.773 64.4582C125.737 65.4294 123.927 66.2822 120.55 66.2822V77.1967C125.753 77.1967 130.58 75.8496 134.237 72.4207L126.773 64.4582ZM120.55 71.7517C123.709 71.7517 126.847 70.7128 129.159 68.0819L120.961 60.877C120.97 60.867 120.993 60.8433 121.029 60.8177C121.065 60.7922 121.092 60.7802 121.098 60.778C121.109 60.7735 120.959 60.8372 120.55 60.8372V71.7517ZM129.212 68.0209C131.349 65.5153 132.13 62.3469 132.272 59.2861L121.369 58.7828C121.331 59.6051 121.217 60.1577 121.105 60.5047C121.05 60.6738 120.999 60.7837 120.964 60.8489C120.93 60.9126 120.909 60.9372 120.908 60.938L129.212 68.0209ZM132.25 59.5775C132.318 58.8975 132.332 57.9151 132.332 56.8895H121.418C121.418 57.3945 121.413 57.7889 121.406 58.0833C121.397 58.4062 121.388 58.5142 121.39 58.4914L132.25 59.5775ZM132.332 56.8895C132.332 55.8638 132.318 54.8814 132.25 54.2014L121.39 55.2875C121.388 55.2647 121.397 55.3727 121.406 55.6956C121.413 55.99 121.418 56.3844 121.418 56.8895H132.332ZM132.272 54.4928C132.131 51.4449 131.353 48.2481 129.159 45.752L120.961 52.9569C120.894 52.8808 121.289 53.2773 121.369 54.9961L132.272 54.4928ZM129.212 45.813C126.917 43.1217 123.763 42.0272 120.55 42.0272V52.9417C120.941 52.9417 121.071 53.004 121.045 52.9931C121.033 52.988 121.002 52.9734 120.966 52.9471C120.931 52.9209 120.911 52.8994 120.908 52.8959L129.212 45.813ZM120.55 42.0272C117.337 42.0272 114.183 43.1217 111.888 45.813L120.192 52.8959C120.189 52.8994 120.17 52.9209 120.134 52.9471C120.098 52.9734 120.067 52.988 120.055 52.9931C120.029 53.004 120.159 52.9417 120.55 52.9417V42.0272ZM111.941 45.752C109.747 48.2481 108.969 51.4449 108.829 54.4928L119.732 54.9961C119.811 53.2773 120.206 52.8808 120.139 52.9569L111.941 45.752ZM108.825 54.6046L108.77 56.7496L119.681 57.0293L119.736 54.8843L108.825 54.6046ZM108.77 57.0293L108.825 59.1743L119.736 58.8946L119.681 56.7496L108.77 57.0293ZM108.829 59.2861C108.97 62.3469 109.751 65.5153 111.888 68.0209L120.192 60.938C120.191 60.9372 120.17 60.9126 120.136 60.8489C120.101 60.7837 120.05 60.6738 119.995 60.5047C119.883 60.1577 119.769 59.6051 119.732 58.7828L108.829 59.2861ZM111.941 68.0819C114.253 70.7128 117.391 71.7517 120.55 71.7517V60.8372C120.141 60.8372 119.991 60.7735 120.002 60.778C120.008 60.7802 120.035 60.7922 120.071 60.8177C120.107 60.8433 120.131 60.867 120.139 60.877L111.941 68.0819ZM148.283 70.8595L144.69 74.9665L144.844 75.1019L145.009 75.2253L148.283 70.8595ZM147.568 69.8145L142.507 71.8544L142.519 71.884L142.531 71.9134L147.568 69.8145ZM137.283 44.2945L131.956 45.4783L132.054 45.9173L132.222 46.3344L137.283 44.2945ZM137.173 43.7995H131.716V44.3985L131.846 44.9833L137.173 43.7995ZM137.503 42.9745L141.362 46.8333L141.362 46.8333L137.503 42.9745ZM144.268 43.6345L139.148 45.5211L139.156 45.5446L139.165 45.5681L144.268 43.6345ZM151.583 62.9395L146.48 64.8731L151.583 78.341L156.687 64.8731L151.583 62.9395ZM158.898 43.6345L153.882 41.4847L153.836 41.5918L153.795 41.7008L158.898 43.6345ZM159.393 42.9195L155.842 38.776L155.683 38.9124L155.534 39.0606L159.393 42.9195ZM165.608 42.9745L161.465 46.526L161.738 46.8447L162.057 47.1179L165.608 42.9745ZM165.938 44.2945L170.996 46.3438L171.061 46.1839L171.116 46.0202L165.938 44.2945ZM155.598 69.8145L160.636 71.9134L160.646 71.8886L160.656 71.8638L155.598 69.8145ZM154.883 70.8595L158.158 75.2253L158.322 75.1019L158.477 74.9665L154.883 70.8595ZM149.548 65.7322C149.618 65.7322 150.539 65.7296 151.558 66.4936L145.009 75.2253C146.614 76.4293 148.379 76.6467 149.548 76.6467V65.7322ZM151.877 66.7524C152.337 67.1548 152.538 67.5534 152.606 67.7155L142.531 71.9134C142.965 72.9555 143.643 74.0508 144.69 74.9665L151.877 66.7524ZM152.63 67.7745L142.345 42.2545L132.222 46.3344L142.507 71.8544L152.63 67.7745ZM142.611 43.1106L142.501 42.6156L131.846 44.9833L131.956 45.4783L142.611 43.1106ZM142.631 43.7995C142.631 44.2496 142.554 44.7958 142.323 45.3725C142.09 45.9556 141.748 46.4476 141.362 46.8333L133.644 39.1156C132.334 40.4259 131.716 42.1195 131.716 43.7995H142.631ZM141.362 46.8333C141.073 47.1223 140.658 47.4429 140.103 47.6854C139.539 47.9324 138.948 48.0467 138.383 48.0467V37.1322C136.454 37.1322 134.812 37.9478 133.644 39.1156L141.362 46.8333ZM138.383 48.0467H142.838V37.1322H138.383V48.0467ZM142.838 48.0467C142.244 48.0467 141.354 47.8824 140.498 47.2569C139.669 46.6511 139.295 45.9218 139.148 45.5211L149.389 41.7478C148.985 40.6504 148.244 39.3987 146.938 38.4445C145.606 37.4707 144.129 37.1322 142.838 37.1322V48.0467ZM139.165 45.5681L146.48 64.8731L156.687 61.0058L149.372 41.7008L139.165 45.5681ZM156.687 64.8731L164.002 45.5681L153.795 41.7008L146.48 61.0058L156.687 64.8731ZM163.914 45.7842C163.721 46.2346 163.467 46.5634 163.252 46.7784L155.534 39.0606C154.879 39.7155 154.295 40.521 153.882 41.4847L163.914 45.7842ZM162.945 47.0629C162.574 47.3812 162.13 47.6437 161.636 47.8181C161.148 47.9903 160.696 48.0467 160.328 48.0467V37.1322C158.778 37.1322 157.174 37.6339 155.842 38.776L162.945 47.0629ZM160.328 48.0467H164.838V37.1322H160.328V48.0467ZM164.838 48.0467C164.157 48.0467 163.457 47.8902 162.81 47.5669C162.183 47.2532 161.745 46.8531 161.465 46.526L169.752 39.4229C168.671 38.1616 166.976 37.1322 164.838 37.1322V48.0467ZM162.057 47.1179C161.663 46.7802 161.252 46.2966 160.952 45.6535C160.65 45.0069 160.536 44.3612 160.536 43.7995H171.451C171.451 41.8322 170.592 40.0587 169.16 38.831L162.057 47.1179ZM160.536 43.7995C160.536 43.7685 160.537 43.6553 160.556 43.4856C160.572 43.335 160.618 42.9973 160.761 42.5687L171.116 46.0202C171.437 45.057 171.451 44.1787 171.451 43.7995H160.536ZM160.88 42.2451L150.54 67.7651L160.656 71.8638L170.996 46.3438L160.88 42.2451ZM150.561 67.7155C150.628 67.5534 150.83 67.1548 151.29 66.7524L158.477 74.9665C159.524 74.0508 160.202 72.9555 160.636 71.9134L150.561 67.7155ZM151.609 66.4936C152.628 65.7296 153.549 65.7322 153.618 65.7322V76.6467C154.788 76.6467 156.552 76.4293 158.158 75.2253L151.609 66.4936ZM153.618 65.7322H149.548V76.6467H153.618V65.7322ZM171.175 37.4745L175.034 33.6156L175.034 33.6156L171.175 37.4745ZM171.175 31.6445L167.316 27.7856L167.316 27.7856L171.175 31.6445ZM178.05 31.6445L174.191 35.5033L174.32 35.6318L174.457 35.7515L178.05 31.6445ZM178.105 37.4745L174.246 33.6156L174.246 33.6156L178.105 37.4745ZM171.395 70.8045L175.254 66.9456L171.395 70.8045ZM171.395 42.9745L175.254 46.8334L175.254 46.8333L171.395 42.9745ZM177.83 42.9745L173.687 46.526L173.96 46.8447L174.279 47.1179L177.83 42.9745ZM177.83 70.8045L173.971 66.9456L173.823 67.0938L173.687 67.2529L177.83 70.8045ZM172.11 32.4022C172.577 32.4022 173.12 32.4867 173.679 32.717C174.24 32.9477 174.693 33.274 175.034 33.6156L167.316 41.3333C168.608 42.6251 170.313 43.3167 172.11 43.3167V32.4022ZM175.034 33.6156C175.376 33.9571 175.702 34.4101 175.933 34.9703C176.163 35.5295 176.248 36.073 176.248 36.5394H165.333C165.333 38.337 166.025 40.0416 167.316 41.3333L175.034 33.6156ZM176.248 36.5394V32.5795H165.333V36.5394H176.248ZM176.248 32.5795C176.248 33.0459 176.163 33.5894 175.933 34.1486C175.702 34.7088 175.376 35.1618 175.034 35.5033L167.316 27.7856C166.025 29.0773 165.333 30.7819 165.333 32.5795H176.248ZM175.034 35.5033C174.693 35.8449 174.24 36.1712 173.679 36.4019C173.12 36.6322 172.577 36.7167 172.11 36.7167V25.8022C170.313 25.8022 168.608 26.4938 167.316 27.7856L175.034 35.5033ZM172.11 36.7167H177.115V25.8022H172.11V36.7167ZM177.115 36.7167C176.649 36.7167 176.105 36.6322 175.546 36.4019C174.986 36.1712 174.533 35.8449 174.191 35.5033L181.909 27.7856C180.618 26.4938 178.913 25.8022 177.115 25.8022V36.7167ZM174.457 35.7515C174.112 35.4495 173.729 35.0034 173.443 34.3944C173.152 33.777 173.033 33.1466 173.033 32.5795H183.948C183.948 30.5301 183.037 28.7563 181.644 27.5374L174.457 35.7515ZM173.033 32.5795V36.5394H183.948V32.5795H173.033ZM173.033 36.5394C173.033 36.073 173.118 35.5295 173.348 34.9703C173.579 34.4101 173.905 33.9571 174.246 33.6156L181.964 41.3333C183.256 40.0416 183.948 38.337 183.948 36.5394H173.033ZM174.246 33.6156C174.639 33.2226 175.129 32.8941 175.687 32.677C176.234 32.4642 176.734 32.4022 177.115 32.4022V43.3167C178.79 43.3167 180.566 42.7317 181.964 41.3333L174.246 33.6156ZM177.115 32.4022H172.11V43.3167H177.115V32.4022ZM172.33 65.7322C172.797 65.7322 173.34 65.8167 173.899 66.047C174.46 66.2777 174.913 66.604 175.254 66.9456L167.536 74.6633C168.828 75.9551 170.533 76.6467 172.33 76.6467V65.7322ZM175.254 66.9456C175.596 67.2871 175.922 67.7401 176.153 68.3003C176.383 68.8595 176.468 69.403 176.468 69.8695H165.553C165.553 71.667 166.245 73.3716 167.536 74.6633L175.254 66.9456ZM176.468 69.8695V43.9095H165.553V69.8695H176.468ZM176.468 43.9095C176.468 44.3759 176.383 44.9194 176.153 45.4786C175.922 46.0389 175.596 46.4918 175.254 46.8334L167.536 39.1156C166.245 40.4073 165.553 42.1119 165.553 43.9095H176.468ZM175.254 46.8333C174.913 47.1749 174.46 47.5012 173.899 47.7319C173.34 47.9622 172.797 48.0467 172.33 48.0467V37.1322C170.533 37.1322 168.828 37.8238 167.536 39.1156L175.254 46.8333ZM172.33 48.0467H176.895V37.1322H172.33V48.0467ZM176.895 48.0467C176.521 48.0467 175.973 47.9869 175.354 47.7319C174.71 47.467 174.136 47.05 173.687 46.526L181.974 39.4229C180.515 37.7214 178.553 37.1322 176.895 37.1322V48.0467ZM174.279 47.1179C173.755 46.6688 173.338 46.0946 173.073 45.4511C172.818 44.8318 172.758 44.2834 172.758 43.9095H183.673C183.673 42.2514 183.083 40.2894 181.382 38.831L174.279 47.1179ZM172.758 43.9095V69.8695H183.673V43.9095H172.758ZM172.758 69.8695C172.758 69.403 172.843 68.8595 173.073 68.3003C173.304 67.7401 173.63 67.2871 173.971 66.9456L181.689 74.6633C182.981 73.3716 183.673 71.667 183.673 69.8695H172.758ZM173.687 67.2529C174.136 66.7289 174.71 66.3119 175.354 66.047C175.973 65.792 176.521 65.7322 176.895 65.7322V76.6467C178.553 76.6467 180.515 76.0575 181.974 74.356L173.687 67.2529ZM176.895 65.7322H172.33V76.6467H176.895V65.7322ZM188.097 68.2195L184.238 72.0783L184.268 72.108L184.298 72.1372L188.097 68.2195ZM184.302 58.2095L189.756 58.023L189.756 58.0072L189.755 57.9913L184.302 58.2095ZM184.247 56.8345L178.794 56.6163L178.786 56.8345L178.794 57.0526L184.247 56.8345ZM184.302 55.4595L178.85 55.2203L178.85 55.2308L178.849 55.2413L184.302 55.4595ZM188.152 45.6145L184.323 41.7262L184.308 41.7408L184.293 41.7556L188.152 45.6145ZM207.842 45.9995L203.763 49.6251L203.777 49.6408L203.792 49.6564L207.842 45.9995ZM211.032 58.6495L214.891 62.5083L214.891 62.5083L211.032 58.6495ZM191.782 59.0345V53.5772H186.325V59.0345H191.782ZM191.782 59.4745H186.325V59.5736L186.329 59.6728L191.782 59.4745ZM193.432 64.5895L189.039 67.8267L189.087 67.8921L189.137 67.956L193.432 64.5895ZM203.002 64.0945L198.779 60.6387L198.741 60.6845L198.705 60.7311L203.002 64.0945ZM203.772 63.3245L201.332 58.4433L201.144 58.537L200.965 58.6449L203.772 63.3245ZM210.262 63.4895L206.403 67.3483L206.723 67.6677L207.09 67.9302L210.262 63.4895ZM209.052 67.3395L204.953 63.737L204.945 63.7458L209.052 67.3395ZM204.597 70.4195L206.848 75.3908L204.597 70.4195ZM203.937 54.4145V59.8717H209.395V54.4145H203.937ZM202.287 49.0245L198.037 52.448L198.066 52.4833L198.095 52.5181L202.287 49.0245ZM193.377 49.0245L189.127 45.6009V45.6009L193.377 49.0245ZM191.782 54.4145H186.325V59.8717H191.782V54.4145ZM197.832 66.2822C194.868 66.2822 193.094 65.4628 191.896 64.3017L184.298 72.1372C187.941 75.6694 192.657 77.1967 197.832 77.1967V66.2822ZM191.956 64.3606C190.797 63.2014 189.869 61.3237 189.756 58.023L178.848 58.3959C179.029 63.6752 180.631 68.4708 184.238 72.0783L191.956 64.3606ZM189.755 57.9913L189.7 56.6163L178.794 57.0526L178.849 58.4276L189.755 57.9913ZM189.7 57.0526L189.755 55.6776L178.849 55.2413L178.794 56.6163L189.7 57.0526ZM189.754 55.6986C189.893 52.5381 190.811 50.6733 192.011 49.4733L184.293 41.7556C180.727 45.3223 179.078 50.0208 178.85 55.2203L189.754 55.6986ZM191.982 49.5027C193.193 48.3102 194.944 47.4967 197.832 47.4967V36.5822C192.654 36.5822 187.952 38.1521 184.323 41.7262L191.982 49.5027ZM197.832 47.4967C200.98 47.4967 202.681 48.4068 203.763 49.6251L211.921 42.3738C208.311 38.3121 203.338 36.5822 197.832 36.5822V47.4967ZM203.792 49.6564C205.068 51.0703 205.96 53.1761 205.96 56.5595H216.875C216.875 51.1428 215.383 46.2086 211.893 42.3425L203.792 49.6564ZM205.96 56.5595V57.7145H216.875V56.5595H205.96ZM205.96 57.7145C205.96 57.248 206.045 56.7045 206.275 56.1453C206.506 55.5851 206.832 55.1321 207.173 54.7906L214.891 62.5083C216.183 61.2166 216.875 59.512 216.875 57.7145H205.96ZM207.173 54.7906C207.566 54.3976 208.056 54.0691 208.614 53.852C209.161 53.6392 209.661 53.5772 210.042 53.5772V64.4917C211.717 64.4917 213.493 63.9067 214.891 62.5083L207.173 54.7906ZM210.042 53.5772H191.782V64.4917H210.042V53.5772ZM186.325 59.0345V59.4745H197.24V59.0345H186.325ZM186.329 59.6728C186.435 62.5992 187.259 65.4106 189.039 67.8267L197.826 61.3522C197.553 60.9816 197.276 60.3831 197.236 59.2761L186.329 59.6728ZM189.137 67.956C191.309 70.7265 194.39 72.0817 197.777 72.0817V61.1672C197.656 61.1672 197.594 61.156 197.579 61.153C197.572 61.1514 197.574 61.1515 197.585 61.1549C197.595 61.1584 197.611 61.1644 197.631 61.1736C197.65 61.1828 197.671 61.1939 197.69 61.2062C197.71 61.2185 197.726 61.2301 197.738 61.2396C197.762 61.2597 197.757 61.2608 197.728 61.2229L189.137 67.956ZM197.777 72.0817C201.599 72.0817 204.933 70.4817 207.3 67.4578L198.705 60.7311C198.502 60.9895 198.372 61.0587 198.328 61.0802C198.282 61.1024 198.133 61.1672 197.777 61.1672V72.0817ZM207.226 67.5502C207.321 67.4341 207.343 67.4166 207.301 67.4583C207.278 67.4816 207.215 67.5436 207.115 67.6269C207.021 67.7046 206.84 67.848 206.58 68.004L200.965 58.6449C199.879 59.2965 199.096 60.2505 198.779 60.6387L207.226 67.5502ZM206.213 68.2056C205.739 68.4423 205.342 68.5357 205.119 68.575C204.891 68.6153 204.742 68.6167 204.707 68.6167V57.7022C203.936 57.7022 202.645 57.7866 201.332 58.4433L206.213 68.2056ZM204.707 68.6167H209.437V57.7022H204.707V68.6167ZM209.437 68.6167C208.987 68.6167 208.441 68.5396 207.864 68.3089C207.281 68.0757 206.789 67.7341 206.403 67.3483L214.121 59.6306C212.811 58.3202 211.117 57.7022 209.437 57.7022V68.6167ZM207.09 67.9302C206.652 67.6169 206.138 67.1205 205.746 66.393C205.347 65.6515 205.19 64.8834 205.19 64.2045H216.105C216.105 61.9987 214.999 60.166 213.434 59.0487L207.09 67.9302ZM205.19 64.2045C205.19 63.8727 205.24 63.6127 205.287 63.4425C205.333 63.2754 205.379 63.1839 205.385 63.1736C205.39 63.1627 205.368 63.2083 205.295 63.3115C205.222 63.4137 205.113 63.5555 204.953 63.737L213.152 70.9419C214.443 69.472 216.105 67.1402 216.105 64.2045H205.19ZM204.945 63.7458C204.584 64.1586 203.826 64.7781 202.346 65.4481L206.848 75.3908C209.256 74.3008 211.467 72.8669 213.159 70.9331L204.945 63.7458ZM202.346 65.4481C201.239 65.9495 199.778 66.2822 197.832 66.2822V77.1967C201.02 77.1967 204.069 76.6494 206.848 75.3908L202.346 65.4481ZM209.395 54.4145V54.2495H198.48V54.4145H209.395ZM209.395 54.2495C209.395 51.1488 208.591 48.064 206.48 45.5308L198.095 52.5181C198.184 52.6249 198.48 53.0234 198.48 54.2495H209.395ZM206.537 45.6009C204.3 42.8235 201.157 41.5872 197.832 41.5872V52.5017C197.995 52.5017 198.094 52.5158 198.141 52.525C198.186 52.5338 198.187 52.5387 198.16 52.5264C198.131 52.5134 198.095 52.4928 198.062 52.4676C198.031 52.443 198.023 52.4306 198.037 52.448L206.537 45.6009ZM197.832 41.5872C194.508 41.5872 191.365 42.8235 189.127 45.6009L197.627 52.448C197.641 52.4306 197.634 52.443 197.602 52.4676C197.57 52.4928 197.534 52.5134 197.505 52.5264C197.477 52.5387 197.479 52.5338 197.524 52.525C197.571 52.5158 197.67 52.5017 197.832 52.5017V41.5872ZM189.127 45.6009C187.088 48.1323 186.325 51.1906 186.325 54.2495H197.24C197.24 52.9816 197.54 52.5566 197.627 52.448L189.127 45.6009ZM186.325 54.2495V54.4145H197.24V54.2495H186.325ZM191.782 59.8717H203.937V48.9572H191.782V59.8717ZM218.3 70.8045L214.442 74.6633L218.3 70.8045ZM218.245 33.0745L214.387 29.2156L214.238 29.3638L214.102 29.5229L218.245 33.0745ZM243.985 35.8245L240.51 40.0318L240.525 40.0441L240.54 40.0562L243.985 35.8245ZM245.855 51.4995L241.427 48.3107L241.421 48.3191L241.415 48.3275L245.855 51.4995ZM240.465 55.4045L238.666 50.2523L232.467 52.4172L235.73 58.116L240.465 55.4045ZM248.495 69.4295L253.377 66.9889L253.308 66.8513L253.231 66.7179L248.495 69.4295ZM248.275 70.8595L244.724 66.716L244.565 66.8524L244.417 67.0006L248.275 70.8595ZM241.125 70.8045L237.532 74.9115L237.651 75.0153L237.775 75.1122L241.125 70.8045ZM240.3 69.7045L245.105 67.1172L245.1 67.1063L245.094 67.0955L240.3 69.7045ZM233.205 56.6695L237.999 54.0605L236.448 51.2122H233.205V56.6695ZM225.56 56.6695V51.2122H220.103V56.6695H225.56ZM225.175 70.8045L221.317 66.9456L221.168 67.0938L221.032 67.2529L225.175 70.8045ZM238.265 48.9695L234.681 44.8542L234.648 44.8834L234.615 44.9131L238.265 48.9695ZM238.265 40.3344L234.542 44.324L234.574 44.3544L234.608 44.3843L238.265 40.3344ZM225.56 38.7945V33.3372H220.103V38.7945H225.56ZM225.56 50.4545H220.103V55.9117H225.56V50.4545ZM219.235 65.7322C219.702 65.7322 220.245 65.8167 220.805 66.047C221.365 66.2777 221.818 66.604 222.159 66.9456L214.442 74.6633C215.733 75.9551 217.438 76.6467 219.235 76.6467V65.7322ZM222.159 66.9456C222.501 67.2871 222.827 67.7401 223.058 68.3003C223.288 68.8595 223.373 69.403 223.373 69.8695H212.458C212.458 71.667 213.15 73.3716 214.442 74.6633L222.159 66.9456ZM223.373 69.8695V34.0645H212.458V69.8695H223.373ZM223.373 34.0645C223.373 34.7001 223.174 35.7102 222.389 36.626L214.102 29.5229C212.877 30.952 212.458 32.6221 212.458 34.0645H223.373ZM222.104 36.9333C221.711 37.3263 221.222 37.6548 220.663 37.8719C220.116 38.0847 219.617 38.1467 219.235 38.1467V27.2322C217.561 27.2322 215.785 27.8172 214.387 29.2156L222.104 36.9333ZM219.235 38.1467H233.48V27.2322H219.235V38.1467ZM233.48 38.1467C237.145 38.1467 239.262 39.0007 240.51 40.0318L247.461 31.6171C243.649 28.4682 238.763 27.2322 233.48 27.2322V38.1467ZM240.54 40.0562C241.618 40.9345 242.378 42.2262 242.378 44.7345H253.293C253.293 39.5427 251.486 34.8944 247.431 31.5927L240.54 40.0562ZM242.378 44.7345C242.378 46.484 241.961 47.5683 241.427 48.3107L250.284 54.6882C252.39 51.764 253.293 48.3382 253.293 44.7345H242.378ZM241.415 48.3275C240.857 49.1086 240.033 49.7751 238.666 50.2523L242.265 60.5566C245.518 59.4205 248.288 57.4836 250.296 54.6714L241.415 48.3275ZM235.73 58.116L243.76 72.141L253.231 66.7179L245.201 52.6929L235.73 58.116ZM243.614 71.87C243.469 71.5792 243.203 70.9369 243.203 70.0345H254.118C254.118 68.7653 253.742 67.7197 253.377 66.9889L243.614 71.87ZM243.203 70.0345C243.203 69.4727 243.317 68.827 243.619 68.1804C243.919 67.5373 244.33 67.0537 244.724 66.716L251.827 75.0029C253.259 73.7752 254.118 72.0017 254.118 70.0345H243.203ZM244.417 67.0006C244.742 66.6756 245.19 66.3389 245.768 66.0909C246.353 65.8402 246.951 65.7322 247.505 65.7322V76.6467C249.341 76.6467 250.96 75.8929 252.134 74.7184L244.417 67.0006ZM247.505 65.7322H242.5V76.6467H247.505V65.7322ZM242.5 65.7322C242.648 65.7322 243.528 65.7596 244.476 66.4967L237.775 75.1122C239.383 76.3626 241.18 76.6467 242.5 76.6467V65.7322ZM244.719 66.6974C244.903 66.8581 245.013 66.9938 245.065 67.0626C245.117 67.1318 245.127 67.1575 245.105 67.1172L235.495 72.2918C235.95 73.1361 236.597 74.0931 237.532 74.9115L244.719 66.6974ZM245.094 67.0955L237.999 54.0605L228.412 59.2784L235.507 72.3134L245.094 67.0955ZM233.205 51.2122H225.56V62.1267H233.205V51.2122ZM220.103 56.6695V69.8695H231.018V56.6695H220.103ZM220.103 69.8695C220.103 69.403 220.188 68.8595 220.418 68.3003C220.649 67.7401 220.975 67.2871 221.317 66.9456L229.034 74.6633C230.326 73.3716 231.018 71.667 231.018 69.8695H220.103ZM221.032 67.2529C221.481 66.7289 222.055 66.3119 222.699 66.047C223.318 65.792 223.867 65.7322 224.24 65.7322V76.6467C225.899 76.6467 227.861 76.0575 229.319 74.356L221.032 67.2529ZM224.24 65.7322H219.235V76.6467H224.24V65.7322ZM233.315 55.9117C236.223 55.9117 239.423 55.27 241.916 53.0258L234.615 44.9131C234.755 44.7872 234.814 44.8024 234.635 44.8561C234.437 44.9155 234.024 44.9972 233.315 44.9972V55.9117ZM241.85 53.0847C244.455 50.8157 245.428 47.7163 245.428 44.6795H234.513C234.513 45.0687 234.454 45.1871 234.473 45.1389C234.483 45.1136 234.507 45.063 234.55 45.0013C234.594 44.9392 234.641 44.8891 234.681 44.8542L241.85 53.0847ZM245.428 44.6795C245.428 41.6347 244.454 38.5698 241.923 36.2846L234.608 44.3843C234.583 44.3621 234.549 44.3262 234.517 44.2795C234.485 44.233 234.469 44.197 234.464 44.1842C234.454 44.1592 234.513 44.2923 234.513 44.6795H245.428ZM241.989 36.3449C239.496 34.0182 236.267 33.3372 233.315 33.3372V44.2517C234.008 44.2517 234.402 44.3345 234.582 44.3904C234.739 44.4394 234.675 44.4484 234.542 44.324L241.989 36.3449ZM233.315 33.3372H225.56V44.2517H233.315V33.3372ZM220.103 38.7945V50.4545H231.018V38.7945H220.103ZM225.56 55.9117H233.315V44.9972H225.56V55.9117ZM256.635 68.4395L252.87 72.3898L252.886 72.4053L252.903 72.4207L256.635 68.4395ZM252.84 59.3095L247.384 59.4334L247.386 59.5013L247.389 59.569L252.84 59.3095ZM252.785 56.8895L247.329 56.7655L247.326 56.8895L247.329 57.0135L252.785 56.8895ZM252.84 54.4695L247.389 54.2074L247.386 54.2764L247.384 54.3455L252.84 54.4695ZM256.69 45.3945L260.425 49.3738L256.69 45.3945ZM276.49 45.3945L272.756 49.3738V49.3738L276.49 45.3945ZM280.34 54.4695L274.889 54.7315L274.894 54.8272L274.902 54.9227L280.34 54.4695ZM280.34 59.3095L274.902 58.8562L274.894 58.9529L274.889 59.0499L280.34 59.3095ZM276.545 68.4395L280.278 72.4207L280.294 72.4053L280.31 72.3898L276.545 68.4395ZM271.1 64.4795L275.199 68.0819L275.226 68.0516L275.252 68.0209L271.1 64.4795ZM272.86 59.0345L267.43 58.4914L267.415 58.6369L267.409 58.7828L272.86 59.0345ZM272.86 54.7445L267.409 54.9961L267.415 55.142L267.43 55.2875L272.86 54.7445ZM271.1 49.3545L266.948 52.8959L266.974 52.9266L267.001 52.9569L271.1 49.3545ZM262.08 49.3545L266.179 52.9569L266.206 52.9266L266.232 52.8959L262.08 49.3545ZM260.32 54.7445L254.869 54.4928L254.866 54.5487L254.865 54.6046L260.32 54.7445ZM260.265 56.8895L254.81 56.7496L254.806 56.8895L254.81 57.0293L260.265 56.8895ZM260.32 59.0345L254.865 59.1743L254.866 59.2302L254.869 59.2861L260.32 59.0345ZM262.08 64.4795L257.928 68.0209L257.954 68.0516L257.981 68.0819L262.08 64.4795ZM266.59 66.2822C263.213 66.2822 261.403 65.4294 260.368 64.4582L252.903 72.4207C256.56 75.8496 261.387 77.1967 266.59 77.1967V66.2822ZM260.4 64.4891C259.257 63.399 258.421 61.7808 258.291 59.0499L247.389 59.569C247.626 64.5381 249.32 69.0065 252.87 72.3898L260.4 64.4891ZM258.296 59.1855L258.241 56.7655L247.329 57.0135L247.384 59.4334L258.296 59.1855ZM258.241 57.0135L258.296 54.5934L247.384 54.3455L247.329 56.7655L258.241 57.0135ZM258.291 54.7315C258.419 52.0778 259.247 50.4792 260.425 49.3738L252.956 41.4151C249.367 44.783 247.628 49.2345 247.389 54.2074L258.291 54.7315ZM260.425 49.3738C261.529 48.3378 263.344 47.4967 266.59 47.4967V36.5822C261.403 36.5822 256.618 37.9778 252.956 41.4151L260.425 49.3738ZM266.59 47.4967C269.836 47.4967 271.652 48.3378 272.756 49.3738L280.225 41.4151C276.562 37.9778 271.778 36.5822 266.59 36.5822V47.4967ZM272.756 49.3738C273.933 50.4792 274.761 52.0778 274.889 54.7315L285.791 54.2074C285.552 49.2345 283.813 44.783 280.225 41.4151L272.756 49.3738ZM274.902 54.9227C274.917 55.1061 274.938 55.699 274.938 56.8895H285.852C285.852 55.7332 285.837 54.7128 285.779 54.0162L274.902 54.9227ZM274.938 56.8895C274.938 58.0799 274.917 58.6728 274.902 58.8562L285.779 59.7627C285.837 59.0661 285.852 58.0457 285.852 56.8895H274.938ZM274.889 59.0499C274.759 61.7808 273.924 63.399 272.78 64.4891L280.31 72.3898C283.86 69.0065 285.555 64.5381 285.791 59.569L274.889 59.0499ZM272.813 64.4582C271.777 65.4294 269.967 66.2822 266.59 66.2822V77.1967C271.793 77.1967 276.62 75.8496 280.278 72.4207L272.813 64.4582ZM266.59 71.7517C269.749 71.7517 272.887 70.7128 275.199 68.0819L267.001 60.877C267.01 60.867 267.033 60.8433 267.069 60.8177C267.105 60.7922 267.132 60.7802 267.138 60.778C267.149 60.7735 266.999 60.8372 266.59 60.8372V71.7517ZM275.252 68.0209C277.389 65.5153 278.17 62.3469 278.312 59.2861L267.409 58.7828C267.371 59.6051 267.257 60.1577 267.145 60.5047C267.09 60.6738 267.039 60.7837 267.004 60.8489C266.97 60.9126 266.949 60.9372 266.948 60.938L275.252 68.0209ZM278.29 59.5775C278.358 58.8975 278.372 57.9151 278.372 56.8895H267.458C267.458 57.3945 267.453 57.7889 267.446 58.0833C267.438 58.4062 267.428 58.5142 267.43 58.4914L278.29 59.5775ZM278.372 56.8895C278.372 55.8638 278.358 54.8814 278.29 54.2014L267.43 55.2875C267.428 55.2647 267.438 55.3727 267.446 55.6956C267.453 55.99 267.458 56.3844 267.458 56.8895H278.372ZM278.312 54.4928C278.171 51.4449 277.393 48.2481 275.199 45.752L267.001 52.9569C266.934 52.8808 267.329 53.2773 267.409 54.9961L278.312 54.4928ZM275.252 45.813C272.957 43.1217 269.803 42.0272 266.59 42.0272V52.9417C266.981 52.9417 267.111 53.004 267.085 52.9931C267.073 52.988 267.043 52.9734 267.006 52.9471C266.971 52.9209 266.951 52.8994 266.948 52.8959L275.252 45.813ZM266.59 42.0272C263.377 42.0272 260.223 43.1217 257.928 45.813L266.232 52.8959C266.229 52.8994 266.21 52.9209 266.174 52.9471C266.138 52.9734 266.107 52.988 266.095 52.9931C266.069 53.004 266.199 52.9417 266.59 52.9417V42.0272ZM257.981 45.752C255.787 48.2481 255.009 51.4449 254.869 54.4928L265.772 54.9961C265.851 53.2773 266.246 52.8808 266.179 52.9569L257.981 45.752ZM254.865 54.6046L254.81 56.7496L265.721 57.0293L265.776 54.8843L254.865 54.6046ZM254.81 57.0293L254.865 59.1743L265.776 58.8946L265.721 56.7496L254.81 57.0293ZM254.869 59.2861C255.01 62.3469 255.791 65.5153 257.928 68.0209L266.232 60.938C266.231 60.9372 266.21 60.9126 266.176 60.8489C266.141 60.7837 266.09 60.6738 266.035 60.5047C265.923 60.1577 265.809 59.6051 265.772 58.7828L254.869 59.2861ZM257.981 68.0819C260.293 70.7128 263.431 71.7517 266.59 71.7517V60.8372C266.181 60.8372 266.031 60.7735 266.042 60.778C266.048 60.7802 266.075 60.7922 266.111 60.8177C266.147 60.8433 266.171 60.867 266.179 60.877L257.981 68.0819ZM289.184 68.4395L285.419 72.3898L285.435 72.4053L285.451 72.4207L289.184 68.4395ZM285.389 59.3095L279.933 59.4334L279.935 59.5013L279.938 59.569L285.389 59.3095ZM285.334 56.8895L279.878 56.7655L279.875 56.8895L279.878 57.0135L285.334 56.8895ZM285.389 54.4695L279.938 54.2074L279.935 54.2764L279.933 54.3455L285.389 54.4695ZM289.239 45.3945L292.973 49.3738L289.239 45.3945ZM309.039 45.3945L305.304 49.3738V49.3738L309.039 45.3945ZM312.889 54.4695L307.438 54.7315L307.443 54.8272L307.45 54.9227L312.889 54.4695ZM312.889 59.3095L307.45 58.8562L307.442 58.9529L307.438 59.0499L312.889 59.3095ZM309.094 68.4395L312.826 72.4207L312.843 72.4053L312.859 72.3898L309.094 68.4395ZM303.649 64.4795L307.748 68.0819L307.775 68.0516L307.801 68.0209L303.649 64.4795ZM305.409 59.0345L299.979 58.4914L299.964 58.6369L299.957 58.7828L305.409 59.0345ZM305.409 54.7445L299.957 54.9961L299.964 55.142L299.979 55.2875L305.409 54.7445ZM303.649 49.3545L299.497 52.8959L299.523 52.9266L299.55 52.9569L303.649 49.3545ZM294.629 49.3545L298.728 52.9569L298.755 52.9266L298.781 52.8959L294.629 49.3545ZM292.869 54.7445L287.417 54.4928L287.415 54.5487L287.413 54.6046L292.869 54.7445ZM292.814 56.8895L287.358 56.7496L287.355 56.8895L287.358 57.0293L292.814 56.8895ZM292.869 59.0345L287.413 59.1743L287.415 59.2302L287.417 59.2861L292.869 59.0345ZM294.629 64.4795L290.477 68.0209L290.503 68.0516L290.53 68.0819L294.629 64.4795ZM299.139 66.2822C295.762 66.2822 293.952 65.4294 292.916 64.4582L285.451 72.4207C289.109 75.8496 293.936 77.1967 299.139 77.1967V66.2822ZM292.949 64.4891C291.805 63.399 290.97 61.7808 290.84 59.0499L279.938 59.569C280.174 64.5381 281.869 69.0065 285.419 72.3898L292.949 64.4891ZM290.845 59.1855L290.79 56.7655L279.878 57.0135L279.933 59.4334L290.845 59.1855ZM290.79 57.0135L290.845 54.5934L279.933 54.3455L279.878 56.7655L290.79 57.0135ZM290.84 54.7315C290.967 52.0778 291.796 50.4792 292.973 49.3738L285.504 41.4151C281.916 44.783 280.177 49.2345 279.938 54.2074L290.84 54.7315ZM292.973 49.3738C294.077 48.3378 295.893 47.4967 299.139 47.4967V36.5822C293.951 36.5822 289.167 37.9778 285.504 41.4151L292.973 49.3738ZM299.139 47.4967C302.385 47.4967 304.2 48.3378 305.304 49.3738L312.773 41.4151C309.111 37.9778 304.326 36.5822 299.139 36.5822V47.4967ZM305.304 49.3738C306.482 50.4792 307.31 52.0778 307.438 54.7315L318.34 54.2074C318.101 49.2345 316.362 44.783 312.773 41.4151L305.304 49.3738ZM307.45 54.9227C307.466 55.1061 307.487 55.699 307.487 56.8895H318.401C318.401 55.7332 318.385 54.7128 318.327 54.0162L307.45 54.9227ZM307.487 56.8895C307.487 58.0799 307.466 58.6728 307.45 58.8562L318.327 59.7627C318.385 59.0661 318.401 58.0457 318.401 56.8895H307.487ZM307.438 59.0499C307.308 61.7808 306.472 63.399 305.329 64.4891L312.859 72.3898C316.409 69.0065 318.103 64.5381 318.34 59.569L307.438 59.0499ZM305.361 64.4582C304.325 65.4294 302.516 66.2822 299.139 66.2822V77.1967C304.342 77.1967 309.169 75.8496 312.826 72.4207L305.361 64.4582ZM299.139 71.7517C302.298 71.7517 305.436 70.7128 307.748 68.0819L299.55 60.877C299.558 60.867 299.582 60.8433 299.618 60.8177C299.654 60.7922 299.681 60.7802 299.686 60.778C299.698 60.7735 299.548 60.8372 299.139 60.8372V71.7517ZM307.801 68.0209C309.938 65.5153 310.719 62.3469 310.86 59.2861L299.957 58.7828C299.919 59.6051 299.806 60.1577 299.694 60.5047C299.639 60.6738 299.588 60.7837 299.553 60.8489C299.519 60.9126 299.497 60.9372 299.497 60.938L307.801 68.0209ZM310.839 59.5775C310.907 58.8975 310.921 57.9151 310.921 56.8895H300.007C300.007 57.3945 300.002 57.7889 299.995 58.0833C299.986 58.4062 299.976 58.5142 299.979 58.4914L310.839 59.5775ZM310.921 56.8895C310.921 55.8638 310.907 54.8814 310.839 54.2014L299.979 55.2875C299.976 55.2647 299.986 55.3727 299.995 55.6956C300.002 55.99 300.007 56.3844 300.007 56.8895H310.921ZM310.86 54.4928C310.72 51.4449 309.942 48.2481 307.748 45.752L299.55 52.9569C299.483 52.8808 299.878 53.2773 299.957 54.9961L310.86 54.4928ZM307.801 45.813C305.505 43.1217 302.352 42.0272 299.139 42.0272V52.9417C299.53 52.9417 299.66 53.004 299.634 52.9931C299.621 52.988 299.591 52.9734 299.555 52.9471C299.519 52.9209 299.5 52.8994 299.497 52.8959L307.801 45.813ZM299.139 42.0272C295.926 42.0272 292.772 43.1217 290.477 45.813L298.781 52.8959C298.778 52.8994 298.758 52.9209 298.722 52.9471C298.686 52.9734 298.656 52.988 298.644 52.9931C298.618 53.004 298.748 52.9417 299.139 52.9417V42.0272ZM290.53 45.752C288.336 48.2481 287.558 51.4449 287.417 54.4928L298.32 54.9961C298.4 53.2773 298.795 52.8808 298.728 52.9569L290.53 45.752ZM287.413 54.6046L287.358 56.7496L298.269 57.0293L298.324 54.8843L287.413 54.6046ZM287.358 57.0293L287.413 59.1743L298.324 58.8946L298.269 56.7496L287.358 57.0293ZM287.417 59.2861C287.559 62.3469 288.34 65.5153 290.477 68.0209L298.781 60.938C298.78 60.9372 298.759 60.9126 298.725 60.8489C298.69 60.7837 298.639 60.6738 298.584 60.5047C298.472 60.1577 298.358 59.6051 298.32 58.7828L287.417 59.2861ZM290.53 68.0819C292.842 70.7128 295.98 71.7517 299.139 71.7517V60.8372C298.729 60.8372 298.58 60.7735 298.591 60.778C298.597 60.7802 298.624 60.7922 298.66 60.8177C298.696 60.8433 298.719 60.867 298.728 60.877L290.53 68.0819ZM319.423 70.8045L323.282 66.9456L319.423 70.8045ZM319.423 42.9745L323.282 46.8334L323.282 46.8333L319.423 42.9745ZM325.583 42.9745L321.724 46.8333L321.724 46.8333L325.583 42.9745ZM325.968 45.7795H320.51V61.8998L330.303 49.0945L325.968 45.7795ZM342.468 46.9345L337.576 49.353L342.005 58.3126L347.147 49.7422L342.468 46.9345ZM346.208 43.4145L348.821 48.2054L348.863 48.1827L348.904 48.1593L346.208 43.4145ZM358.803 45.1195L362.802 41.406V41.406L358.803 45.1195ZM361.278 70.8045L357.419 66.9456L357.271 67.0938L357.134 67.2529L361.278 70.8045ZM354.898 70.8045L358.757 66.9456L358.757 66.9456L354.898 70.8045ZM353.028 49.5195L348.964 53.1624L349.031 53.2362L349.099 53.3076L353.028 49.5195ZM345.493 49.5195L341.567 45.7288L341.532 45.7645L341.499 45.8008L345.493 49.5195ZM343.623 70.8045L339.764 66.9456V66.9456L343.623 70.8045ZM335.318 49.5195L331.324 53.2382L331.39 53.3095L331.459 53.3783L335.318 49.5195ZM327.783 49.5195L323.857 45.7288L323.822 45.7645L323.789 45.8008L327.783 49.5195ZM320.358 65.7322C320.824 65.7322 321.368 65.8167 321.927 66.047C322.487 66.2777 322.94 66.604 323.282 66.9456L315.564 74.6633C316.856 75.9551 318.56 76.6467 320.358 76.6467V65.7322ZM323.282 66.9456C323.623 67.2871 323.949 67.7401 324.18 68.3003C324.41 68.8595 324.495 69.403 324.495 69.8695H313.58C313.58 71.667 314.272 73.3716 315.564 74.6633L323.282 66.9456ZM324.495 69.8695V43.9095H313.58V69.8695H324.495ZM324.495 43.9095C324.495 44.3759 324.41 44.9194 324.18 45.4786C323.949 46.0389 323.623 46.4918 323.282 46.8334L315.564 39.1156C314.272 40.4073 313.58 42.1119 313.58 43.9095H324.495ZM323.282 46.8333C322.94 47.1749 322.487 47.5012 321.927 47.7319C321.368 47.9622 320.824 48.0467 320.358 48.0467V37.1322C318.56 37.1322 316.856 37.8238 315.564 39.1156L323.282 46.8333ZM320.358 48.0467H324.648V37.1322H320.358V48.0467ZM324.648 48.0467C324.181 48.0467 323.638 47.9622 323.079 47.7319C322.518 47.5012 322.065 47.1749 321.724 46.8333L329.442 39.1156C328.15 37.8238 326.445 37.1322 324.648 37.1322V48.0467ZM321.724 46.8333C321.382 46.4918 321.056 46.0389 320.825 45.4786C320.595 44.9194 320.51 44.3759 320.51 43.9095H331.425C331.425 42.1119 330.733 40.4073 329.442 39.1156L321.724 46.8333ZM320.51 43.9095V45.7795H331.425V43.9095H320.51ZM330.303 49.0945C331.078 48.0806 332.063 47.4967 333.943 47.4967V36.5822C329.002 36.5822 324.671 38.4917 321.633 42.4644L330.303 49.0945ZM333.943 47.4967C335.253 47.4967 335.993 47.7569 336.409 47.9958C336.789 48.214 337.193 48.5794 337.576 49.353L347.36 44.5159C346.129 42.0262 344.306 39.9441 341.844 38.5306C339.418 37.1378 336.703 36.5822 333.943 36.5822V47.4967ZM347.147 49.7422C347.49 49.1707 347.995 48.6559 348.821 48.2054L343.594 38.6235C341.194 39.933 339.205 41.7648 337.788 44.1267L347.147 49.7422ZM348.904 48.1593C349.689 47.7134 350.5 47.4967 351.433 47.4967V36.5822C348.625 36.5822 345.954 37.2822 343.512 38.6696L348.904 48.1593ZM351.433 47.4967C353.046 47.4967 354.011 47.9793 354.804 48.8329L362.802 41.406C359.781 38.1529 355.833 36.5822 351.433 36.5822V47.4967ZM354.804 48.8329C355.454 49.5337 356.205 50.9854 356.205 54.0845H367.12C367.12 49.3369 365.964 44.8119 362.802 41.406L354.804 48.8329ZM356.205 54.0845V69.8695H367.12V54.0845H356.205ZM356.205 69.8695C356.205 69.403 356.29 68.8595 356.52 68.3003C356.751 67.7401 357.077 67.2871 357.419 66.9456L365.137 74.6633C366.428 73.3716 367.12 71.667 367.12 69.8695H356.205ZM357.134 67.2529C357.583 66.7289 358.158 66.3119 358.801 66.047C359.42 65.792 359.969 65.7322 360.343 65.7322V76.6467C362.001 76.6467 363.963 76.0575 365.421 74.356L357.134 67.2529ZM360.343 65.7322H355.833V76.6467H360.343V65.7322ZM355.833 65.7322C356.299 65.7322 356.843 65.8167 357.402 66.047C357.962 66.2777 358.415 66.604 358.757 66.9456L351.039 74.6633C352.331 75.9551 354.035 76.6467 355.833 76.6467V65.7322ZM358.757 66.9456C359.098 67.2871 359.424 67.74 359.655 68.3003C359.885 68.8595 359.97 69.403 359.97 69.8695H349.055C349.055 71.667 349.747 73.3716 351.039 74.6633L358.757 66.9456ZM359.97 69.8695V54.5245H349.055V69.8695H359.97ZM359.97 54.5245C359.97 51.6352 359.383 48.2486 356.956 45.7313L349.099 53.3076C348.867 53.0669 348.857 52.9155 348.91 53.093C348.968 53.2894 349.055 53.7343 349.055 54.5245H359.97ZM357.091 45.8765C354.962 43.5022 352.119 42.4672 349.178 42.4672V53.3817C349.382 53.3817 349.38 53.4141 349.262 53.365C349.205 53.3417 349.143 53.3079 349.082 53.2649C349.022 53.2221 348.983 53.1836 348.964 53.1624L357.091 45.8765ZM349.178 42.4672C346.212 42.4672 343.583 43.6406 341.567 45.7288L349.419 53.3101C349.455 53.2725 349.467 53.2663 349.452 53.2771C349.436 53.2885 349.402 53.3099 349.352 53.3315C349.302 53.3532 349.253 53.3675 349.213 53.3755C349.174 53.3832 349.16 53.3817 349.178 53.3817V42.4672ZM341.499 45.8008C339.159 48.3138 338.55 51.6202 338.55 54.5245H349.465C349.465 53.7622 349.55 53.3239 349.611 53.1205C349.666 52.9362 349.669 53.0426 349.487 53.2382L341.499 45.8008ZM338.55 54.5245V69.8695H349.465V54.5245H338.55ZM338.55 69.8695C338.55 69.403 338.635 68.8595 338.865 68.3003C339.096 67.74 339.422 67.2871 339.764 66.9456L347.482 74.6633C348.773 73.3716 349.465 71.667 349.465 69.8695H338.55ZM339.764 66.9456C340.105 66.604 340.558 66.2777 341.119 66.047C341.678 65.8167 342.221 65.7322 342.688 65.7322V76.6467C344.485 76.6467 346.19 75.9551 347.482 74.6633L339.764 66.9456ZM342.688 65.7322H338.178V76.6467H342.688V65.7322ZM338.178 65.7322C338.644 65.7322 339.188 65.8167 339.747 66.047C340.307 66.2777 340.76 66.604 341.102 66.9456L333.384 74.6633C334.676 75.9551 336.38 76.6467 338.178 76.6467V65.7322ZM341.102 66.9456C341.443 67.2871 341.77 67.7401 342 68.3003C342.23 68.8595 342.315 69.403 342.315 69.8695H331.4C331.4 71.667 332.092 73.3716 333.384 74.6633L341.102 66.9456ZM342.315 69.8695V54.5245H331.4V69.8695H342.315ZM342.315 54.5245C342.315 51.5922 341.691 48.1749 339.177 45.6606L331.459 53.3783C331.227 53.1469 331.209 52.9913 331.257 53.1456C331.311 53.3229 331.4 53.7488 331.4 54.5245H342.315ZM339.312 45.8008C337.222 43.5561 334.476 42.4672 331.523 42.4672V53.3817C331.593 53.3817 331.619 53.3878 331.61 53.386C331.599 53.3839 331.563 53.3757 331.512 53.3542C331.46 53.3325 331.412 53.3052 331.372 53.2771C331.333 53.2495 331.318 53.232 331.324 53.2382L339.312 45.8008ZM331.523 42.4672C328.562 42.4672 325.903 43.6098 323.857 45.7288L331.709 53.3101C331.739 53.2785 331.747 53.2762 331.728 53.289C331.709 53.3025 331.675 53.3233 331.629 53.3431C331.582 53.3628 331.541 53.3741 331.513 53.3796C331.487 53.3848 331.487 53.3817 331.523 53.3817V42.4672ZM323.789 45.8008C321.449 48.3138 320.84 51.6202 320.84 54.5245H331.755C331.755 53.7622 331.84 53.3239 331.901 53.1205C331.956 52.9362 331.959 53.0426 331.777 53.2382L323.789 45.8008ZM320.84 54.5245V69.8695H331.755V54.5245H320.84ZM320.84 69.8695C320.84 69.403 320.925 68.8595 321.155 68.3003C321.386 67.7401 321.712 67.2871 322.054 66.9456L329.772 74.6633C331.063 73.3716 331.755 71.667 331.755 69.8695H320.84ZM322.054 66.9456C322.395 66.604 322.848 66.2777 323.409 66.047C323.968 65.8167 324.511 65.7322 324.978 65.7322V76.6467C326.775 76.6467 328.48 75.9551 329.772 74.6633L322.054 66.9456ZM324.978 65.7322H320.358V76.6467H324.978V65.7322Z" fill="#F32E7C"/>
</g>
<defs>
<filter id="filter0_f" x="0.786316" y="0.614258" width="391.521" height="102.914" filterUnits="userSpaceOnUse" color-interpolation-filters="sRGB">
<feFlood flood-opacity="0" result="BackgroundImageFix"/>
<feBlend mode="normal" in="SourceGraphic" in2="BackgroundImageFix" result="shape"/>
<feGaussianBlur stdDeviation="12.5938" result="effect1_foregroundBlur"/>
</filter>
</defs>
</svg>
