<svg width="363" height="77" viewBox="0 0 363 77" fill="none" xmlns="http://www.w3.org/2000/svg">
<g style="mix-blend-mode:hard-light" filter="url(#filter0_f)">
<path d="M16.8161 55.8595L11.7699 60.9057L11.9637 61.0995L12.1718 61.2779L16.8161 55.8595ZM16.8161 18.0745L21.8623 23.1207L21.8624 23.1207L16.8161 18.0745ZM23.8011 18.7345L17.3516 21.7895L17.4276 21.9499L17.5115 22.1064L23.8011 18.7345ZM34.4161 38.5345L28.1265 41.9064L34.3837 53.5779L40.6911 41.9334L34.4161 38.5345ZM45.1411 18.7345L51.4161 22.1334L51.4364 22.0959L51.4563 22.0582L45.1411 18.7345ZM52.0711 18.0745L47.0249 23.1207L47.0249 23.1207L52.0711 18.0745ZM52.0711 55.8595L56.7155 61.2778L56.9236 61.0995L57.1173 60.9057L52.0711 55.8595ZM45.5261 55.8045L50.5724 50.7582L50.5723 50.7582L45.5261 55.8045ZM45.1411 31.0545H52.2776L38.8208 27.7404L45.1411 31.0545ZM37.4411 45.7395L43.5851 49.37L43.6773 49.214L43.7614 49.0535L37.4411 45.7395ZM31.4461 45.7395L25.1258 49.0535L25.21 49.214L25.3021 49.37L31.4461 45.7395ZM23.7461 31.0545L30.0664 27.7404L16.6097 31.0545H23.7461ZM23.3611 55.8045L18.3149 50.7582L18.1211 50.952L17.9427 51.1601L23.3611 55.8045ZM17.8061 49.053C18.7615 49.053 20.1839 49.3469 21.4605 50.441L12.1718 61.2779C13.9616 62.812 16.0441 63.3259 17.8061 63.3259V49.053ZM21.8624 50.8132C22.4157 51.3666 22.8749 52.0521 23.1786 52.8329C23.4765 53.599 23.5676 54.3082 23.5676 54.8695H9.29466C9.29466 56.935 10.0202 59.1561 11.7699 60.9057L21.8624 50.8132ZM23.5676 54.8695V19.0645H9.29466V54.8695H23.5676ZM23.5676 19.0645C23.5676 19.6257 23.4765 20.3349 23.1786 21.101C22.8749 21.8819 22.4157 22.5674 21.8623 23.1207L11.7699 13.0282C10.0202 14.7778 9.29466 16.9989 9.29466 19.0645H23.5676ZM21.8624 23.1207C21.309 23.674 20.6235 24.1333 19.8427 24.4369C19.0765 24.7349 18.3673 24.8259 17.8061 24.8259V10.553C15.7406 10.553 13.5195 11.2786 11.7699 13.0282L21.8624 23.1207ZM17.8061 24.8259H22.1511V10.553H17.8061V24.8259ZM22.1511 24.8259C21.4347 24.8259 20.3846 24.6522 19.3227 23.9797C18.2614 23.3075 17.6568 22.4337 17.3516 21.7895L30.2506 15.6794C29.6154 14.3385 28.5709 12.9422 26.9595 11.9217C25.3476 10.9008 23.6375 10.553 22.1511 10.553V24.8259ZM17.5115 22.1064L28.1265 41.9064L40.7057 35.1625L30.0907 15.3625L17.5115 22.1064ZM40.6911 41.9334L51.4161 22.1334L38.8661 15.3355L28.1411 35.1355L40.6911 41.9334ZM51.4563 22.0582C51.1797 22.5837 50.6269 23.3591 49.647 23.9797C48.6398 24.6176 47.6006 24.8259 46.7911 24.8259V10.553C45.2483 10.553 43.5675 10.9354 42.0102 11.9217C40.4803 12.8906 39.4692 14.1885 38.8259 15.4107L51.4563 22.0582ZM46.7911 24.8259H51.0811V10.553H46.7911V24.8259ZM51.0811 24.8259C50.5199 24.8259 49.8107 24.7349 49.0445 24.4369C48.2637 24.1333 47.5782 23.674 47.0249 23.1207L57.1174 13.0282C55.3677 11.2786 53.1467 10.553 51.0811 10.553V24.8259ZM47.0249 23.1207C46.4715 22.5674 46.0123 21.8819 45.7087 21.101C45.4107 20.3349 45.3197 19.6257 45.3197 19.0645H59.5926C59.5926 16.9989 58.867 14.7778 57.1173 13.0282L47.0249 23.1207ZM45.3197 19.0645V54.8695H59.5926V19.0645H45.3197ZM45.3197 54.8695C45.3197 54.3082 45.4107 53.599 45.7087 52.8329C46.0123 52.052 46.4715 51.3665 47.0249 50.8132L57.1173 60.9057C58.867 59.1561 59.5926 56.935 59.5926 54.8695H45.3197ZM47.4268 50.4411C48.7033 49.3469 50.1257 49.053 51.0811 49.053V63.3259C52.8432 63.3259 54.9256 62.812 56.7155 61.2778L47.4268 50.4411ZM51.0811 49.053H46.4611V63.3259H51.0811V49.053ZM46.4611 49.053C47.1275 49.053 47.8904 49.1734 48.6696 49.4943C49.4502 49.8157 50.0862 50.2721 50.5724 50.7582L40.4799 60.8507C42.0901 62.4609 44.2233 63.3259 46.4611 63.3259V49.053ZM50.5723 50.7582C51.0585 51.2443 51.5149 51.8804 51.8363 52.661C52.1571 53.4402 52.2776 54.2031 52.2776 54.8695H38.0047C38.0047 57.1072 38.8697 59.2405 40.4799 60.8507L50.5723 50.7582ZM52.2776 54.8695V31.0545H38.0047V54.8695H52.2776ZM38.8208 27.7404L31.1208 42.4254L43.7614 49.0535L51.4614 34.3685L38.8208 27.7404ZM31.2971 42.1089C31.4778 41.8031 31.9115 41.191 32.7392 40.6554C33.6269 40.081 34.6344 39.813 35.5711 39.813V54.0859C39.4457 54.0859 42.1503 51.7982 43.5851 49.37L31.2971 42.1089ZM35.5711 39.813H33.3161V54.0859H35.5711V39.813ZM33.3161 39.813C34.2529 39.813 35.2603 40.081 36.148 40.6554C36.9757 41.191 37.4094 41.8031 37.5901 42.1089L25.3021 49.37C26.737 51.7982 29.4415 54.0859 33.3161 54.0859V39.813ZM37.7664 42.4254L30.0664 27.7404L17.4258 34.3685L25.1258 49.0535L37.7664 42.4254ZM16.6097 31.0545V54.8695H30.8826V31.0545H16.6097ZM16.6097 54.8695C16.6097 54.2031 16.7301 53.4402 17.0509 52.661C17.3724 51.8804 17.8287 51.2444 18.3149 50.7582L28.4074 60.8507C30.0176 59.2405 30.8826 57.1072 30.8826 54.8695H16.6097ZM17.9427 51.1601C18.5639 50.4354 19.3557 49.8605 20.2452 49.4943C21.103 49.1411 21.8751 49.053 22.4261 49.053V63.3259C24.4703 63.3259 26.94 62.5949 28.7795 60.4488L17.9427 51.1601ZM22.4261 49.053H17.8061V63.3259H22.4261V49.053ZM63.0462 53.4395L58.1225 58.6053L58.1438 58.6256L58.1653 58.6458L63.0462 53.4395ZM59.2512 44.3095L52.1166 44.4716L52.1186 44.5603L52.1228 44.6489L59.2512 44.3095ZM59.1962 41.8895L52.0616 41.7273L52.0579 41.8895L52.0616 42.0516L59.1962 41.8895ZM59.2512 39.4695L52.123 39.1267L52.1186 39.217L52.1166 39.3073L59.2512 39.4695ZM63.1012 30.3945L67.9848 35.5983L63.1012 30.3945ZM82.9012 30.3945L78.0176 35.5983H78.0176L82.9012 30.3945ZM86.7512 39.4695L79.623 39.8122L79.629 39.9373L79.6394 40.0621L86.7512 39.4695ZM86.7512 44.3095L79.6394 43.7168L79.6288 43.8432L79.6228 43.97L86.7512 44.3095ZM82.9562 53.4395L87.8371 58.6458L87.8586 58.6256L87.8799 58.6053L82.9562 53.4395ZM77.5112 49.4795L82.8718 54.1903L82.9066 54.1507L82.9409 54.1106L77.5112 49.4795ZM79.2712 44.0345L72.1702 43.3244L72.1511 43.5145L72.1423 43.7054L79.2712 44.0345ZM79.2712 39.7445L72.1423 40.0735L72.1511 40.2644L72.1702 40.4545L79.2712 39.7445ZM77.5112 34.3545L72.0815 38.9856L72.1157 39.0257L72.1505 39.0653L77.5112 34.3545ZM68.4912 34.3545L73.8518 39.0653L73.8866 39.0257L73.9209 38.9856L68.4912 34.3545ZM66.7312 39.7445L59.6023 39.4154L59.599 39.4884L59.5971 39.5615L66.7312 39.7445ZM66.6762 41.8895L59.5421 41.7065L59.5374 41.8895L59.5421 42.0724L66.6762 41.8895ZM66.7312 44.0345L59.5971 44.2174L59.599 44.2905L59.6023 44.3635L66.7312 44.0345ZM68.4912 49.4795L63.0615 54.1106L63.0957 54.1507L63.1305 54.1903L68.4912 49.4795ZM73.0012 49.603C69.9054 49.603 68.5597 48.8262 67.9271 48.2331L58.1653 58.6458C62.226 62.4527 67.517 63.8759 73.0012 63.8759V49.603ZM67.9699 48.2736C67.1964 47.5363 66.4932 46.3566 66.3796 43.97L52.1228 44.6489C52.3758 49.9623 54.2027 54.8692 58.1225 58.6053L67.9699 48.2736ZM66.3858 44.1473L66.3308 41.7273L52.0616 42.0516L52.1166 44.4716L66.3858 44.1473ZM66.3308 42.0516L66.3858 39.6316L52.1166 39.3073L52.0616 41.7273L66.3308 42.0516ZM66.3794 39.8122C66.4898 37.5152 67.1778 36.3556 67.9848 35.5983L58.2176 25.1906C54.2579 28.9066 52.3792 33.7971 52.123 39.1267L66.3794 39.8122ZM67.9848 35.5983C68.6951 34.9316 70.0541 34.1759 73.0012 34.1759V19.903C67.515 19.903 62.2739 21.384 58.2176 25.1906L67.9848 35.5983ZM73.0012 34.1759C75.9483 34.1759 77.3072 34.9316 78.0176 35.5983L87.7848 25.1906C83.7285 21.384 78.4874 19.903 73.0012 19.903V34.1759ZM78.0176 35.5983C78.8246 36.3556 79.5125 37.5152 79.623 39.8122L93.8794 39.1268C93.6232 33.7971 91.7445 28.9066 87.7848 25.1906L78.0176 35.5983ZM79.6394 40.0621C79.6384 40.0505 79.6414 40.0852 79.6457 40.1828C79.6498 40.2757 79.6541 40.4019 79.6578 40.5666C79.6654 40.8977 79.6697 41.335 79.6697 41.8895H93.9426C93.9426 40.7385 93.9276 39.6522 93.863 38.8768L79.6394 40.0621ZM79.6697 41.8895C79.6697 42.4439 79.6654 42.8812 79.6578 43.2123C79.6541 43.377 79.6498 43.5033 79.6457 43.5961C79.6414 43.6937 79.6384 43.7284 79.6394 43.7168L93.863 44.9021C93.9276 44.1267 93.9426 43.0404 93.9426 41.8895H79.6697ZM79.6228 43.97C79.5092 46.3566 78.806 47.5363 78.0325 48.2736L87.8799 58.6053C91.7997 54.8692 93.6266 49.9623 93.8796 44.6489L79.6228 43.97ZM78.0753 48.2331C77.4426 48.8262 76.097 49.603 73.0012 49.603V63.8759C78.4854 63.8759 83.7764 62.4527 87.8371 58.6458L78.0753 48.2331ZM73.0012 58.4309C76.5347 58.4309 80.1757 57.2584 82.8718 54.1903L72.1505 44.7686C72.2439 44.6623 72.3648 44.55 72.5108 44.4467C72.6567 44.3436 72.7991 44.2696 72.9219 44.2202C73.1677 44.1213 73.2376 44.158 73.0012 44.158V58.4309ZM82.9409 54.1106C85.4085 51.2176 86.2492 47.6327 86.4001 44.3635L72.1423 43.7054C72.1096 44.4141 72.0146 44.8138 71.9582 44.9883C71.9069 45.1469 71.9121 45.0469 72.0815 44.8483L82.9409 54.1106ZM86.3722 44.7445C86.4499 43.9682 86.4627 42.9035 86.4627 41.8895H72.1897C72.1897 42.3863 72.1854 42.7653 72.1783 43.0403C72.1703 43.3525 72.1615 43.4106 72.1702 43.3244L86.3722 44.7445ZM86.4627 41.8895C86.4627 40.8754 86.4499 39.8107 86.3722 39.0344L72.1702 40.4545C72.1615 40.3683 72.1703 40.4264 72.1783 40.7386C72.1854 41.0136 72.1897 41.3926 72.1897 41.8895H86.4627ZM86.4001 39.4154C86.25 36.163 85.4131 32.5354 82.8718 29.6436L72.1505 39.0653C71.9426 38.8287 71.9204 38.6887 71.9647 38.8246C72.0146 38.9775 72.1096 39.3637 72.1423 40.0735L86.4001 39.4154ZM82.9408 29.7233C80.2662 26.5875 76.6053 25.348 73.0012 25.348V39.6209C73.2132 39.6209 73.1185 39.6544 72.8528 39.5442C72.7212 39.4896 72.5747 39.4105 72.4288 39.3043C72.2832 39.1981 72.1672 39.0861 72.0815 38.9856L82.9408 29.7233ZM73.0012 25.348C69.3971 25.348 65.7362 26.5875 63.0615 29.7233L73.9209 38.9856C73.8352 39.0861 73.7192 39.1981 73.5736 39.3043C73.4277 39.4105 73.2812 39.4896 73.1496 39.5442C72.8839 39.6544 72.7891 39.6209 73.0012 39.6209V25.348ZM63.1305 29.6436C60.5892 32.5354 59.7524 36.163 59.6023 39.4154L73.8601 40.0735C73.8928 39.3637 73.9877 38.9775 74.0376 38.8246C74.082 38.6887 74.0598 38.8287 73.8518 39.0653L63.1305 29.6436ZM59.5971 39.5615L59.5421 41.7065L73.8103 42.0724L73.8653 39.9274L59.5971 39.5615ZM59.5421 42.0724L59.5971 44.2174L73.8653 43.8515L73.8103 41.7065L59.5421 42.0724ZM59.6023 44.3635C59.7532 47.6327 60.5939 51.2176 63.0615 54.1106L73.9208 44.8483C74.0903 45.0469 74.0955 45.1469 74.0442 44.9883C73.9878 44.8138 73.8928 44.4141 73.8601 43.7054L59.6023 44.3635ZM63.1305 54.1903C65.8267 57.2584 69.4677 58.4309 73.0012 58.4309V44.158C72.7648 44.158 72.8347 44.1213 73.0805 44.2202C73.2032 44.2696 73.3457 44.3436 73.4916 44.4467C73.6376 44.55 73.7585 44.6623 73.8518 44.7686L63.1305 54.1903ZM95.595 53.4395L90.6713 58.6053L90.6926 58.6256L90.7141 58.6458L95.595 53.4395ZM91.8 44.3095L84.6654 44.4716L84.6674 44.5603L84.6716 44.6489L91.8 44.3095ZM91.745 41.8895L84.6104 41.7273L84.6067 41.8895L84.6104 42.0516L91.745 41.8895ZM91.8 39.4695L84.6718 39.1267L84.6675 39.217L84.6654 39.3073L91.8 39.4695ZM95.65 30.3945L100.534 35.5983L95.65 30.3945ZM115.45 30.3945L110.566 35.5983H110.566L115.45 30.3945ZM119.3 39.4695L112.172 39.8122L112.178 39.9373L112.188 40.0621L119.3 39.4695ZM119.3 44.3095L112.188 43.7168L112.178 43.8432L112.172 43.97L119.3 44.3095ZM115.505 53.4395L120.386 58.6458L120.407 58.6256L120.429 58.6053L115.505 53.4395ZM110.06 49.4795L115.421 54.1903L115.455 54.1507L115.49 54.1106L110.06 49.4795ZM111.82 44.0345L104.719 43.3244L104.7 43.5145L104.691 43.7054L111.82 44.0345ZM111.82 39.7445L104.691 40.0735L104.7 40.2644L104.719 40.4545L111.82 39.7445ZM110.06 34.3545L104.63 38.9856L104.665 39.0257L104.699 39.0653L110.06 34.3545ZM101.04 34.3545L106.401 39.0653L106.435 39.0257L106.47 38.9856L101.04 34.3545ZM99.28 39.7445L92.1512 39.4154L92.1478 39.4884L92.1459 39.5615L99.28 39.7445ZM99.225 41.8895L92.0909 41.7065L92.0862 41.8895L92.0909 42.0724L99.225 41.8895ZM99.28 44.0345L92.1459 44.2174L92.1478 44.2905L92.1512 44.3635L99.28 44.0345ZM101.04 49.4795L95.6104 54.1106L95.6446 54.1507L95.6794 54.1903L101.04 49.4795ZM105.55 49.603C102.454 49.603 101.109 48.8262 100.476 48.2331L90.7141 58.6458C94.7748 62.4527 100.066 63.8759 105.55 63.8759V49.603ZM100.519 48.2736C99.7452 47.5363 99.042 46.3566 98.9284 43.97L84.6716 44.6489C84.9247 49.9623 86.7515 54.8692 90.6713 58.6053L100.519 48.2736ZM98.9346 44.1473L98.8796 41.7273L84.6104 42.0516L84.6654 44.4716L98.9346 44.1473ZM98.8796 42.0516L98.9346 39.6316L84.6654 39.3073L84.6104 41.7273L98.8796 42.0516ZM98.9282 39.8122C99.0387 37.5152 99.7266 36.3556 100.534 35.5983L90.7664 25.1906C86.8068 28.9066 84.928 33.7971 84.6718 39.1267L98.9282 39.8122ZM100.534 35.5983C101.244 34.9316 102.603 34.1759 105.55 34.1759V19.903C100.064 19.903 94.8227 21.384 90.7664 25.1906L100.534 35.5983ZM105.55 34.1759C108.497 34.1759 109.856 34.9316 110.566 35.5983L120.334 25.1906C116.277 21.384 111.036 19.903 105.55 19.903V34.1759ZM110.566 35.5983C111.373 36.3556 112.061 37.5152 112.172 39.8122L126.428 39.1268C126.172 33.7971 124.293 28.9066 120.334 25.1906L110.566 35.5983ZM112.188 40.0621C112.187 40.0505 112.19 40.0852 112.195 40.1828C112.199 40.2757 112.203 40.4019 112.207 40.5666C112.214 40.8977 112.219 41.335 112.219 41.8895H126.491C126.491 40.7385 126.476 39.6522 126.412 38.8768L112.188 40.0621ZM112.219 41.8895C112.219 42.4439 112.214 42.8812 112.207 43.2123C112.203 43.377 112.199 43.5033 112.195 43.5961C112.19 43.6937 112.187 43.7284 112.188 43.7168L126.412 44.9021C126.476 44.1267 126.491 43.0404 126.491 41.8895H112.219ZM112.172 43.97C112.058 46.3566 111.355 47.5363 110.581 48.2736L120.429 58.6053C124.349 54.8692 126.175 49.9623 126.428 44.6489L112.172 43.97ZM110.624 48.2331C109.991 48.8262 108.646 49.603 105.55 49.603V63.8759C111.034 63.8759 116.325 62.4527 120.386 58.6458L110.624 48.2331ZM105.55 58.4309C109.084 58.4309 112.724 57.2584 115.421 54.1903L104.699 44.7686C104.793 44.6623 104.914 44.55 105.06 44.4467C105.206 44.3436 105.348 44.2696 105.471 44.2202C105.717 44.1213 105.786 44.158 105.55 44.158V58.4309ZM115.49 54.1106C117.957 51.2176 118.798 47.6327 118.949 44.3635L104.691 43.7054C104.658 44.4141 104.563 44.8138 104.507 44.9883C104.456 45.1469 104.461 45.0469 104.63 44.8483L115.49 54.1106ZM118.921 44.7445C118.999 43.9682 119.011 42.9035 119.011 41.8895H104.739C104.739 42.3863 104.734 42.7653 104.727 43.0403C104.719 43.3525 104.71 43.4106 104.719 43.3244L118.921 44.7445ZM119.011 41.8895C119.011 40.8754 118.999 39.8107 118.921 39.0344L104.719 40.4545C104.71 40.3683 104.719 40.4264 104.727 40.7386C104.734 41.0136 104.739 41.3926 104.739 41.8895H119.011ZM118.949 39.4154C118.799 36.163 117.962 32.5354 115.421 29.6436L104.699 39.0653C104.491 38.8287 104.469 38.6887 104.514 38.8246C104.563 38.9775 104.658 39.3637 104.691 40.0735L118.949 39.4154ZM115.49 29.7233C112.815 26.5875 109.154 25.348 105.55 25.348V39.6209C105.762 39.6209 105.667 39.6544 105.402 39.5442C105.27 39.4896 105.124 39.4105 104.978 39.3043C104.832 39.1981 104.716 39.0861 104.63 38.9856L115.49 29.7233ZM105.55 25.348C101.946 25.348 98.285 26.5875 95.6104 29.7233L106.47 38.9856C106.384 39.0861 106.268 39.1981 106.122 39.3043C105.977 39.4105 105.83 39.4896 105.698 39.5442C105.433 39.6544 105.338 39.6209 105.55 39.6209V25.348ZM95.6794 29.6436C93.1381 32.5354 92.3013 36.163 92.1512 39.4154L106.409 40.0735C106.442 39.3637 106.537 38.9775 106.586 38.8246C106.631 38.6887 106.609 38.8287 106.401 39.0653L95.6794 29.6436ZM92.1459 39.5615L92.0909 41.7065L106.359 42.0724L106.414 39.9274L92.1459 39.5615ZM92.0909 42.0724L92.1459 44.2174L106.414 43.8515L106.359 41.7065L92.0909 42.0724ZM92.1512 44.3635C92.302 47.6327 93.1428 51.2176 95.6104 54.1106L106.47 44.8483C106.639 45.0469 106.644 45.1469 106.593 44.9883C106.537 44.8138 106.442 44.4141 106.409 43.7054L92.1512 44.3635ZM95.6794 54.1903C98.3756 57.2584 102.016 58.4309 105.55 58.4309V44.158C105.314 44.158 105.384 44.1213 105.629 44.2202C105.752 44.2696 105.895 44.3436 106.04 44.4467C106.186 44.55 106.307 44.6623 106.401 44.7686L95.6794 54.1903ZM133.283 55.8595L128.584 61.2302L128.786 61.4073L129.001 61.5686L133.283 55.8595ZM132.568 54.8145L125.949 57.4821L125.965 57.5208L125.981 57.5592L132.568 54.8145ZM122.283 29.2945L115.317 30.8426L115.444 31.4166L115.664 31.9621L122.283 29.2945ZM122.173 28.7995H115.037V29.5828L115.207 30.3476L122.173 28.7995ZM122.503 27.9745L127.55 33.0207L127.55 33.0207L122.503 27.9745ZM129.268 28.6345L122.572 31.1016L122.583 31.1324L122.595 31.1631L129.268 28.6345ZM136.583 47.9395L129.91 50.4681L136.583 68.08L143.257 50.4681L136.583 47.9395ZM143.898 28.6345L137.339 25.8233L137.279 25.9633L137.225 26.1058L143.898 28.6345ZM144.393 27.9195L139.749 22.5011L139.541 22.6794L139.347 22.8732L144.393 27.9195ZM150.608 27.9745L145.19 32.6188L145.547 33.0356L145.964 33.3929L150.608 27.9745ZM150.938 29.2945L157.553 31.9743L157.637 31.7652L157.709 31.5512L150.938 29.2945ZM140.598 54.8145L147.186 57.5592L147.199 57.5269L147.213 57.4943L140.598 54.8145ZM139.883 55.8595L144.165 61.5686L144.38 61.4073L144.583 61.2302L139.883 55.8595ZM134.548 49.053C134.809 49.053 136.143 49.0835 137.565 50.1503L129.001 61.5686C131.011 63.0754 133.188 63.3259 134.548 63.3259V49.053ZM137.983 50.4887C138.674 51.0939 139.011 51.7223 139.156 52.0697L125.981 57.5592C126.492 58.7866 127.306 60.1117 128.584 61.2302L137.983 50.4887ZM139.187 52.1468L128.902 26.6268L115.664 31.9621L125.949 57.4821L139.187 52.1468ZM129.25 27.7463L129.14 27.2513L115.207 30.3476L115.317 30.8426L129.25 27.7463ZM129.31 28.7995C129.31 29.4389 129.2 30.1996 128.882 30.9961C128.56 31.801 128.088 32.4824 127.55 33.0207L117.457 22.9282C115.811 24.574 115.037 26.7042 115.037 28.7995H129.31ZM127.55 33.0207C127.132 33.4381 126.546 33.8869 125.776 34.2238C124.993 34.5665 124.172 34.7259 123.383 34.7259V20.453C120.962 20.453 118.905 21.4802 117.457 22.9282L127.55 33.0207ZM123.383 34.7259H127.838V20.453H123.383V34.7259ZM127.838 34.7259C126.954 34.7259 125.7 34.4842 124.508 33.6126C123.35 32.7668 122.804 31.7328 122.572 31.1016L135.965 26.1673C135.476 24.8395 134.563 23.2829 132.929 22.0888C131.26 20.8689 129.42 20.453 127.838 20.453V34.7259ZM122.595 31.1631L129.91 50.4681L143.257 45.4108L135.942 26.1058L122.595 31.1631ZM143.257 50.4681L150.572 31.1631L137.225 26.1058L129.91 45.4108L143.257 50.4681ZM150.458 31.4456C150.172 32.1136 149.788 32.6169 149.44 32.9657L139.347 22.8732C138.558 23.662 137.845 24.642 137.339 25.8233L150.458 31.4456ZM149.038 33.3378C147.888 34.3237 146.51 34.7259 145.328 34.7259V20.453C143.414 20.453 141.412 21.0752 139.749 22.5011L149.038 33.3378ZM145.328 34.7259H149.838V20.453H145.328V34.7259ZM149.838 34.7259C148.903 34.7259 147.944 34.5113 147.059 34.0687C146.199 33.6388 145.59 33.086 145.19 32.6188L156.027 23.3301C154.681 21.7597 152.544 20.453 149.838 20.453V34.7259ZM145.964 33.3929C145.409 32.9173 144.842 32.2468 144.43 31.3636C144.016 30.4758 143.857 29.5848 143.857 28.7995H158.13C158.13 26.3285 157.047 24.0939 155.253 22.5561L145.964 33.3929ZM143.857 28.7995C143.857 28.7251 143.859 28.5475 143.887 28.3001C143.911 28.0778 143.976 27.6151 144.168 27.0377L157.709 31.5512C158.117 30.3255 158.13 29.2277 158.13 28.7995H143.857ZM144.324 26.6146L133.984 52.1346L147.213 57.4943L157.553 31.9743L144.324 26.6146ZM134.011 52.0697C134.156 51.7223 134.492 51.0939 135.184 50.4887L144.583 61.2302C145.861 60.1117 146.674 58.7866 147.186 57.5592L134.011 52.0697ZM135.601 50.1503C137.024 49.0835 138.358 49.053 138.618 49.053V63.3259C139.979 63.3259 142.156 63.0754 144.165 61.5686L135.601 50.1503ZM138.618 49.053H134.548V63.3259H138.618V49.053ZM156.175 22.4745L161.222 17.4282L161.222 17.4282L156.175 22.4745ZM156.175 16.6445L151.129 11.5982L151.129 11.5982L156.175 16.6445ZM163.05 16.6445L158.004 21.6907L158.172 21.8587L158.351 22.0152L163.05 16.6445ZM163.105 22.4745L158.059 17.4282L158.059 17.4282L163.105 22.4745ZM156.395 55.8045L161.442 50.7582V50.7582L156.395 55.8045ZM156.395 27.9745L161.442 33.0207L161.442 33.0207L156.395 27.9745ZM162.83 27.9745L157.412 32.6188L157.769 33.0356L158.186 33.3929L162.83 27.9745ZM162.83 55.8045L157.784 50.7582L157.59 50.952L157.412 51.1601L162.83 55.8045ZM157.11 15.723C157.777 15.723 158.54 15.8434 159.319 16.1643C160.099 16.4857 160.735 16.9421 161.222 17.4282L151.129 27.5207C152.739 29.1309 154.873 29.9959 157.11 29.9959V15.723ZM161.222 17.4282C161.708 17.9143 162.164 18.5504 162.486 19.331C162.806 20.1102 162.927 20.8731 162.927 21.5394H148.654C148.654 23.7772 149.519 25.9105 151.129 27.5207L161.222 17.4282ZM162.927 21.5394V17.5795H148.654V21.5394H162.927ZM162.927 17.5795C162.927 18.2458 162.806 19.0087 162.486 19.7879C162.164 20.5685 161.708 21.2045 161.222 21.6907L151.129 11.5982C149.519 13.2084 148.654 15.3417 148.654 17.5795H162.927ZM161.222 21.6907C160.735 22.1768 160.099 22.6332 159.319 22.9546C158.54 23.2755 157.777 23.3959 157.11 23.3959V9.12299C154.873 9.12299 152.739 9.988 151.129 11.5982L161.222 21.6907ZM157.11 23.3959H162.115V9.12299H157.11V23.3959ZM162.115 23.3959C161.449 23.3959 160.686 23.2755 159.907 22.9546C159.126 22.6332 158.49 22.1768 158.004 21.6907L168.097 11.5982C166.486 9.988 164.353 9.12299 162.115 9.12299V23.3959ZM158.351 22.0152C157.855 21.5808 157.321 20.9537 156.923 20.1094C156.521 19.254 156.354 18.3775 156.354 17.5795H170.627C170.627 15.0123 169.481 12.7887 167.75 11.2737L158.351 22.0152ZM156.354 17.5795V21.5394H170.627V17.5795H156.354ZM156.354 21.5394C156.354 20.8731 156.474 20.1102 156.795 19.331C157.117 18.5504 157.573 17.9143 158.059 17.4282L168.152 27.5207C169.762 25.9105 170.627 23.7772 170.627 21.5394H156.354ZM158.059 17.4282C158.612 16.8749 159.298 16.4156 160.079 16.112C160.845 15.814 161.554 15.723 162.115 15.723V29.9959C164.181 29.9959 166.402 29.2703 168.152 27.5207L158.059 17.4282ZM162.115 15.723H157.11V29.9959H162.115V15.723ZM157.33 49.053C157.997 49.053 158.76 49.1734 159.539 49.4943C160.319 49.8157 160.955 50.2721 161.442 50.7582L151.349 60.8507C152.959 62.4609 155.093 63.3259 157.33 63.3259V49.053ZM161.442 50.7582C161.928 51.2443 162.384 51.8804 162.706 52.661C163.026 53.4402 163.147 54.2031 163.147 54.8695H148.874C148.874 57.1072 149.739 59.2405 151.349 60.8507L161.442 50.7582ZM163.147 54.8695V28.9095H148.874V54.8695H163.147ZM163.147 28.9095C163.147 29.5758 163.026 30.3387 162.706 31.1179C162.384 31.8985 161.928 32.5346 161.442 33.0207L151.349 22.9282C149.739 24.5384 148.874 26.6717 148.874 28.9095H163.147ZM161.442 33.0207C160.955 33.5068 160.319 33.9632 159.539 34.2846C158.76 34.6055 157.997 34.7259 157.33 34.7259V20.453C155.093 20.453 152.959 21.318 151.349 22.9282L161.442 33.0207ZM157.33 34.7259H161.895V20.453H157.33V34.7259ZM161.895 34.7259C161.344 34.7259 160.572 34.6378 159.714 34.2846C158.825 33.9184 158.033 33.3435 157.412 32.6188L168.249 23.3301C166.409 21.184 163.94 20.453 161.895 20.453V34.7259ZM158.186 33.3929C157.461 32.7717 156.886 31.9799 156.52 31.0904C156.167 30.2326 156.079 29.4605 156.079 28.9095H170.352C170.352 26.8653 169.621 24.3955 167.475 22.556L158.186 33.3929ZM156.079 28.9095V54.8695H170.352V28.9095H156.079ZM156.079 54.8695C156.079 54.2031 156.199 53.4402 156.52 52.661C156.842 51.8804 157.298 51.2444 157.784 50.7582L167.877 60.8507C169.487 59.2405 170.352 57.1072 170.352 54.8695H156.079ZM157.412 51.1601C158.033 50.4354 158.825 49.8605 159.714 49.4943C160.572 49.1411 161.344 49.053 161.895 49.053V63.3259C163.94 63.3259 166.409 62.5949 168.249 60.4488L157.412 51.1601ZM161.895 49.053H157.33V63.3259H161.895V49.053ZM173.097 53.2195L168.051 58.2657L168.09 58.3045L168.129 58.3427L173.097 53.2195ZM169.302 43.2095L176.435 42.9656L176.434 42.9449L176.433 42.9242L169.302 43.2095ZM169.247 41.8345L162.117 41.5492L162.105 41.8345L162.117 42.1197L169.247 41.8345ZM169.302 40.4595L162.173 40.1468L162.172 40.1605L162.172 40.1742L169.302 40.4595ZM173.152 30.6145L168.145 25.5298L168.125 25.549L168.106 25.5682L173.152 30.6145ZM192.842 30.9995L187.508 35.7407L187.527 35.7612L187.545 35.7816L192.842 30.9995ZM196.032 43.6495L201.079 48.6957L201.079 48.6957L196.032 43.6495ZM176.782 44.0345V36.898H169.646V44.0345H176.782ZM176.782 44.4745H169.646V44.6042L169.651 44.7338L176.782 44.4745ZM178.432 49.5895L172.687 53.8228L172.75 53.9083L172.816 53.9918L178.432 49.5895ZM188.002 49.0945L182.479 44.5754L182.43 44.6353L182.382 44.6962L188.002 49.0945ZM188.772 48.3245L185.581 41.9414L185.336 42.064L185.101 42.205L188.772 48.3245ZM195.262 48.4895L190.216 53.5357L190.634 53.9533L191.114 54.2966L195.262 48.4895ZM194.052 52.3395L188.692 47.6286L188.687 47.6343L188.682 47.6401L194.052 52.3395ZM189.597 55.4195L192.541 61.9204L189.597 55.4195ZM188.937 39.4145V46.5509H196.074V39.4145H188.937ZM187.287 34.0245L181.73 38.5014L181.767 38.5475L181.805 38.5931L187.287 34.0245ZM178.377 34.0245L172.82 29.5475V29.5475L178.377 34.0245ZM176.782 39.4145H169.646V46.5509H176.782V39.4145ZM182.832 49.603C180.208 49.603 178.887 48.8926 178.065 48.0962L168.129 58.3427C172.148 62.2397 177.317 63.8759 182.832 63.8759V49.603ZM178.144 48.1732C177.361 47.3907 176.537 45.9619 176.435 42.9656L162.17 43.4533C162.361 49.037 164.067 54.2815 168.051 58.2657L178.144 48.1732ZM176.433 42.9242L176.378 41.5492L162.117 42.1197L162.172 43.4947L176.433 42.9242ZM176.378 42.1197L176.433 40.7447L162.172 40.1742L162.117 41.5492L176.378 42.1197ZM176.432 40.7722C176.557 37.9254 177.363 36.4965 178.199 35.6607L168.106 25.5682C164.175 29.4991 162.415 34.6335 162.173 40.1468L176.432 40.7722ZM178.16 35.6991C178.999 34.873 180.296 34.1759 182.832 34.1759V19.903C177.301 19.903 172.146 21.5893 168.145 25.5298L178.16 35.6991ZM182.832 34.1759C185.617 34.1759 186.814 34.9599 187.508 35.7407L198.176 26.2582C194.177 21.759 188.701 19.903 182.832 19.903V34.1759ZM187.545 35.7816C188.481 36.8183 189.281 38.489 189.281 41.5595H203.554C203.554 35.8299 201.97 30.4606 198.139 26.2173L187.545 35.7816ZM189.281 41.5595V42.7145H203.554V41.5595H189.281ZM189.281 42.7145C189.281 42.0481 189.401 41.2852 189.722 40.506C190.044 39.7254 190.5 39.0894 190.986 38.6032L201.079 48.6957C202.689 47.0855 203.554 44.9522 203.554 42.7145H189.281ZM190.986 38.6032C191.539 38.0499 192.225 37.5906 193.006 37.287C193.772 36.989 194.481 36.898 195.042 36.898V51.1709C197.108 51.1709 199.329 50.4453 201.079 48.6957L190.986 38.6032ZM195.042 36.898H176.782V51.1709H195.042V36.898ZM169.646 44.0345V44.4745H183.919V44.0345H169.646ZM169.651 44.7338C169.767 47.9401 170.675 51.092 172.687 53.8228L184.178 45.3561C184.136 45.3002 183.944 45.0421 183.914 44.2151L169.651 44.7338ZM172.816 53.9918C175.328 57.1974 178.912 58.7609 182.777 58.7609V44.488C182.754 44.488 182.99 44.4878 183.343 44.653C183.709 44.8245 183.946 45.0552 184.049 45.1871L172.816 53.9918ZM182.777 58.7609C187.109 58.7609 190.934 56.928 193.622 53.4927L182.382 44.6962C182.345 44.744 182.344 44.7362 182.387 44.7001C182.433 44.6623 182.504 44.6133 182.596 44.5689C182.687 44.5245 182.766 44.5012 182.814 44.4907C182.86 44.4808 182.853 44.488 182.777 44.488V58.7609ZM193.526 53.6135C193.599 53.5237 193.583 53.5516 193.489 53.6457C193.438 53.6959 193.337 53.7939 193.19 53.9168C193.051 54.0326 192.798 54.2314 192.444 54.4439L185.101 42.205C183.737 43.0232 182.793 44.1919 182.479 44.5754L193.526 53.6135ZM191.964 54.7075C191.311 55.034 190.75 55.1688 190.411 55.2286C190.064 55.2898 189.814 55.2959 189.707 55.2959V41.023C188.822 41.023 187.231 41.1164 185.581 41.9414L191.964 54.7075ZM189.707 55.2959H194.437V41.023H189.707V55.2959ZM194.437 55.2959C193.798 55.2959 193.037 55.1866 192.241 54.868C191.436 54.5461 190.754 54.074 190.216 53.5357L200.309 43.4432C198.663 41.7974 196.533 41.023 194.437 41.023V55.2959ZM191.114 54.2966C190.501 53.8587 189.8 53.1771 189.268 52.1891C188.726 51.1827 188.511 50.1375 188.511 49.2045H202.784C202.784 46.4103 201.377 44.087 199.41 42.6823L191.114 54.2966ZM188.511 49.2045C188.511 48.2094 188.806 47.5731 188.888 47.4121C188.972 47.2472 188.965 47.3175 188.692 47.6286L199.413 57.0503C200.775 55.5004 202.784 52.7727 202.784 49.2045H188.511ZM188.682 47.6401C188.525 47.8189 187.99 48.3131 186.653 48.9185L192.541 61.9204C195.091 60.7658 197.526 59.2067 199.423 57.0388L188.682 47.6401ZM186.653 48.9185C185.803 49.3034 184.586 49.603 182.832 49.603V63.8759C186.212 63.8759 189.505 63.2955 192.541 61.9204L186.653 48.9185ZM196.074 39.4145V39.2495H181.801V39.4145H196.074ZM196.074 39.2495C196.074 35.8604 195.192 32.3623 192.77 29.4558L181.805 38.5931C181.724 38.4961 181.706 38.4273 181.72 38.4697C181.739 38.5309 181.801 38.7663 181.801 39.2495H196.074ZM192.845 29.5475C190.246 26.3217 186.593 24.908 182.832 24.908V39.1809C182.958 39.1809 182.792 39.2005 182.478 39.0608C182.139 38.9102 181.878 38.6852 181.73 38.5014L192.845 29.5475ZM182.832 24.908C179.071 24.908 175.418 26.3217 172.82 29.5475L183.935 38.5014C183.787 38.6852 183.526 38.9102 183.187 39.0608C182.873 39.2005 182.706 39.1809 182.832 39.1809V24.908ZM172.82 29.5475C170.48 32.4516 169.646 35.9151 169.646 39.2495H183.919C183.919 38.7452 183.981 38.4869 184.007 38.4043C184.026 38.3395 184.016 38.4005 183.935 38.5014L172.82 29.5475ZM169.646 39.2495V39.4145H183.919V39.2495H169.646ZM176.782 46.5509H188.937V32.278H176.782V46.5509ZM203.3 55.8045L198.254 60.8507L203.3 55.8045ZM203.245 18.0745L198.199 13.0282L198.005 13.222L197.827 13.4301L203.245 18.0745ZM228.985 20.8245L224.44 26.3264L224.46 26.3424L224.479 26.3583L228.985 20.8245ZM230.855 36.4995L225.064 32.3296L225.056 32.3405L225.048 32.3515L230.855 36.4995ZM225.465 40.4045L223.113 33.667L215.006 36.4981L219.272 43.9504L225.465 40.4045ZM233.495 54.4295L239.879 51.2379L239.789 51.0581L239.689 50.8835L233.495 54.4295ZM233.275 55.8595L228.631 50.4411L228.423 50.6194L228.229 50.8132L233.275 55.8595ZM226.125 55.8045L221.426 61.1752L221.581 61.311L221.744 61.4376L226.125 55.8045ZM225.3 54.7045L231.584 51.3211L231.576 51.3069L231.569 51.2927L225.3 54.7045ZM218.205 41.6695L224.474 38.2577L222.446 34.533H218.205V41.6695ZM210.56 41.6695V34.533H203.424V41.6695H210.56ZM210.175 55.8045L205.129 50.7582L204.935 50.952L204.757 51.1601L210.175 55.8045ZM223.265 33.9695L218.578 28.588L218.535 28.6261L218.491 28.665L223.265 33.9695ZM223.265 25.3344L218.396 30.5516L218.439 30.5914L218.482 30.6304L223.265 25.3344ZM210.56 23.7945V16.658H203.424V23.7945H210.56ZM210.56 35.4545H203.424V42.5909H210.56V35.4545ZM204.235 49.053C204.902 49.053 205.665 49.1734 206.444 49.4943C207.225 49.8157 207.861 50.2721 208.347 50.7582L198.254 60.8507C199.864 62.4609 201.998 63.3259 204.235 63.3259V49.053ZM208.347 50.7582C208.833 51.2444 209.289 51.8804 209.611 52.661C209.932 53.4402 210.052 54.2031 210.052 54.8695H195.779C195.779 57.1072 196.644 59.2405 198.254 60.8507L208.347 50.7582ZM210.052 54.8695V19.0645H195.779V54.8695H210.052ZM210.052 19.0645C210.052 20.0198 209.758 21.4423 208.664 22.7188L197.827 13.4301C196.293 15.2199 195.779 17.3024 195.779 19.0645H210.052ZM208.292 23.1207C207.738 23.674 207.053 24.1333 206.272 24.4369C205.506 24.7349 204.797 24.8259 204.235 24.8259V10.553C202.17 10.553 199.949 11.2786 198.199 13.0282L208.292 23.1207ZM204.235 24.8259H218.48V10.553H204.235V24.8259ZM218.48 24.8259C221.896 24.8259 223.587 25.621 224.44 26.3264L233.531 15.3225C229.324 11.8479 224.012 10.553 218.48 10.553V24.8259ZM224.479 26.3583C225.1 26.8637 225.699 27.6391 225.699 29.7345H239.972C239.972 24.1298 238.004 18.9652 233.492 15.2906L224.479 26.3583ZM225.699 29.7345C225.699 31.1988 225.357 31.9228 225.064 32.3296L236.647 40.6693C238.994 37.4095 239.972 33.6235 239.972 29.7345H225.699ZM225.048 32.3515C224.714 32.8202 224.189 33.2912 223.113 33.667L227.818 47.1419C231.362 45.9044 234.431 43.7721 236.663 40.6474L225.048 32.3515ZM219.272 43.9504L227.302 57.9754L239.689 50.8835L231.659 36.8585L219.272 43.9504ZM227.112 57.621C226.888 57.173 226.524 56.271 226.524 55.0345H240.797C240.797 53.4312 240.323 52.1259 239.879 51.2379L227.112 57.621ZM226.524 55.0345C226.524 54.2491 226.683 53.3581 227.097 52.4703C227.509 51.5871 228.076 50.9166 228.631 50.4411L237.92 61.2778C239.714 59.74 240.797 57.5054 240.797 55.0345H226.524ZM228.229 50.8132C228.688 50.3544 229.311 49.8888 230.107 49.5475C230.911 49.2027 231.735 49.053 232.505 49.053V63.3259C234.815 63.3259 236.853 62.3739 238.322 60.9057L228.229 50.8132ZM232.505 49.053H227.5V63.3259H232.505V49.053ZM227.5 49.053C227.874 49.053 229.166 49.1284 230.507 50.1713L221.744 61.4376C223.745 62.9939 225.954 63.3259 227.5 63.3259V49.053ZM230.825 50.4337C231.11 50.6834 231.299 50.9087 231.408 51.0551C231.519 51.202 231.573 51.3005 231.584 51.3211L219.017 58.0878C219.533 59.0453 220.293 60.1839 221.426 61.1752L230.825 50.4337ZM231.569 51.2927L224.474 38.2577L211.937 45.0812L219.032 58.1162L231.569 51.2927ZM218.205 34.533H210.56V48.8059H218.205V34.533ZM203.424 41.6695V54.8695H217.697V41.6695H203.424ZM203.424 54.8695C203.424 54.2031 203.544 53.4402 203.865 52.661C204.187 51.8804 204.643 51.2444 205.129 50.7582L215.222 60.8507C216.832 59.2405 217.697 57.1072 217.697 54.8695H203.424ZM204.757 51.1601C205.378 50.4354 206.17 49.8605 207.06 49.4943C207.917 49.1411 208.689 49.053 209.24 49.053V63.3259C211.285 63.3259 213.754 62.5949 215.594 60.4488L204.757 51.1601ZM209.24 49.053H204.235V63.3259H209.24V49.053ZM218.315 42.5909C221.441 42.5909 225.117 41.904 228.04 39.2739L218.491 28.665C218.66 28.5132 218.82 28.4081 218.946 28.3397C219.07 28.2729 219.147 28.2493 219.152 28.2477C219.156 28.2466 219.095 28.2651 218.952 28.2834C218.81 28.3018 218.601 28.318 218.315 28.318V42.5909ZM227.953 39.3509C231.01 36.6884 232.107 33.0753 232.107 29.6795H217.834C217.834 29.9008 217.8 29.8018 217.912 29.5187C218.039 29.1994 218.27 28.8562 218.578 28.588L227.953 39.3509ZM232.107 29.6795C232.107 26.2733 231.008 22.711 228.049 20.0385L218.482 30.6304C218.217 30.3914 218.014 30.0848 217.901 29.7976C217.801 29.542 217.834 29.4609 217.834 29.6795H232.107ZM228.135 20.1173C225.213 17.3907 221.498 16.658 218.315 16.658V30.9309C218.591 30.9309 218.788 30.9471 218.919 30.9646C219.05 30.982 219.098 30.9986 219.083 30.9937C219.066 30.9884 218.98 30.9598 218.85 30.8873C218.718 30.8132 218.559 30.7037 218.396 30.5516L228.135 20.1173ZM218.315 16.658H210.56V30.9309H218.315V16.658ZM203.424 23.7945V35.4545H217.697V23.7945H203.424ZM210.56 42.5909H218.315V28.318H210.56V42.5909ZM241.635 53.4395L236.711 58.6053L236.733 58.6256L236.754 58.6458L241.635 53.4395ZM237.84 44.3095L230.705 44.4716L230.707 44.5603L230.712 44.6489L237.84 44.3095ZM237.785 41.8895L230.65 41.7273L230.647 41.8895L230.65 42.0516L237.785 41.8895ZM237.84 39.4695L230.712 39.1267L230.707 39.217L230.705 39.3073L237.84 39.4695ZM241.69 30.3945L246.574 35.5983L241.69 30.3945ZM261.49 30.3945L256.606 35.5983L261.49 30.3945ZM265.34 39.4695L258.212 39.8122L258.218 39.9373L258.228 40.0621L265.34 39.4695ZM265.34 44.3095L258.228 43.7168L258.218 43.8432L258.212 43.97L265.34 44.3095ZM261.545 53.4395L266.426 58.6458L266.447 58.6256L266.469 58.6053L261.545 53.4395ZM256.1 49.4795L261.461 54.1903L261.496 54.1507L261.53 54.1106L256.1 49.4795ZM257.86 44.0345L250.759 43.3244L250.74 43.5145L250.731 43.7054L257.86 44.0345ZM257.86 39.7445L250.731 40.0735L250.74 40.2644L250.759 40.4545L257.86 39.7445ZM256.1 34.3545L250.67 38.9856L250.705 39.0257L250.739 39.0653L256.1 34.3545ZM247.08 34.3545L252.441 39.0653L252.476 39.0257L252.51 38.9856L247.08 34.3545ZM245.32 39.7445L238.191 39.4154L238.188 39.4884L238.186 39.5615L245.32 39.7445ZM245.265 41.8895L238.131 41.7065L238.126 41.8895L238.131 42.0724L245.265 41.8895ZM245.32 44.0345L238.186 44.2174L238.188 44.2905L238.191 44.3635L245.32 44.0345ZM247.08 49.4795L241.65 54.1106L241.685 54.1507L241.719 54.1903L247.08 49.4795ZM251.59 49.603C248.494 49.603 247.149 48.8262 246.516 48.2331L236.754 58.6458C240.815 62.4527 246.106 63.8759 251.59 63.8759V49.603ZM246.559 48.2736C245.785 47.5363 245.082 46.3566 244.968 43.97L230.712 44.6489C230.965 49.9623 232.792 54.8692 236.711 58.6053L246.559 48.2736ZM244.975 44.1473L244.92 41.7273L230.65 42.0516L230.705 44.4716L244.975 44.1473ZM244.92 42.0516L244.975 39.6316L230.705 39.3073L230.65 41.7273L244.92 42.0516ZM244.968 39.8122C245.079 37.5152 245.767 36.3556 246.574 35.5983L236.806 25.1906C232.847 28.9066 230.968 33.7971 230.712 39.1267L244.968 39.8122ZM246.574 35.5983C247.284 34.9316 248.643 34.1759 251.59 34.1759V19.903C246.104 19.903 240.863 21.384 236.806 25.1906L246.574 35.5983ZM251.59 34.1759C254.537 34.1759 255.896 34.9316 256.606 35.5983L266.374 25.1906C262.317 21.384 257.076 19.903 251.59 19.903V34.1759ZM256.606 35.5983C257.413 36.3556 258.101 37.5152 258.212 39.8122L272.468 39.1268C272.212 33.7971 270.333 28.9066 266.374 25.1906L256.606 35.5983ZM258.228 40.0621C258.227 40.0505 258.23 40.0852 258.235 40.1828C258.239 40.2757 258.243 40.4019 258.247 40.5666C258.254 40.8977 258.259 41.335 258.259 41.8895H272.532C272.532 40.7385 272.516 39.6522 272.452 38.8768L258.228 40.0621ZM258.259 41.8895C258.259 42.4439 258.254 42.8812 258.247 43.2123C258.243 43.377 258.239 43.5033 258.235 43.5961C258.23 43.6937 258.227 43.7284 258.228 43.7168L272.452 44.9021C272.516 44.1267 272.532 43.0404 272.532 41.8895H258.259ZM258.212 43.97C258.098 46.3566 257.395 47.5363 256.621 48.2736L266.469 58.6053C270.389 54.8692 272.215 49.9623 272.468 44.6489L258.212 43.97ZM256.664 48.2331C256.031 48.8262 254.686 49.603 251.59 49.603V63.8759C257.074 63.8759 262.365 62.4527 266.426 58.6458L256.664 48.2331ZM251.59 58.4309C255.124 58.4309 258.765 57.2584 261.461 54.1903L250.739 44.7686C250.833 44.6623 250.954 44.55 251.1 44.4467C251.246 44.3436 251.388 44.2696 251.511 44.2202C251.757 44.1213 251.826 44.158 251.59 44.158V58.4309ZM261.53 54.1106C263.997 51.2176 264.838 47.6327 264.989 44.3635L250.731 43.7054C250.698 44.4141 250.603 44.8138 250.547 44.9883C250.496 45.1469 250.501 45.0469 250.67 44.8483L261.53 54.1106ZM264.961 44.7445C265.039 43.9682 265.052 42.9035 265.052 41.8895H250.779C250.779 42.3863 250.774 42.7653 250.767 43.0403C250.759 43.3525 250.75 43.4106 250.759 43.3244L264.961 44.7445ZM265.052 41.8895C265.052 40.8754 265.039 39.8107 264.961 39.0344L250.759 40.4545C250.75 40.3683 250.759 40.4264 250.767 40.7386C250.774 41.0136 250.779 41.3926 250.779 41.8895H265.052ZM264.989 39.4154C264.839 36.163 264.002 32.5354 261.461 29.6436L250.739 39.0653C250.531 38.8287 250.509 38.6887 250.554 38.8246C250.604 38.9775 250.698 39.3637 250.731 40.0735L264.989 39.4154ZM261.53 29.7233C258.855 26.5875 255.194 25.348 251.59 25.348V39.6209C251.802 39.6209 251.707 39.6544 251.442 39.5442C251.31 39.4896 251.164 39.4105 251.018 39.3043C250.872 39.1981 250.756 39.0861 250.67 38.9856L261.53 29.7233ZM251.59 25.348C247.986 25.348 244.325 26.5875 241.65 29.7233L252.51 38.9856C252.424 39.0861 252.308 39.1981 252.162 39.3043C252.017 39.4105 251.87 39.4896 251.738 39.5442C251.473 39.6544 251.378 39.6209 251.59 39.6209V25.348ZM241.719 29.6436C239.178 32.5354 238.341 36.163 238.191 39.4154L252.449 40.0735C252.482 39.3637 252.577 38.9775 252.627 38.8246C252.671 38.6887 252.649 38.8287 252.441 39.0653L241.719 29.6436ZM238.186 39.5615L238.131 41.7065L252.399 42.0724L252.454 39.9274L238.186 39.5615ZM238.131 42.0724L238.186 44.2174L252.454 43.8515L252.399 41.7065L238.131 42.0724ZM238.191 44.3635C238.342 47.6327 239.183 51.2176 241.65 54.1106L252.51 44.8483C252.679 45.0469 252.684 45.1469 252.633 44.9883C252.577 44.8138 252.482 44.4141 252.449 43.7054L238.191 44.3635ZM241.719 54.1903C244.416 57.2584 248.057 58.4309 251.59 58.4309V44.158C251.354 44.158 251.424 44.1213 251.669 44.2202C251.792 44.2696 251.935 44.3436 252.08 44.4467C252.226 44.55 252.347 44.6623 252.441 44.7686L241.719 54.1903ZM274.184 53.4395L269.26 58.6053L269.281 58.6256L269.303 58.6458L274.184 53.4395ZM270.389 44.3095L263.254 44.4716L263.256 44.5603L263.261 44.6489L270.389 44.3095ZM270.334 41.8895L263.199 41.7273L263.196 41.8895L263.199 42.0516L270.334 41.8895ZM270.389 39.4695L263.261 39.1267L263.256 39.217L263.254 39.3073L270.389 39.4695ZM274.239 30.3945L279.122 35.5983L274.239 30.3945ZM294.039 30.3945L289.155 35.5983L294.039 30.3945ZM297.889 39.4695L290.761 39.8122L290.767 39.9373L290.777 40.0621L297.889 39.4695ZM297.889 44.3095L290.777 43.7168L290.767 43.8432L290.76 43.97L297.889 44.3095ZM294.094 53.4395L298.975 58.6458L298.996 58.6256L299.018 58.6053L294.094 53.4395ZM288.649 49.4795L294.01 54.1903L294.044 54.1507L294.079 54.1106L288.649 49.4795ZM290.409 44.0345L283.308 43.3244L283.289 43.5145L283.28 43.7054L290.409 44.0345ZM290.409 39.7445L283.28 40.0735L283.289 40.2644L283.308 40.4545L290.409 39.7445ZM288.649 34.3545L283.219 38.9856L283.253 39.0257L283.288 39.0653L288.649 34.3545ZM279.629 34.3545L284.99 39.0653L285.024 39.0257L285.059 38.9856L279.629 34.3545ZM277.869 39.7445L270.74 39.4154L270.737 39.4884L270.735 39.5615L277.869 39.7445ZM277.814 41.8895L270.68 41.7065L270.675 41.8895L270.68 42.0724L277.814 41.8895ZM277.869 44.0345L270.735 44.2174L270.737 44.2905L270.74 44.3635L277.869 44.0345ZM279.629 49.4795L274.199 54.1106L274.233 54.1507L274.268 54.1903L279.629 49.4795ZM284.139 49.603C281.043 49.603 279.697 48.8262 279.065 48.2331L269.303 58.6458C273.364 62.4527 278.655 63.8759 284.139 63.8759V49.603ZM279.108 48.2736C278.334 47.5363 277.631 46.3566 277.517 43.97L263.261 44.6489C263.514 49.9623 265.34 54.8692 269.26 58.6053L279.108 48.2736ZM277.523 44.1473L277.469 41.7273L263.199 42.0516L263.254 44.4716L277.523 44.1473ZM277.469 42.0516L277.523 39.6316L263.254 39.3073L263.199 41.7273L277.469 42.0516ZM277.517 39.8122C277.628 37.5152 278.315 36.3556 279.122 35.5983L269.355 25.1906C265.396 28.9066 263.517 33.7971 263.261 39.1267L277.517 39.8122ZM279.122 35.5983C279.833 34.9316 281.192 34.1759 284.139 34.1759V19.903C278.653 19.903 273.412 21.384 269.355 25.1906L279.122 35.5983ZM284.139 34.1759C287.086 34.1759 288.445 34.9316 289.155 35.5983L298.922 25.1906C294.866 21.384 289.625 19.903 284.139 19.903V34.1759ZM289.155 35.5983C289.962 36.3556 290.65 37.5152 290.761 39.8122L305.017 39.1268C304.761 33.7971 302.882 28.9066 298.922 25.1906L289.155 35.5983ZM290.777 40.0621C290.776 40.0505 290.779 40.0852 290.783 40.1828C290.788 40.2757 290.792 40.4019 290.796 40.5666C290.803 40.8977 290.807 41.335 290.807 41.8895H305.08C305.08 40.7385 305.065 39.6522 305.001 38.8768L290.777 40.0621ZM290.807 41.8895C290.807 42.4439 290.803 42.8812 290.796 43.2123C290.792 43.377 290.788 43.5033 290.783 43.5961C290.779 43.6937 290.776 43.7284 290.777 43.7168L305.001 44.9021C305.065 44.1267 305.08 43.0404 305.08 41.8895H290.807ZM290.76 43.97C290.647 46.3566 289.944 47.5363 289.17 48.2736L299.018 58.6053C302.937 54.8692 304.764 49.9623 305.017 44.6489L290.76 43.97ZM289.213 48.2331C288.58 48.8262 287.235 49.603 284.139 49.603V63.8759C289.623 63.8759 294.914 62.4527 298.975 58.6458L289.213 48.2331ZM284.139 58.4309C287.672 58.4309 291.313 57.2584 294.01 54.1903L283.288 44.7686C283.382 44.6623 283.502 44.55 283.648 44.4467C283.794 44.3436 283.937 44.2696 284.06 44.2202C284.305 44.1213 284.375 44.158 284.139 44.158V58.4309ZM294.079 54.1106C296.546 51.2176 297.387 47.6327 297.538 44.3635L283.28 43.7054C283.247 44.4141 283.152 44.8138 283.096 44.9883C283.045 45.1469 283.05 45.0469 283.219 44.8483L294.079 54.1106ZM297.51 44.7445C297.588 43.9682 297.6 42.9035 297.6 41.8895H283.327C283.327 42.3863 283.323 42.7653 283.316 43.0403C283.308 43.3525 283.299 43.4106 283.308 43.3244L297.51 44.7445ZM297.6 41.8895C297.6 40.8754 297.588 39.8107 297.51 39.0344L283.308 40.4545C283.299 40.3683 283.308 40.4264 283.316 40.7386C283.323 41.0136 283.327 41.3926 283.327 41.8895H297.6ZM297.538 39.4154C297.388 36.163 296.551 32.5354 294.01 29.6436L283.288 39.0653C283.08 38.8287 283.058 38.6887 283.102 38.8246C283.152 38.9775 283.247 39.3637 283.28 40.0735L297.538 39.4154ZM294.079 29.7233C291.404 26.5875 287.743 25.348 284.139 25.348V39.6209C284.351 39.6209 284.256 39.6544 283.991 39.5442C283.859 39.4896 283.712 39.4105 283.567 39.3043C283.421 39.1981 283.305 39.0861 283.219 38.9856L294.079 29.7233ZM284.139 25.348C280.535 25.348 276.874 26.5875 274.199 29.7233L285.059 38.9856C284.973 39.0861 284.857 39.1981 284.711 39.3043C284.565 39.4105 284.419 39.4896 284.287 39.5442C284.022 39.6544 283.927 39.6209 284.139 39.6209V25.348ZM274.268 29.6436C271.727 32.5354 270.89 36.163 270.74 39.4154L284.998 40.0735C285.031 39.3637 285.125 38.9775 285.175 38.8246C285.22 38.6887 285.197 38.8287 284.99 39.0653L274.268 29.6436ZM270.735 39.5615L270.68 41.7065L284.948 42.0724L285.003 39.9274L270.735 39.5615ZM270.68 42.0724L270.735 44.2174L285.003 43.8515L284.948 41.7065L270.68 42.0724ZM270.74 44.3635C270.891 47.6327 271.732 51.2176 274.199 54.1106L285.059 44.8483C285.228 45.0469 285.233 45.1469 285.182 44.9883C285.126 44.8138 285.03 44.4141 284.998 43.7054L270.74 44.3635ZM274.268 54.1903C276.964 57.2584 280.605 58.4309 284.139 58.4309V44.158C283.902 44.158 283.972 44.1213 284.218 44.2202C284.341 44.2696 284.483 44.3436 284.629 44.4467C284.775 44.55 284.896 44.6623 284.99 44.7686L274.268 54.1903ZM304.423 55.8045L309.469 50.7582V50.7582L304.423 55.8045ZM304.423 27.9745L309.469 33.0207L309.469 33.0207L304.423 27.9745ZM310.583 27.9745L305.536 33.0207L305.536 33.0207L310.583 27.9745ZM310.968 30.7795H303.831V51.86L316.637 35.1145L310.968 30.7795ZM327.468 31.9345L321.07 35.0972L326.863 46.8136L333.587 35.6061L327.468 31.9345ZM331.208 28.4145L334.625 34.6795L334.679 34.6499L334.733 34.6193L331.208 28.4145ZM343.803 30.1195L349.032 25.2634L343.803 30.1195ZM346.278 55.8045L341.231 50.7582L341.038 50.952L340.859 51.1601L346.278 55.8045ZM339.898 55.8045L344.944 50.7582L344.944 50.7582L339.898 55.8045ZM338.028 34.5195L332.714 39.2834L332.801 39.3798L332.891 39.4731L338.028 34.5195ZM330.493 34.5195L325.359 29.5625L325.314 29.6091L325.27 29.6565L330.493 34.5195ZM328.623 55.8045L323.576 50.7582V50.7582L328.623 55.8045ZM320.318 34.5195L315.095 39.3824L315.181 39.4756L315.271 39.5657L320.318 34.5195ZM312.783 34.5195L307.649 29.5625L307.604 29.6091L307.56 29.6565L312.783 34.5195ZM305.358 49.053C306.024 49.053 306.787 49.1734 307.566 49.4943C308.347 49.8157 308.983 50.2721 309.469 50.7582L299.376 60.8507C300.987 62.4609 303.12 63.3259 305.358 63.3259V49.053ZM309.469 50.7582C309.955 51.2443 310.411 51.8804 310.733 52.661C311.054 53.4402 311.174 54.2031 311.174 54.8695H296.901C296.901 57.1072 297.766 59.2405 299.376 60.8507L309.469 50.7582ZM311.174 54.8695V28.9095H296.901V54.8695H311.174ZM311.174 28.9095C311.174 29.5758 311.054 30.3387 310.733 31.1179C310.411 31.8985 309.955 32.5346 309.469 33.0207L299.376 22.9282C297.766 24.5384 296.901 26.6717 296.901 28.9095H311.174ZM309.469 33.0207C308.983 33.5068 308.347 33.9632 307.566 34.2846C306.787 34.6055 306.024 34.7259 305.358 34.7259V20.453C303.12 20.453 300.987 21.318 299.376 22.9282L309.469 33.0207ZM305.358 34.7259H309.648V20.453H305.358V34.7259ZM309.648 34.7259C308.981 34.7259 308.218 34.6055 307.439 34.2846C306.659 33.9632 306.023 33.5068 305.536 33.0207L315.629 22.9282C314.019 21.318 311.885 20.453 309.648 20.453V34.7259ZM305.536 33.0207C305.05 32.5346 304.594 31.8985 304.273 31.1179C303.952 30.3387 303.831 29.5758 303.831 28.9095H318.104C318.104 26.6717 317.239 24.5384 315.629 22.9282L305.536 33.0207ZM303.831 28.9095V30.7795H318.104V28.9095H303.831ZM316.637 35.1145C317.064 34.5558 317.534 34.1759 318.943 34.1759V19.903C313.532 19.903 308.685 22.0165 305.299 26.4444L316.637 35.1145ZM318.943 34.1759C320.029 34.1759 320.466 34.3906 320.573 34.452C320.633 34.4863 320.818 34.5876 321.07 35.0972L333.865 28.7717C332.504 26.018 330.462 23.6718 327.68 22.0744C324.945 20.5041 321.926 19.903 318.943 19.903V34.1759ZM333.587 35.6061C333.765 35.3101 334.041 34.9979 334.625 34.6795L327.79 22.1494C325.148 23.591 322.931 25.6255 321.348 28.2628L333.587 35.6061ZM334.733 34.6193C335.263 34.3182 335.789 34.1759 336.433 34.1759V19.903C333.337 19.903 330.379 20.6774 327.682 22.2096L334.733 34.6193ZM336.433 34.1759C337.617 34.1759 338.123 34.4911 338.573 34.9755L349.032 25.2634C345.669 21.6412 341.262 19.903 336.433 19.903V34.1759ZM338.573 34.9755C338.838 35.2602 339.526 36.239 339.526 39.0845H353.799C353.799 34.0833 352.581 29.0854 349.032 25.2634L338.573 34.9755ZM339.526 39.0845V54.8695H353.799V39.0845H339.526ZM339.526 54.8695C339.526 54.2031 339.647 53.4402 339.968 52.661C340.289 51.8804 340.745 51.2444 341.231 50.7582L351.324 60.8507C352.934 59.2405 353.799 57.1072 353.799 54.8695H339.526ZM340.859 51.1601C341.48 50.4354 342.272 49.8605 343.162 49.4943C344.02 49.1411 344.792 49.053 345.343 49.053V63.3259C347.387 63.3259 349.857 62.5949 351.696 60.4488L340.859 51.1601ZM345.343 49.053H340.833V63.3259H345.343V49.053ZM340.833 49.053C341.499 49.053 342.262 49.1734 343.041 49.4943C343.822 49.8157 344.458 50.2721 344.944 50.7582L334.851 60.8507C336.462 62.4609 338.595 63.3259 340.833 63.3259V49.053ZM344.944 50.7582C345.43 51.2443 345.886 51.8804 346.208 52.661C346.529 53.4402 346.649 54.2031 346.649 54.8695H332.376C332.376 57.1072 333.241 59.2405 334.852 60.8507L344.944 50.7582ZM346.649 54.8695V39.5245H332.376V54.8695H346.649ZM346.649 39.5245C346.649 36.4569 346.034 32.5417 343.165 29.5658L332.891 39.4731C332.435 39.0005 332.307 38.5952 332.3 38.5706C332.297 38.5606 332.317 38.6279 332.338 38.7934C332.359 38.9584 332.376 39.1982 332.376 39.5245H346.649ZM343.341 29.7555C340.851 26.9779 337.527 25.788 334.178 25.788V40.0609C334.197 40.0609 333.971 40.0623 333.619 39.9163C333.246 39.7616 332.93 39.5239 332.714 39.2834L343.341 29.7555ZM334.178 25.788C330.74 25.788 327.679 27.159 325.359 29.5625L335.627 39.4764C335.555 39.5511 335.355 39.7271 335.019 39.8725C334.678 40.02 334.37 40.0609 334.178 40.0609V25.788ZM325.27 29.6565C322.515 32.6156 321.871 36.4261 321.871 39.5245H336.144C336.144 39.2119 336.161 38.9813 336.181 38.8221C336.201 38.6626 336.222 38.5943 336.221 38.5981C336.219 38.6034 336.192 38.6937 336.113 38.8388C336.032 38.9876 335.905 39.1797 335.716 39.3824L325.27 29.6565ZM321.871 39.5245V54.8695H336.144V39.5245H321.871ZM321.871 54.8695C321.871 54.2031 321.992 53.4402 322.313 52.661C322.634 51.8804 323.09 51.2443 323.576 50.7582L333.669 60.8507C335.279 59.2405 336.144 57.1072 336.144 54.8695H321.871ZM323.576 50.7582C324.063 50.2721 324.699 49.8157 325.479 49.4943C326.258 49.1734 327.021 49.053 327.688 49.053V63.3259C329.925 63.3259 332.059 62.4609 333.669 60.8507L323.576 50.7582ZM327.688 49.053H323.178V63.3259H327.688V49.053ZM323.178 49.053C323.844 49.053 324.607 49.1734 325.386 49.4943C326.167 49.8157 326.803 50.2721 327.289 50.7582L317.196 60.8507C318.807 62.4609 320.94 63.3259 323.178 63.3259V49.053ZM327.289 50.7582C327.775 51.2444 328.231 51.8804 328.553 52.661C328.874 53.4402 328.994 54.2031 328.994 54.8695H314.721C314.721 57.1072 315.586 59.2405 317.196 60.8507L327.289 50.7582ZM328.994 54.8695V39.5245H314.721V54.8695H328.994ZM328.994 39.5245C328.994 36.4007 328.336 32.4453 325.364 29.4732L315.271 39.5657C315.05 39.3441 314.896 39.1265 314.795 38.9504C314.697 38.7787 314.659 38.6633 314.652 38.6394C314.645 38.6173 314.664 38.672 314.684 38.8255C314.703 38.9786 314.721 39.2076 314.721 39.5245H328.994ZM325.541 29.6565C323.113 27.0484 319.91 25.788 316.523 25.788V40.0609C316.459 40.0609 316.205 40.0467 315.861 39.9022C315.508 39.7537 315.247 39.546 315.095 39.3824L325.541 29.6565ZM316.523 25.788C313.103 25.788 310.008 27.1186 307.649 29.5625L317.917 39.4764C317.828 39.5686 317.618 39.7464 317.287 39.8876C316.955 40.0294 316.672 40.0609 316.523 40.0609V25.788ZM307.56 29.6565C304.805 32.6156 304.161 36.4261 304.161 39.5245H318.434C318.434 39.2119 318.451 38.9813 318.471 38.8221C318.491 38.6626 318.512 38.5943 318.511 38.5981C318.509 38.6034 318.482 38.6937 318.403 38.8388C318.322 38.9876 318.194 39.1797 318.006 39.3824L307.56 29.6565ZM304.161 39.5245V54.8695H318.434V39.5245H304.161ZM304.161 54.8695C304.161 54.2031 304.282 53.4402 304.603 52.661C304.924 51.8804 305.38 51.2444 305.866 50.7582L315.959 60.8507C317.569 59.2405 318.434 57.1072 318.434 54.8695H304.161ZM305.866 50.7582C306.353 50.2721 306.989 49.8157 307.769 49.4943C308.548 49.1734 309.311 49.053 309.978 49.053V63.3259C312.215 63.3259 314.349 62.4609 315.959 60.8507L305.866 50.7582ZM309.978 49.053H305.358V63.3259H309.978V49.053Z" fill="#FF26C2"/>
</g>
<defs>
<filter id="filter0_f" x="0.898845" y="0.727214" width="361.296" height="75.7487" filterUnits="userSpaceOnUse" color-interpolation-filters="sRGB">
<feFlood flood-opacity="0" result="BackgroundImageFix"/>
<feBlend mode="normal" in="SourceGraphic" in2="BackgroundImageFix" result="shape"/>
<feGaussianBlur stdDeviation="4.19792" result="effect1_foregroundBlur"/>
</filter>
</defs>
</svg>
