<svg width="364" height="75" viewBox="0 0 364 75" fill="none" xmlns="http://www.w3.org/2000/svg">
<g style="mix-blend-mode:hard-light" filter="url(#filter0_ddi)">
<path d="M16.8161 47.8595L12.9572 51.7183L13.1054 51.8665L13.2646 52.0029L16.8161 47.8595ZM16.8161 10.0745L20.675 13.9333L20.675 13.9333L16.8161 10.0745ZM23.8011 10.7345L18.8692 13.0706L18.9273 13.1933L18.9914 13.313L23.8011 10.7345ZM34.4161 30.5345L29.6064 33.113L34.3914 42.0383L39.2147 33.1337L34.4161 30.5345ZM45.1411 10.7345L49.9397 13.3337L49.9552 13.305L49.9704 13.2762L45.1411 10.7345ZM52.0711 10.0745L48.2122 13.9333L48.2122 13.9334L52.0711 10.0745ZM52.0711 47.8595L55.6227 52.0029L55.7818 51.8665L55.93 51.7183L52.0711 47.8595ZM45.5261 47.8045L49.385 43.9456L49.385 43.9456L45.5261 47.8045ZM45.1411 23.0545H50.5984L40.3079 20.5202L45.1411 23.0545ZM37.4411 37.7395L42.1394 40.5157L42.2099 40.3964L42.2743 40.2737L37.4411 37.7395ZM31.4461 37.7395L26.6129 40.2737L26.6773 40.3964L26.7478 40.5157L31.4461 37.7395ZM23.7461 23.0545L28.5793 20.5202L18.2888 23.0545H23.7461ZM23.3611 47.8045L19.5022 43.9456L19.354 44.0938L19.2176 44.2529L23.3611 47.8045ZM17.8061 42.7322C18.4418 42.7322 19.4519 42.931 20.3677 43.716L13.2646 52.0029C14.6937 53.2279 16.3638 53.6467 17.8061 53.6467V42.7322ZM20.675 44.0006C21.0679 44.3935 21.3965 44.8832 21.6136 45.4415C21.8263 45.9885 21.8884 46.4877 21.8884 46.8695H10.9738C10.9738 48.5439 11.5589 50.32 12.9572 51.7183L20.675 44.0006ZM21.8884 46.8695V11.0645H10.9738V46.8695H21.8884ZM21.8884 11.0645C21.8884 11.4462 21.8263 11.9454 21.6136 12.4924C21.3965 13.0507 21.0679 13.5404 20.675 13.9333L12.9572 6.21556C11.5589 7.61391 10.9738 9.39002 10.9738 11.0645H21.8884ZM20.675 13.9333C20.2821 14.3263 19.7924 14.6548 19.2341 14.8719C18.687 15.0847 18.1878 15.1467 17.8061 15.1467V4.23216C16.1317 4.23216 14.3556 4.81722 12.9572 6.21557L20.675 13.9333ZM17.8061 15.1467H22.1511V4.23216H17.8061V15.1467ZM22.1511 15.1467C21.6938 15.1467 20.9685 15.0344 20.2212 14.5611C19.4743 14.0881 19.0637 13.4813 18.8692 13.0706L28.7331 8.39826C28.2085 7.29089 27.358 6.16166 26.061 5.34028C24.7637 4.51864 23.3784 4.23216 22.1511 4.23216V15.1467ZM18.9914 13.313L29.6064 33.113L39.2258 27.9559L28.6108 8.15592L18.9914 13.313ZM39.2147 33.1337L49.9397 13.3337L40.3426 8.13523L29.6176 27.9352L39.2147 33.1337ZM49.9704 13.2762C49.802 13.5961 49.4332 14.1275 48.7485 14.5611C48.043 15.008 47.3238 15.1467 46.7911 15.1467V4.23216C45.5251 4.23216 44.1642 4.54512 42.9087 5.34027C41.6741 6.12221 40.8469 7.17617 40.3119 8.19274L49.9704 13.2762ZM46.7911 15.1467H51.0811V4.23216H46.7911V15.1467ZM51.0811 15.1467C50.6994 15.1467 50.2002 15.0847 49.6531 14.8719C49.0949 14.6548 48.6052 14.3263 48.2122 13.9333L55.93 6.21558C54.5317 4.81721 52.7556 4.23216 51.0811 4.23216V15.1467ZM48.2122 13.9334C47.8193 13.5404 47.4908 13.0507 47.2736 12.4924C47.0609 11.9454 46.9988 11.4462 46.9988 11.0645H57.9134C57.9134 9.39002 57.3284 7.6139 55.93 6.21555L48.2122 13.9334ZM46.9988 11.0645V46.8695H57.9134V11.0645H46.9988ZM46.9988 46.8695C46.9988 46.4877 47.0609 45.9885 47.2736 45.4415C47.4908 44.8832 47.8193 44.3935 48.2122 44.0006L55.93 51.7183C57.3284 50.32 57.9134 48.5439 57.9134 46.8695H46.9988ZM48.5195 43.716C49.4353 42.931 50.4454 42.7322 51.0811 42.7322V53.6467C52.5235 53.6467 54.1936 53.2279 55.6227 52.0029L48.5195 43.716ZM51.0811 42.7322H46.4611V53.6467H51.0811V42.7322ZM46.4611 42.7322C46.9276 42.7322 47.471 42.8167 48.0302 43.047C48.5905 43.2777 49.0435 43.604 49.385 43.9456L41.6672 51.6633C42.959 52.9551 44.6636 53.6467 46.4611 53.6467V42.7322ZM49.385 43.9456C49.7266 44.2871 50.0529 44.74 50.2836 45.3003C50.5139 45.8595 50.5984 46.403 50.5984 46.8695H39.6838C39.6838 48.667 40.3755 50.3716 41.6672 51.6633L49.385 43.9456ZM50.5984 46.8695V23.0545H39.6838V46.8695H50.5984ZM40.3079 20.5202L32.6079 35.2052L42.2743 40.2737L49.9743 25.5887L40.3079 20.5202ZM32.7428 34.9632C32.8249 34.8242 33.0918 34.4273 33.6514 34.0652C34.2569 33.6734 34.9454 33.4922 35.5711 33.4922V44.4067C38.7152 44.4067 40.9301 42.5624 42.1394 40.5157L32.7428 34.9632ZM35.5711 33.4922H33.3161V44.4067H35.5711V33.4922ZM33.3161 33.4922C33.9419 33.4922 34.6303 33.6734 35.2358 34.0652C35.7954 34.4273 36.0623 34.8242 36.1444 34.9632L26.7478 40.5157C27.9572 42.5624 30.172 44.4067 33.3161 44.4067V33.4922ZM36.2793 35.2052L28.5793 20.5202L18.9129 25.5887L26.6129 40.2737L36.2793 35.2052ZM18.2888 23.0545V46.8695H29.2034V23.0545H18.2888ZM18.2888 46.8695C18.2888 46.403 18.3734 45.8595 18.6036 45.3003C18.8343 44.7401 19.1607 44.2871 19.5022 43.9456L27.22 51.6633C28.5117 50.3716 29.2034 48.667 29.2034 46.8695H18.2888ZM19.2176 44.2529C19.6668 43.7289 20.241 43.3119 20.8845 43.047C21.5038 42.792 22.0522 42.7322 22.4261 42.7322V53.6467C24.0842 53.6467 26.0462 53.0575 27.5046 51.356L19.2176 44.2529ZM22.4261 42.7322H17.8061V53.6467H22.4261V42.7322ZM63.0462 45.4395L59.281 49.3898L59.2973 49.4053L59.3137 49.4207L63.0462 45.4395ZM59.2512 36.3095L53.7953 36.4334L53.7969 36.5013L53.8001 36.569L59.2512 36.3095ZM59.1962 33.8895L53.7403 33.7655L53.7375 33.8895L53.7403 34.0135L59.1962 33.8895ZM59.2512 31.4695L53.8002 31.2074L53.7969 31.2764L53.7953 31.3455L59.2512 31.4695ZM63.1012 22.3945L66.8357 26.3738L63.1012 22.3945ZM82.9012 22.3945L79.1667 26.3738V26.3738L82.9012 22.3945ZM86.7512 31.4695L81.3002 31.7315L81.3048 31.8272L81.3128 31.9227L86.7512 31.4695ZM86.7512 36.3095L81.3128 35.8562L81.3047 35.9529L81.3001 36.0499L86.7512 36.3095ZM82.9562 45.4395L86.6887 49.4207L86.7051 49.4053L86.7214 49.3898L82.9562 45.4395ZM77.5112 41.4795L81.6105 45.0819L81.6371 45.0516L81.6633 45.0209L77.5112 41.4795ZM79.2712 36.0345L73.841 35.4914L73.8264 35.6369L73.8197 35.7828L79.2712 36.0345ZM79.2712 31.7445L73.8197 31.9961L73.8264 32.142L73.841 32.2875L79.2712 31.7445ZM77.5112 26.3545L73.3591 29.8959L73.3853 29.9266L73.4119 29.9569L77.5112 26.3545ZM68.4912 26.3545L72.5905 29.9569L72.6171 29.9266L72.6433 29.8959L68.4912 26.3545ZM66.7312 31.7445L61.2797 31.4928L61.2771 31.5487L61.2757 31.6046L66.7312 31.7445ZM66.6762 33.8895L61.2207 33.7496L61.2171 33.8895L61.2207 34.0293L66.6762 33.8895ZM66.7312 36.0345L61.2757 36.1743L61.2771 36.2302L61.2797 36.2861L66.7312 36.0345ZM68.4912 41.4795L64.3391 45.0209L64.3653 45.0516L64.3919 45.0819L68.4912 41.4795ZM73.0012 43.2822C69.6244 43.2822 67.8146 42.4294 66.7787 41.4582L59.3137 49.4207C62.9711 52.8496 67.798 54.1967 73.0012 54.1967V43.2822ZM66.8114 41.4891C65.6677 40.399 64.8324 38.7808 64.7023 36.0499L53.8001 36.569C54.0367 41.5381 55.7313 46.0065 59.281 49.3898L66.8114 41.4891ZM64.7071 36.1855L64.6521 33.7655L53.7403 34.0135L53.7953 36.4334L64.7071 36.1855ZM64.6521 34.0135L64.7071 31.5934L53.7953 31.3455L53.7403 33.7655L64.6521 34.0135ZM64.7022 31.7315C64.8298 29.0778 65.6578 27.4792 66.8357 26.3738L59.3667 18.4151C55.7779 21.783 54.0393 26.2345 53.8002 31.2074L64.7022 31.7315ZM66.8357 26.3738C67.9397 25.3378 69.7554 24.4967 73.0012 24.4967V13.5822C67.8137 13.5822 63.0293 14.9778 59.3667 18.4151L66.8357 26.3738ZM73.0012 24.4967C76.247 24.4967 78.0627 25.3378 79.1667 26.3738L86.6357 18.4151C82.973 14.9778 78.1887 13.5822 73.0012 13.5822V24.4967ZM79.1667 26.3738C80.3446 27.4792 81.1726 29.0778 81.3002 31.7315L92.2022 31.2074C91.9631 26.2345 90.2245 21.783 86.6357 18.4151L79.1667 26.3738ZM81.3128 31.9227C81.328 32.1061 81.3489 32.699 81.3489 33.8895H92.2635C92.2635 32.7332 92.2477 31.7128 92.1896 31.0162L81.3128 31.9227ZM81.3489 33.8895C81.3489 35.0799 81.328 35.6728 81.3128 35.8562L92.1896 36.7627C92.2477 36.0661 92.2635 35.0457 92.2635 33.8895H81.3489ZM81.3001 36.0499C81.17 38.7808 80.3347 40.399 79.191 41.4891L86.7214 49.3898C90.271 46.0065 91.9657 41.5381 92.2023 36.569L81.3001 36.0499ZM79.2237 41.4582C78.1878 42.4294 76.378 43.2822 73.0012 43.2822V54.1967C78.2044 54.1967 83.0313 52.8496 86.6887 49.4207L79.2237 41.4582ZM73.0012 48.7517C76.1606 48.7517 79.2985 47.7128 81.6105 45.0819L73.4119 37.877C73.4207 37.867 73.4441 37.8433 73.4803 37.8177C73.5164 37.7922 73.5434 37.7802 73.5488 37.778C73.5599 37.7735 73.4106 37.8372 73.0012 37.8372V48.7517ZM81.6633 45.0209C83.8005 42.5153 84.5814 39.3469 84.7227 36.2861L73.8197 35.7828C73.7818 36.6051 73.6681 37.1577 73.5559 37.5047C73.5013 37.6738 73.4504 37.7837 73.4153 37.8489C73.3809 37.9126 73.3598 37.9372 73.3591 37.938L81.6633 45.0209ZM84.7014 36.5775C84.7694 35.8975 84.7835 34.9151 84.7835 33.8895H73.8689C73.8689 34.3945 73.8645 34.7889 73.8569 35.0833C73.8487 35.4062 73.8387 35.5142 73.841 35.4914L84.7014 36.5775ZM84.7835 33.8895C84.7835 32.8638 84.7694 31.8814 84.7014 31.2014L73.841 32.2875C73.8387 32.2647 73.8487 32.3727 73.8569 32.6956C73.8645 32.99 73.8689 33.3844 73.8689 33.8895H84.7835ZM84.7227 31.4928C84.582 28.4449 83.8041 25.2481 81.6105 22.752L73.4119 29.9569C73.345 29.8808 73.7404 30.2773 73.8197 31.9961L84.7227 31.4928ZM81.6633 22.813C79.3678 20.1217 76.2145 19.0272 73.0012 19.0272V29.9417C73.392 29.9417 73.5223 30.004 73.496 29.9931C73.4838 29.988 73.4537 29.9734 73.4176 29.9471C73.3817 29.9209 73.3621 29.8994 73.3591 29.8959L81.6633 22.813ZM73.0012 19.0272C69.7879 19.0272 66.6346 20.1217 64.3391 22.813L72.6433 29.8959C72.6403 29.8994 72.6207 29.9209 72.5848 29.9471C72.5487 29.9734 72.5186 29.988 72.5064 29.9931C72.4801 30.004 72.6104 29.9417 73.0012 29.9417V19.0272ZM64.3919 22.752C62.1983 25.2481 61.4204 28.4449 61.2797 31.4928L72.1827 31.9961C72.262 30.2773 72.6574 29.8808 72.5905 29.9569L64.3919 22.752ZM61.2757 31.6046L61.2207 33.7496L72.1317 34.0293L72.1867 31.8843L61.2757 31.6046ZM61.2207 34.0293L61.2757 36.1743L72.1867 35.8946L72.1317 33.7496L61.2207 34.0293ZM61.2797 36.2861C61.421 39.3469 62.2019 42.5153 64.3391 45.0209L72.6433 37.938C72.6426 37.9372 72.6215 37.9126 72.5871 37.8489C72.552 37.7837 72.5011 37.6738 72.4465 37.5047C72.3343 37.1577 72.2206 36.6051 72.1827 35.7828L61.2797 36.2861ZM64.3919 45.0819C66.7039 47.7128 69.8418 48.7517 73.0012 48.7517V37.8372C72.5918 37.8372 72.4425 37.7735 72.4536 37.778C72.459 37.7802 72.486 37.7922 72.5221 37.8177C72.5582 37.8433 72.5817 37.867 72.5905 37.877L64.3919 45.0819ZM95.595 45.4395L91.8298 49.3898L91.8461 49.4053L91.8626 49.4207L95.595 45.4395ZM91.8 36.3095L86.3441 36.4334L86.3457 36.5013L86.3489 36.569L91.8 36.3095ZM91.745 33.8895L86.2891 33.7655L86.2863 33.8895L86.2891 34.0135L91.745 33.8895ZM91.8 31.4695L86.349 31.2074L86.3457 31.2764L86.3441 31.3455L91.8 31.4695ZM95.65 22.3945L99.3845 26.3738L95.65 22.3945ZM115.45 22.3945L111.716 26.3738V26.3738L115.45 22.3945ZM119.3 31.4695L113.849 31.7315L113.854 31.8272L113.862 31.9227L119.3 31.4695ZM119.3 36.3095L113.862 35.8562L113.854 35.9529L113.849 36.0499L119.3 36.3095ZM115.505 45.4395L119.237 49.4207L119.254 49.4053L119.27 49.3898L115.505 45.4395ZM110.06 41.4795L114.159 45.0819L114.186 45.0516L114.212 45.0209L110.06 41.4795ZM111.82 36.0345L106.39 35.4914L106.375 35.6369L106.369 35.7828L111.82 36.0345ZM111.82 31.7445L106.369 31.9961L106.375 32.142L106.39 32.2875L111.82 31.7445ZM110.06 26.3545L105.908 29.8959L105.934 29.9266L105.961 29.9569L110.06 26.3545ZM101.04 26.3545L105.139 29.9569L105.166 29.9266L105.192 29.8959L101.04 26.3545ZM99.28 31.7445L93.8285 31.4928L93.826 31.5487L93.8245 31.6046L99.28 31.7445ZM99.225 33.8895L93.7695 33.7496L93.7659 33.8895L93.7695 34.0293L99.225 33.8895ZM99.28 36.0345L93.8245 36.1743L93.826 36.2302L93.8285 36.2861L99.28 36.0345ZM101.04 41.4795L96.8879 45.0209L96.9141 45.0516L96.9407 45.0819L101.04 41.4795ZM105.55 43.2822C102.173 43.2822 100.363 42.4294 99.3275 41.4582L91.8626 49.4207C95.5199 52.8496 100.347 54.1967 105.55 54.1967V43.2822ZM99.3602 41.4891C98.2165 40.399 97.3812 38.7808 97.2511 36.0499L86.3489 36.569C86.5855 41.5381 88.2802 46.0065 91.8298 49.3898L99.3602 41.4891ZM97.2559 36.1855L97.2009 33.7655L86.2891 34.0135L86.3441 36.4334L97.2559 36.1855ZM97.2009 34.0135L97.2559 31.5934L86.3441 31.3455L86.2891 33.7655L97.2009 34.0135ZM97.251 31.7315C97.3786 29.0778 98.2066 27.4792 99.3845 26.3738L91.9155 18.4151C88.3267 21.783 86.5881 26.2345 86.349 31.2074L97.251 31.7315ZM99.3845 26.3738C100.489 25.3378 102.304 24.4967 105.55 24.4967V13.5822C100.363 13.5822 95.5782 14.9778 91.9155 18.4151L99.3845 26.3738ZM105.55 24.4967C108.796 24.4967 110.612 25.3378 111.716 26.3738L119.185 18.4151C115.522 14.9778 110.738 13.5822 105.55 13.5822V24.4967ZM111.716 26.3738C112.893 27.4792 113.721 29.0778 113.849 31.7315L124.751 31.2074C124.512 26.2345 122.773 21.783 119.185 18.4151L111.716 26.3738ZM113.862 31.9227C113.877 32.1061 113.898 32.699 113.898 33.8895H124.812C124.812 32.7332 124.797 31.7128 124.738 31.0162L113.862 31.9227ZM113.898 33.8895C113.898 35.0799 113.877 35.6728 113.862 35.8562L124.738 36.7627C124.797 36.0661 124.812 35.0457 124.812 33.8895H113.898ZM113.849 36.0499C113.719 38.7808 112.883 40.399 111.74 41.4891L119.27 49.3898C122.82 46.0065 124.515 41.5381 124.751 36.569L113.849 36.0499ZM111.773 41.4582C110.737 42.4294 108.927 43.2822 105.55 43.2822V54.1967C110.753 54.1967 115.58 52.8496 119.237 49.4207L111.773 41.4582ZM105.55 48.7517C108.709 48.7517 111.847 47.7128 114.159 45.0819L105.961 37.877C105.97 37.867 105.993 37.8433 106.029 37.8177C106.065 37.7922 106.092 37.7802 106.098 37.778C106.109 37.7735 105.959 37.8372 105.55 37.8372V48.7517ZM114.212 45.0209C116.349 42.5153 117.13 39.3469 117.272 36.2861L106.369 35.7828C106.331 36.6051 106.217 37.1577 106.105 37.5047C106.05 37.6738 105.999 37.7837 105.964 37.8489C105.93 37.9126 105.909 37.9372 105.908 37.938L114.212 45.0209ZM117.25 36.5775C117.318 35.8975 117.332 34.9151 117.332 33.8895H106.418C106.418 34.3945 106.413 34.7889 106.406 35.0833C106.397 35.4062 106.388 35.5142 106.39 35.4914L117.25 36.5775ZM117.332 33.8895C117.332 32.8638 117.318 31.8814 117.25 31.2014L106.39 32.2875C106.388 32.2647 106.397 32.3727 106.406 32.6956C106.413 32.99 106.418 33.3844 106.418 33.8895H117.332ZM117.272 31.4928C117.131 28.4449 116.353 25.2481 114.159 22.752L105.961 29.9569C105.894 29.8808 106.289 30.2773 106.369 31.9961L117.272 31.4928ZM114.212 22.813C111.917 20.1217 108.763 19.0272 105.55 19.0272V29.9417C105.941 29.9417 106.071 30.004 106.045 29.9931C106.033 29.988 106.002 29.9734 105.966 29.9471C105.931 29.9209 105.911 29.8994 105.908 29.8959L114.212 22.813ZM105.55 19.0272C102.337 19.0272 99.1834 20.1217 96.8879 22.813L105.192 29.8959C105.189 29.8994 105.17 29.9209 105.134 29.9471C105.098 29.9734 105.067 29.988 105.055 29.9931C105.029 30.004 105.159 29.9417 105.55 29.9417V19.0272ZM96.9407 22.752C94.7472 25.2481 93.9692 28.4449 93.8285 31.4928L104.732 31.9961C104.811 30.2773 105.206 29.8808 105.139 29.9569L96.9407 22.752ZM93.8245 31.6046L93.7695 33.7496L104.681 34.0293L104.736 31.8843L93.8245 31.6046ZM93.7695 34.0293L93.8245 36.1743L104.736 35.8946L104.681 33.7496L93.7695 34.0293ZM93.8285 36.2861C93.9698 39.3469 94.7507 42.5153 96.8879 45.0209L105.192 37.938C105.191 37.9372 105.17 37.9126 105.136 37.8489C105.101 37.7837 105.05 37.6738 104.995 37.5047C104.883 37.1577 104.769 36.6051 104.732 35.7828L93.8285 36.2861ZM96.9407 45.0819C99.2527 47.7128 102.391 48.7517 105.55 48.7517V37.8372C105.141 37.8372 104.991 37.7735 105.002 37.778C105.008 37.7802 105.035 37.7922 105.071 37.8177C105.107 37.8433 105.131 37.867 105.139 37.877L96.9407 45.0819ZM133.283 47.8595L129.69 51.9665L129.844 52.1019L130.009 52.2253L133.283 47.8595ZM132.568 46.8145L127.507 48.8544L127.519 48.884L127.531 48.9134L132.568 46.8145ZM122.283 21.2945L116.956 22.4783L117.054 22.9173L117.222 23.3344L122.283 21.2945ZM122.173 20.7995H116.716V21.3985L116.846 21.9833L122.173 20.7995ZM122.503 19.9745L126.362 23.8333L126.362 23.8333L122.503 19.9745ZM129.268 20.6345L124.148 22.5211L124.156 22.5446L124.165 22.5681L129.268 20.6345ZM136.583 39.9395L131.48 41.8731L136.583 55.341L141.687 41.8731L136.583 39.9395ZM143.898 20.6345L138.882 18.4847L138.836 18.5918L138.795 18.7008L143.898 20.6345ZM144.393 19.9195L140.842 15.776L140.683 15.9124L140.534 16.0606L144.393 19.9195ZM150.608 19.9745L146.465 23.526L146.738 23.8447L147.057 24.1179L150.608 19.9745ZM150.938 21.2945L155.996 23.3438L156.061 23.1839L156.116 23.0202L150.938 21.2945ZM140.598 46.8145L145.636 48.9134L145.646 48.8886L145.656 48.8638L140.598 46.8145ZM139.883 47.8595L143.158 52.2253L143.322 52.1019L143.477 51.9665L139.883 47.8595ZM134.548 42.7322C134.618 42.7322 135.539 42.7296 136.558 43.4936L130.009 52.2253C131.614 53.4293 133.379 53.6467 134.548 53.6467V42.7322ZM136.877 43.7524C137.337 44.1548 137.538 44.5534 137.606 44.7155L127.531 48.9134C127.965 49.9555 128.643 51.0508 129.69 51.9665L136.877 43.7524ZM137.63 44.7745L127.345 19.2545L117.222 23.3344L127.507 48.8544L137.63 44.7745ZM127.611 20.1106L127.501 19.6156L116.846 21.9833L116.956 22.4783L127.611 20.1106ZM127.631 20.7995C127.631 21.2496 127.554 21.7958 127.323 22.3725C127.09 22.9556 126.748 23.4476 126.362 23.8333L118.644 16.1156C117.334 17.4259 116.716 19.1195 116.716 20.7995H127.631ZM126.362 23.8333C126.073 24.1223 125.658 24.4429 125.103 24.6854C124.539 24.9324 123.948 25.0467 123.383 25.0467V14.1322C121.454 14.1322 119.812 14.9478 118.644 16.1156L126.362 23.8333ZM123.383 25.0467H127.838V14.1322H123.383V25.0467ZM127.838 25.0467C127.244 25.0467 126.354 24.8824 125.498 24.2569C124.669 23.6511 124.295 22.9218 124.148 22.5211L134.389 18.7478C133.985 17.6504 133.244 16.3987 131.938 15.4445C130.606 14.4707 129.129 14.1322 127.838 14.1322V25.0467ZM124.165 22.5681L131.48 41.8731L141.687 38.0058L134.372 18.7008L124.165 22.5681ZM141.687 41.8731L149.002 22.5681L138.795 18.7008L131.48 38.0058L141.687 41.8731ZM148.914 22.7842C148.721 23.2346 148.467 23.5634 148.252 23.7784L140.534 16.0606C139.879 16.7155 139.295 17.521 138.882 18.4847L148.914 22.7842ZM147.945 24.0629C147.574 24.3812 147.13 24.6437 146.636 24.8181C146.148 24.9903 145.696 25.0467 145.328 25.0467V14.1322C143.778 14.1322 142.174 14.6339 140.842 15.776L147.945 24.0629ZM145.328 25.0467H149.838V14.1322H145.328V25.0467ZM149.838 25.0467C149.157 25.0467 148.457 24.8902 147.81 24.5669C147.183 24.2532 146.745 23.8531 146.465 23.526L154.752 16.4229C153.671 15.1616 151.976 14.1322 149.838 14.1322V25.0467ZM147.057 24.1179C146.663 23.7802 146.252 23.2966 145.952 22.6535C145.65 22.0069 145.536 21.3612 145.536 20.7995H156.451C156.451 18.8322 155.592 17.0587 154.16 15.831L147.057 24.1179ZM145.536 20.7995C145.536 20.7685 145.537 20.6553 145.556 20.4856C145.572 20.335 145.618 19.9973 145.761 19.5687L156.116 23.0202C156.437 22.057 156.451 21.1787 156.451 20.7995H145.536ZM145.88 19.2451L135.54 44.7651L145.656 48.8638L155.996 23.3438L145.88 19.2451ZM135.561 44.7155C135.628 44.5534 135.83 44.1548 136.29 43.7524L143.477 51.9665C144.524 51.0508 145.202 49.9555 145.636 48.9134L135.561 44.7155ZM136.609 43.4936C137.628 42.7296 138.549 42.7322 138.618 42.7322V53.6467C139.788 53.6467 141.552 53.4293 143.158 52.2253L136.609 43.4936ZM138.618 42.7322H134.548V53.6467H138.618V42.7322ZM156.175 14.4745L160.034 10.6156L160.034 10.6156L156.175 14.4745ZM156.175 8.64445L152.316 4.78555L152.316 4.78557L156.175 8.64445ZM163.05 8.64445L159.191 12.5033L159.32 12.6318L159.457 12.7515L163.05 8.64445ZM163.105 14.4745L159.246 10.6156L159.246 10.6156L163.105 14.4745ZM156.395 47.8045L160.254 43.9456L156.395 47.8045ZM156.395 19.9745L160.254 23.8334L160.254 23.8333L156.395 19.9745ZM162.83 19.9745L158.687 23.526L158.96 23.8447L159.279 24.1179L162.83 19.9745ZM162.83 47.8045L158.971 43.9456L158.823 44.0938L158.687 44.2529L162.83 47.8045ZM157.11 9.40216C157.577 9.40216 158.12 9.48671 158.679 9.71697C159.24 9.94767 159.693 10.274 160.034 10.6156L152.316 18.3333C153.608 19.6251 155.313 20.3167 157.11 20.3167V9.40216ZM160.034 10.6156C160.376 10.9571 160.702 11.4101 160.933 11.9703C161.163 12.5295 161.248 13.073 161.248 13.5394H150.333C150.333 15.337 151.025 17.0416 152.316 18.3333L160.034 10.6156ZM161.248 13.5394V9.57945H150.333V13.5394H161.248ZM161.248 9.57945C161.248 10.0459 161.163 10.5894 160.933 11.1486C160.702 11.7088 160.376 12.1618 160.034 12.5033L152.316 4.78557C151.025 6.0773 150.333 7.78194 150.333 9.57945H161.248ZM160.034 12.5033C159.693 12.8449 159.24 13.1712 158.679 13.4019C158.12 13.6322 157.577 13.7167 157.11 13.7167V2.80216C155.313 2.80216 153.608 3.49383 152.316 4.78555L160.034 12.5033ZM157.11 13.7167H162.115V2.80216H157.11V13.7167ZM162.115 13.7167C161.649 13.7167 161.105 13.6322 160.546 13.4019C159.986 13.1712 159.533 12.8449 159.191 12.5033L166.909 4.78555C165.618 3.49383 163.913 2.80216 162.115 2.80216V13.7167ZM159.457 12.7515C159.112 12.4495 158.729 12.0034 158.443 11.3944C158.152 10.777 158.033 10.1466 158.033 9.57945H168.948C168.948 7.53006 168.037 5.75633 166.644 4.53743L159.457 12.7515ZM158.033 9.57945V13.5394H168.948V9.57945H158.033ZM158.033 13.5394C158.033 13.073 158.118 12.5295 158.348 11.9703C158.579 11.4101 158.905 10.9571 159.246 10.6156L166.964 18.3333C168.256 17.0416 168.948 15.337 168.948 13.5394H158.033ZM159.246 10.6156C159.639 10.2226 160.129 9.89409 160.687 9.67698C161.234 9.46424 161.734 9.40216 162.115 9.40216V20.3167C163.79 20.3167 165.566 19.7317 166.964 18.3333L159.246 10.6156ZM162.115 9.40216H157.11V20.3167H162.115V9.40216ZM157.33 42.7322C157.797 42.7322 158.34 42.8167 158.899 43.047C159.46 43.2777 159.913 43.604 160.254 43.9456L152.536 51.6633C153.828 52.9551 155.533 53.6467 157.33 53.6467V42.7322ZM160.254 43.9456C160.596 44.2871 160.922 44.7401 161.153 45.3003C161.383 45.8595 161.468 46.403 161.468 46.8695H150.553C150.553 48.667 151.245 50.3716 152.536 51.6633L160.254 43.9456ZM161.468 46.8695V20.9095H150.553V46.8695H161.468ZM161.468 20.9095C161.468 21.3759 161.383 21.9194 161.153 22.4786C160.922 23.0389 160.596 23.4918 160.254 23.8334L152.536 16.1156C151.245 17.4073 150.553 19.1119 150.553 20.9095H161.468ZM160.254 23.8333C159.913 24.1749 159.46 24.5012 158.899 24.7319C158.34 24.9622 157.797 25.0467 157.33 25.0467V14.1322C155.533 14.1322 153.828 14.8238 152.536 16.1156L160.254 23.8333ZM157.33 25.0467H161.895V14.1322H157.33V25.0467ZM161.895 25.0467C161.521 25.0467 160.973 24.9869 160.354 24.7319C159.71 24.467 159.136 24.05 158.687 23.526L166.974 16.4229C165.515 14.7214 163.553 14.1322 161.895 14.1322V25.0467ZM159.279 24.1179C158.755 23.6688 158.338 23.0946 158.073 22.4511C157.818 21.8318 157.758 21.2834 157.758 20.9095H168.673C168.673 19.2514 168.083 17.2894 166.382 15.831L159.279 24.1179ZM157.758 20.9095V46.8695H168.673V20.9095H157.758ZM157.758 46.8695C157.758 46.403 157.843 45.8595 158.073 45.3003C158.304 44.7401 158.63 44.2871 158.971 43.9456L166.689 51.6633C167.981 50.3716 168.673 48.667 168.673 46.8695H157.758ZM158.687 44.2529C159.136 43.7289 159.71 43.3119 160.354 43.047C160.973 42.792 161.521 42.7322 161.895 42.7322V53.6467C163.553 53.6467 165.515 53.0575 166.974 51.356L158.687 44.2529ZM161.895 42.7322H157.33V53.6467H161.895V42.7322ZM173.097 45.2195L169.238 49.0783L169.268 49.108L169.298 49.1372L173.097 45.2195ZM169.302 35.2095L174.756 35.023L174.756 35.0072L174.755 34.9913L169.302 35.2095ZM169.247 33.8345L163.794 33.6163L163.786 33.8345L163.794 34.0526L169.247 33.8345ZM169.302 32.4595L163.85 32.2203L163.85 32.2308L163.849 32.2413L169.302 32.4595ZM173.152 22.6145L169.323 18.7262L169.308 18.7408L169.293 18.7556L173.152 22.6145ZM192.842 22.9995L188.763 26.6251L188.777 26.6408L188.792 26.6564L192.842 22.9995ZM196.032 35.6495L199.891 39.5083L199.891 39.5083L196.032 35.6495ZM176.782 36.0345V30.5772H171.325V36.0345H176.782ZM176.782 36.4745H171.325V36.5736L171.329 36.6728L176.782 36.4745ZM178.432 41.5895L174.039 44.8267L174.087 44.8921L174.137 44.956L178.432 41.5895ZM188.002 41.0945L183.779 37.6387L183.741 37.6845L183.705 37.7311L188.002 41.0945ZM188.772 40.3245L186.332 35.4433L186.144 35.537L185.965 35.6449L188.772 40.3245ZM195.262 40.4895L191.403 44.3483L191.723 44.6677L192.09 44.9302L195.262 40.4895ZM194.052 44.3395L189.953 40.737L189.945 40.7458L194.052 44.3395ZM189.597 47.4195L191.848 52.3908L189.597 47.4195ZM188.937 31.4145V36.8717H194.395V31.4145H188.937ZM187.287 26.0245L183.037 29.448L183.066 29.4833L183.095 29.5181L187.287 26.0245ZM178.377 26.0245L174.127 22.6009V22.6009L178.377 26.0245ZM176.782 31.4145H171.325V36.8717H176.782V31.4145ZM182.832 43.2822C179.868 43.2822 178.094 42.4628 176.896 41.3017L169.298 49.1372C172.941 52.6694 177.657 54.1967 182.832 54.1967V43.2822ZM176.956 41.3606C175.797 40.2014 174.869 38.3237 174.756 35.023L163.848 35.3959C164.029 40.6752 165.631 45.4708 169.238 49.0783L176.956 41.3606ZM174.755 34.9913L174.7 33.6163L163.794 34.0526L163.849 35.4276L174.755 34.9913ZM174.7 34.0526L174.755 32.6776L163.849 32.2413L163.794 33.6163L174.7 34.0526ZM174.754 32.6986C174.893 29.5381 175.811 27.6733 177.011 26.4733L169.293 18.7556C165.727 22.3223 164.078 27.0208 163.85 32.2203L174.754 32.6986ZM176.982 26.5027C178.193 25.3102 179.944 24.4967 182.832 24.4967V13.5822C177.654 13.5822 172.952 15.1521 169.323 18.7262L176.982 26.5027ZM182.832 24.4967C185.98 24.4967 187.681 25.4068 188.763 26.6251L196.921 19.3738C193.311 15.3121 188.338 13.5822 182.832 13.5822V24.4967ZM188.792 26.6564C190.068 28.0703 190.96 30.1761 190.96 33.5595H201.875C201.875 28.1428 200.383 23.2086 196.893 19.3425L188.792 26.6564ZM190.96 33.5595V34.7145H201.875V33.5595H190.96ZM190.96 34.7145C190.96 34.248 191.045 33.7045 191.275 33.1453C191.506 32.5851 191.832 32.1321 192.173 31.7906L199.891 39.5083C201.183 38.2166 201.875 36.512 201.875 34.7145H190.96ZM192.173 31.7906C192.566 31.3976 193.056 31.0691 193.614 30.852C194.161 30.6392 194.661 30.5772 195.042 30.5772V41.4917C196.717 41.4917 198.493 40.9067 199.891 39.5083L192.173 31.7906ZM195.042 30.5772H176.782V41.4917H195.042V30.5772ZM171.325 36.0345V36.4745H182.24V36.0345H171.325ZM171.329 36.6728C171.435 39.5992 172.259 42.4106 174.039 44.8267L182.826 38.3522C182.553 37.9816 182.276 37.3831 182.236 36.2761L171.329 36.6728ZM174.137 44.956C176.309 47.7265 179.39 49.0817 182.777 49.0817V38.1672C182.656 38.1672 182.594 38.156 182.579 38.153C182.572 38.1514 182.574 38.1515 182.585 38.1549C182.595 38.1584 182.611 38.1644 182.631 38.1736C182.65 38.1828 182.671 38.1939 182.69 38.2062C182.71 38.2185 182.726 38.2301 182.738 38.2396C182.762 38.2597 182.757 38.2608 182.728 38.2229L174.137 44.956ZM182.777 49.0817C186.599 49.0817 189.933 47.4817 192.3 44.4578L183.705 37.7311C183.502 37.9895 183.372 38.0587 183.328 38.0802C183.282 38.1024 183.133 38.1672 182.777 38.1672V49.0817ZM192.226 44.5502C192.321 44.4341 192.343 44.4166 192.301 44.4583C192.278 44.4816 192.215 44.5436 192.115 44.6269C192.021 44.7046 191.84 44.848 191.58 45.004L185.965 35.6449C184.879 36.2965 184.096 37.2505 183.779 37.6387L192.226 44.5502ZM191.213 45.2056C190.739 45.4423 190.342 45.5357 190.119 45.575C189.891 45.6153 189.742 45.6167 189.707 45.6167V34.7022C188.936 34.7022 187.645 34.7866 186.332 35.4433L191.213 45.2056ZM189.707 45.6167H194.437V34.7022H189.707V45.6167ZM194.437 45.6167C193.987 45.6167 193.441 45.5396 192.864 45.3089C192.281 45.0757 191.789 44.7341 191.403 44.3483L199.121 36.6306C197.811 35.3202 196.117 34.7022 194.437 34.7022V45.6167ZM192.09 44.9302C191.652 44.6169 191.138 44.1205 190.746 43.393C190.347 42.6515 190.19 41.8834 190.19 41.2045H201.105C201.105 38.9987 199.999 37.166 198.434 36.0487L192.09 44.9302ZM190.19 41.2045C190.19 40.8727 190.24 40.6127 190.287 40.4425C190.333 40.2754 190.379 40.1839 190.385 40.1736C190.39 40.1627 190.368 40.2083 190.295 40.3115C190.222 40.4137 190.113 40.5555 189.953 40.737L198.152 47.9419C199.443 46.472 201.105 44.1402 201.105 41.2045H190.19ZM189.945 40.7458C189.584 41.1586 188.826 41.7781 187.346 42.4481L191.848 52.3908C194.256 51.3008 196.467 49.8669 198.159 47.9331L189.945 40.7458ZM187.346 42.4481C186.239 42.9495 184.778 43.2822 182.832 43.2822V54.1967C186.02 54.1967 189.069 53.6494 191.848 52.3908L187.346 42.4481ZM194.395 31.4145V31.2495H183.48V31.4145H194.395ZM194.395 31.2495C194.395 28.1488 193.591 25.064 191.48 22.5308L183.095 29.5181C183.184 29.6249 183.48 30.0234 183.48 31.2495H194.395ZM191.537 22.6009C189.3 19.8235 186.157 18.5872 182.832 18.5872V29.5017C182.995 29.5017 183.094 29.5158 183.141 29.525C183.186 29.5338 183.187 29.5387 183.16 29.5264C183.131 29.5134 183.095 29.4928 183.062 29.4676C183.031 29.443 183.023 29.4306 183.037 29.448L191.537 22.6009ZM182.832 18.5872C179.508 18.5872 176.365 19.8235 174.127 22.6009L182.627 29.448C182.641 29.4306 182.634 29.443 182.602 29.4676C182.57 29.4928 182.534 29.5134 182.505 29.5264C182.477 29.5387 182.479 29.5338 182.524 29.525C182.571 29.5158 182.67 29.5017 182.832 29.5017V18.5872ZM174.127 22.6009C172.088 25.1323 171.325 28.1906 171.325 31.2495H182.24C182.24 29.9816 182.54 29.5566 182.627 29.448L174.127 22.6009ZM171.325 31.2495V31.4145H182.24V31.2495H171.325ZM176.782 36.8717H188.937V25.9572H176.782V36.8717ZM203.3 47.8045L199.442 51.6633L203.3 47.8045ZM203.245 10.0745L199.387 6.21557L199.238 6.36376L199.102 6.52288L203.245 10.0745ZM228.985 12.8245L225.51 17.0318L225.525 17.0441L225.54 17.0562L228.985 12.8245ZM230.855 28.4995L226.427 25.3107L226.421 25.3191L226.415 25.3275L230.855 28.4995ZM225.465 32.4045L223.666 27.2523L217.467 29.4172L220.73 35.116L225.465 32.4045ZM233.495 46.4295L238.377 43.9889L238.308 43.8513L238.231 43.7179L233.495 46.4295ZM233.275 47.8595L229.724 43.716L229.565 43.8524L229.417 44.0006L233.275 47.8595ZM226.125 47.8045L222.532 51.9115L222.651 52.0153L222.775 52.1122L226.125 47.8045ZM225.3 46.7045L230.105 44.1172L230.1 44.1063L230.094 44.0955L225.3 46.7045ZM218.205 33.6695L222.999 31.0605L221.448 28.2122H218.205V33.6695ZM210.56 33.6695V28.2122H205.103V33.6695H210.56ZM210.175 47.8045L206.317 43.9456L206.168 44.0938L206.032 44.2529L210.175 47.8045ZM223.265 25.9695L219.681 21.8542L219.648 21.8834L219.615 21.9131L223.265 25.9695ZM223.265 17.3344L219.542 21.324L219.574 21.3544L219.608 21.3843L223.265 17.3344ZM210.56 15.7945V10.3372H205.103V15.7945H210.56ZM210.56 27.4545H205.103V32.9117H210.56V27.4545ZM204.235 42.7322C204.702 42.7322 205.245 42.8167 205.805 43.047C206.365 43.2777 206.818 43.604 207.159 43.9456L199.442 51.6633C200.733 52.9551 202.438 53.6467 204.235 53.6467V42.7322ZM207.159 43.9456C207.501 44.2871 207.827 44.7401 208.058 45.3003C208.288 45.8595 208.373 46.403 208.373 46.8695H197.458C197.458 48.667 198.15 50.3716 199.442 51.6633L207.159 43.9456ZM208.373 46.8695V11.0645H197.458V46.8695H208.373ZM208.373 11.0645C208.373 11.7001 208.174 12.7102 207.389 13.626L199.102 6.52288C197.877 7.95199 197.458 9.62211 197.458 11.0645H208.373ZM207.104 13.9333C206.711 14.3263 206.222 14.6548 205.663 14.8719C205.116 15.0847 204.617 15.1467 204.235 15.1467V4.23216C202.561 4.23216 200.785 4.81722 199.387 6.21557L207.104 13.9333ZM204.235 15.1467H218.48V4.23216H204.235V15.1467ZM218.48 15.1467C222.145 15.1467 224.262 16.0007 225.51 17.0318L232.461 8.61709C228.649 5.46825 223.763 4.23216 218.48 4.23216V15.1467ZM225.54 17.0562C226.618 17.9345 227.378 19.2262 227.378 21.7345H238.293C238.293 16.5427 236.486 11.8944 232.431 8.59267L225.54 17.0562ZM227.378 21.7345C227.378 23.484 226.961 24.5683 226.427 25.3107L235.284 31.6882C237.39 28.764 238.293 25.3382 238.293 21.7345H227.378ZM226.415 25.3275C225.857 26.1086 225.033 26.7751 223.666 27.2523L227.265 37.5566C230.518 36.4205 233.288 34.4836 235.296 31.6714L226.415 25.3275ZM220.73 35.116L228.76 49.141L238.231 43.7179L230.201 29.6929L220.73 35.116ZM228.614 48.87C228.469 48.5792 228.203 47.9369 228.203 47.0345H239.118C239.118 45.7653 238.742 44.7197 238.377 43.9889L228.614 48.87ZM228.203 47.0345C228.203 46.4727 228.317 45.827 228.619 45.1804C228.919 44.5373 229.33 44.0537 229.724 43.716L236.827 52.0029C238.259 50.7752 239.118 49.0017 239.118 47.0345H228.203ZM229.417 44.0006C229.742 43.6756 230.19 43.3389 230.768 43.0909C231.353 42.8402 231.951 42.7322 232.505 42.7322V53.6467C234.341 53.6467 235.96 52.8929 237.134 51.7184L229.417 44.0006ZM232.505 42.7322H227.5V53.6467H232.505V42.7322ZM227.5 42.7322C227.648 42.7322 228.528 42.7596 229.476 43.4967L222.775 52.1122C224.383 53.3626 226.18 53.6467 227.5 53.6467V42.7322ZM229.719 43.6974C229.903 43.8581 230.013 43.9938 230.065 44.0626C230.117 44.1318 230.127 44.1575 230.105 44.1172L220.495 49.2918C220.95 50.1361 221.597 51.0931 222.532 51.9115L229.719 43.6974ZM230.094 44.0955L222.999 31.0605L213.412 36.2784L220.507 49.3134L230.094 44.0955ZM218.205 28.2122H210.56V39.1267H218.205V28.2122ZM205.103 33.6695V46.8695H216.018V33.6695H205.103ZM205.103 46.8695C205.103 46.403 205.188 45.8595 205.418 45.3003C205.649 44.7401 205.975 44.2871 206.317 43.9456L214.034 51.6633C215.326 50.3716 216.018 48.667 216.018 46.8695H205.103ZM206.032 44.2529C206.481 43.7289 207.055 43.3119 207.699 43.047C208.318 42.792 208.867 42.7322 209.24 42.7322V53.6467C210.899 53.6467 212.861 53.0575 214.319 51.356L206.032 44.2529ZM209.24 42.7322H204.235V53.6467H209.24V42.7322ZM218.315 32.9117C221.223 32.9117 224.423 32.27 226.916 30.0258L219.615 21.9131C219.755 21.7872 219.814 21.8024 219.635 21.8561C219.437 21.9155 219.024 21.9972 218.315 21.9972V32.9117ZM226.85 30.0847C229.455 27.8157 230.428 24.7163 230.428 21.6795H219.513C219.513 22.0687 219.454 22.1871 219.473 22.1389C219.483 22.1136 219.507 22.063 219.55 22.0013C219.594 21.9392 219.641 21.8891 219.681 21.8542L226.85 30.0847ZM230.428 21.6795C230.428 18.6347 229.454 15.5698 226.923 13.2846L219.608 21.3843C219.583 21.3621 219.549 21.3262 219.517 21.2795C219.485 21.233 219.469 21.197 219.464 21.1842C219.454 21.1592 219.513 21.2923 219.513 21.6795H230.428ZM226.989 13.3449C224.496 11.0182 221.267 10.3372 218.315 10.3372V21.2517C219.008 21.2517 219.402 21.3345 219.582 21.3904C219.739 21.4394 219.675 21.4484 219.542 21.324L226.989 13.3449ZM218.315 10.3372H210.56V21.2517H218.315V10.3372ZM205.103 15.7945V27.4545H216.018V15.7945H205.103ZM210.56 32.9117H218.315V21.9972H210.56V32.9117ZM241.635 45.4395L237.87 49.3898L237.886 49.4053L237.903 49.4207L241.635 45.4395ZM237.84 36.3095L232.384 36.4334L232.386 36.5013L232.389 36.569L237.84 36.3095ZM237.785 33.8895L232.329 33.7655L232.326 33.8895L232.329 34.0135L237.785 33.8895ZM237.84 31.4695L232.389 31.2074L232.386 31.2764L232.384 31.3455L237.84 31.4695ZM241.69 22.3945L245.425 26.3738L241.69 22.3945ZM261.49 22.3945L257.756 26.3738V26.3738L261.49 22.3945ZM265.34 31.4695L259.889 31.7315L259.894 31.8272L259.902 31.9227L265.34 31.4695ZM265.34 36.3095L259.902 35.8562L259.894 35.9529L259.889 36.0499L265.34 36.3095ZM261.545 45.4395L265.278 49.4207L265.294 49.4053L265.31 49.3898L261.545 45.4395ZM256.1 41.4795L260.199 45.0819L260.226 45.0516L260.252 45.0209L256.1 41.4795ZM257.86 36.0345L252.43 35.4914L252.415 35.6369L252.409 35.7828L257.86 36.0345ZM257.86 31.7445L252.409 31.9961L252.415 32.142L252.43 32.2875L257.86 31.7445ZM256.1 26.3545L251.948 29.8959L251.974 29.9266L252.001 29.9569L256.1 26.3545ZM247.08 26.3545L251.179 29.9569L251.206 29.9266L251.232 29.8959L247.08 26.3545ZM245.32 31.7445L239.869 31.4928L239.866 31.5487L239.865 31.6046L245.32 31.7445ZM245.265 33.8895L239.81 33.7496L239.806 33.8895L239.81 34.0293L245.265 33.8895ZM245.32 36.0345L239.865 36.1743L239.866 36.2302L239.869 36.2861L245.32 36.0345ZM247.08 41.4795L242.928 45.0209L242.954 45.0516L242.981 45.0819L247.08 41.4795ZM251.59 43.2822C248.213 43.2822 246.403 42.4294 245.368 41.4582L237.903 49.4207C241.56 52.8496 246.387 54.1967 251.59 54.1967V43.2822ZM245.4 41.4891C244.257 40.399 243.421 38.7808 243.291 36.0499L232.389 36.569C232.626 41.5381 234.32 46.0065 237.87 49.3898L245.4 41.4891ZM243.296 36.1855L243.241 33.7655L232.329 34.0135L232.384 36.4334L243.296 36.1855ZM243.241 34.0135L243.296 31.5934L232.384 31.3455L232.329 33.7655L243.241 34.0135ZM243.291 31.7315C243.419 29.0778 244.247 27.4792 245.425 26.3738L237.956 18.4151C234.367 21.783 232.628 26.2345 232.389 31.2074L243.291 31.7315ZM245.425 26.3738C246.529 25.3378 248.344 24.4967 251.59 24.4967V13.5822C246.403 13.5822 241.618 14.9778 237.956 18.4151L245.425 26.3738ZM251.59 24.4967C254.836 24.4967 256.652 25.3378 257.756 26.3738L265.225 18.4151C261.562 14.9778 256.778 13.5822 251.59 13.5822V24.4967ZM257.756 26.3738C258.933 27.4792 259.761 29.0778 259.889 31.7315L270.791 31.2074C270.552 26.2345 268.813 21.783 265.225 18.4151L257.756 26.3738ZM259.902 31.9227C259.917 32.1061 259.938 32.699 259.938 33.8895H270.852C270.852 32.7332 270.837 31.7128 270.779 31.0162L259.902 31.9227ZM259.938 33.8895C259.938 35.0799 259.917 35.6728 259.902 35.8562L270.779 36.7627C270.837 36.0661 270.852 35.0457 270.852 33.8895H259.938ZM259.889 36.0499C259.759 38.7808 258.924 40.399 257.78 41.4891L265.31 49.3898C268.86 46.0065 270.555 41.5381 270.791 36.569L259.889 36.0499ZM257.813 41.4582C256.777 42.4294 254.967 43.2822 251.59 43.2822V54.1967C256.793 54.1967 261.62 52.8496 265.278 49.4207L257.813 41.4582ZM251.59 48.7517C254.749 48.7517 257.887 47.7128 260.199 45.0819L252.001 37.877C252.01 37.867 252.033 37.8433 252.069 37.8177C252.105 37.7922 252.132 37.7802 252.138 37.778C252.149 37.7735 251.999 37.8372 251.59 37.8372V48.7517ZM260.252 45.0209C262.389 42.5153 263.17 39.3469 263.312 36.2861L252.409 35.7828C252.371 36.6051 252.257 37.1577 252.145 37.5047C252.09 37.6738 252.039 37.7837 252.004 37.8489C251.97 37.9126 251.949 37.9372 251.948 37.938L260.252 45.0209ZM263.29 36.5775C263.358 35.8975 263.372 34.9151 263.372 33.8895H252.458C252.458 34.3945 252.453 34.7889 252.446 35.0833C252.438 35.4062 252.428 35.5142 252.43 35.4914L263.29 36.5775ZM263.372 33.8895C263.372 32.8638 263.358 31.8814 263.29 31.2014L252.43 32.2875C252.428 32.2647 252.438 32.3727 252.446 32.6956C252.453 32.99 252.458 33.3844 252.458 33.8895H263.372ZM263.312 31.4928C263.171 28.4449 262.393 25.2481 260.199 22.752L252.001 29.9569C251.934 29.8808 252.329 30.2773 252.409 31.9961L263.312 31.4928ZM260.252 22.813C257.957 20.1217 254.803 19.0272 251.59 19.0272V29.9417C251.981 29.9417 252.111 30.004 252.085 29.9931C252.073 29.988 252.043 29.9734 252.006 29.9471C251.971 29.9209 251.951 29.8994 251.948 29.8959L260.252 22.813ZM251.59 19.0272C248.377 19.0272 245.223 20.1217 242.928 22.813L251.232 29.8959C251.229 29.8994 251.21 29.9209 251.174 29.9471C251.138 29.9734 251.107 29.988 251.095 29.9931C251.069 30.004 251.199 29.9417 251.59 29.9417V19.0272ZM242.981 22.752C240.787 25.2481 240.009 28.4449 239.869 31.4928L250.772 31.9961C250.851 30.2773 251.246 29.8808 251.179 29.9569L242.981 22.752ZM239.865 31.6046L239.81 33.7496L250.721 34.0293L250.776 31.8843L239.865 31.6046ZM239.81 34.0293L239.865 36.1743L250.776 35.8946L250.721 33.7496L239.81 34.0293ZM239.869 36.2861C240.01 39.3469 240.791 42.5153 242.928 45.0209L251.232 37.938C251.231 37.9372 251.21 37.9126 251.176 37.8489C251.141 37.7837 251.09 37.6738 251.035 37.5047C250.923 37.1577 250.809 36.6051 250.772 35.7828L239.869 36.2861ZM242.981 45.0819C245.293 47.7128 248.431 48.7517 251.59 48.7517V37.8372C251.181 37.8372 251.031 37.7735 251.042 37.778C251.048 37.7802 251.075 37.7922 251.111 37.8177C251.147 37.8433 251.171 37.867 251.179 37.877L242.981 45.0819ZM274.184 45.4395L270.419 49.3898L270.435 49.4053L270.451 49.4207L274.184 45.4395ZM270.389 36.3095L264.933 36.4334L264.935 36.5013L264.938 36.569L270.389 36.3095ZM270.334 33.8895L264.878 33.7655L264.875 33.8895L264.878 34.0135L270.334 33.8895ZM270.389 31.4695L264.938 31.2074L264.935 31.2764L264.933 31.3455L270.389 31.4695ZM274.239 22.3945L277.973 26.3738L274.239 22.3945ZM294.039 22.3945L290.304 26.3738V26.3738L294.039 22.3945ZM297.889 31.4695L292.438 31.7315L292.443 31.8272L292.45 31.9227L297.889 31.4695ZM297.889 36.3095L292.45 35.8562L292.442 35.9529L292.438 36.0499L297.889 36.3095ZM294.094 45.4395L297.826 49.4207L297.843 49.4053L297.859 49.3898L294.094 45.4395ZM288.649 41.4795L292.748 45.0819L292.775 45.0516L292.801 45.0209L288.649 41.4795ZM290.409 36.0345L284.979 35.4914L284.964 35.6369L284.957 35.7828L290.409 36.0345ZM290.409 31.7445L284.957 31.9961L284.964 32.142L284.979 32.2875L290.409 31.7445ZM288.649 26.3545L284.497 29.8959L284.523 29.9266L284.55 29.9569L288.649 26.3545ZM279.629 26.3545L283.728 29.9569L283.755 29.9266L283.781 29.8959L279.629 26.3545ZM277.869 31.7445L272.417 31.4928L272.415 31.5487L272.413 31.6046L277.869 31.7445ZM277.814 33.8895L272.358 33.7496L272.355 33.8895L272.358 34.0293L277.814 33.8895ZM277.869 36.0345L272.413 36.1743L272.415 36.2302L272.417 36.2861L277.869 36.0345ZM279.629 41.4795L275.477 45.0209L275.503 45.0516L275.53 45.0819L279.629 41.4795ZM284.139 43.2822C280.762 43.2822 278.952 42.4294 277.916 41.4582L270.451 49.4207C274.109 52.8496 278.936 54.1967 284.139 54.1967V43.2822ZM277.949 41.4891C276.805 40.399 275.97 38.7808 275.84 36.0499L264.938 36.569C265.174 41.5381 266.869 46.0065 270.419 49.3898L277.949 41.4891ZM275.845 36.1855L275.79 33.7655L264.878 34.0135L264.933 36.4334L275.845 36.1855ZM275.79 34.0135L275.845 31.5934L264.933 31.3455L264.878 33.7655L275.79 34.0135ZM275.84 31.7315C275.967 29.0778 276.796 27.4792 277.973 26.3738L270.504 18.4151C266.916 21.783 265.177 26.2345 264.938 31.2074L275.84 31.7315ZM277.973 26.3738C279.077 25.3378 280.893 24.4967 284.139 24.4967V13.5822C278.951 13.5822 274.167 14.9778 270.504 18.4151L277.973 26.3738ZM284.139 24.4967C287.385 24.4967 289.2 25.3378 290.304 26.3738L297.773 18.4151C294.111 14.9778 289.326 13.5822 284.139 13.5822V24.4967ZM290.304 26.3738C291.482 27.4792 292.31 29.0778 292.438 31.7315L303.34 31.2074C303.101 26.2345 301.362 21.783 297.773 18.4151L290.304 26.3738ZM292.45 31.9227C292.466 32.1061 292.487 32.699 292.487 33.8895H303.401C303.401 32.7332 303.385 31.7128 303.327 31.0162L292.45 31.9227ZM292.487 33.8895C292.487 35.0799 292.466 35.6728 292.45 35.8562L303.327 36.7627C303.385 36.0661 303.401 35.0457 303.401 33.8895H292.487ZM292.438 36.0499C292.308 38.7808 291.472 40.399 290.329 41.4891L297.859 49.3898C301.409 46.0065 303.103 41.5381 303.34 36.569L292.438 36.0499ZM290.361 41.4582C289.325 42.4294 287.516 43.2822 284.139 43.2822V54.1967C289.342 54.1967 294.169 52.8496 297.826 49.4207L290.361 41.4582ZM284.139 48.7517C287.298 48.7517 290.436 47.7128 292.748 45.0819L284.55 37.877C284.558 37.867 284.582 37.8433 284.618 37.8177C284.654 37.7922 284.681 37.7802 284.686 37.778C284.698 37.7735 284.548 37.8372 284.139 37.8372V48.7517ZM292.801 45.0209C294.938 42.5153 295.719 39.3469 295.86 36.2861L284.957 35.7828C284.919 36.6051 284.806 37.1577 284.694 37.5047C284.639 37.6738 284.588 37.7837 284.553 37.8489C284.519 37.9126 284.497 37.9372 284.497 37.938L292.801 45.0209ZM295.839 36.5775C295.907 35.8975 295.921 34.9151 295.921 33.8895H285.007C285.007 34.3945 285.002 34.7889 284.995 35.0833C284.986 35.4062 284.976 35.5142 284.979 35.4914L295.839 36.5775ZM295.921 33.8895C295.921 32.8638 295.907 31.8814 295.839 31.2014L284.979 32.2875C284.976 32.2647 284.986 32.3727 284.995 32.6956C285.002 32.99 285.007 33.3844 285.007 33.8895H295.921ZM295.86 31.4928C295.72 28.4449 294.942 25.2481 292.748 22.752L284.55 29.9569C284.483 29.8808 284.878 30.2773 284.957 31.9961L295.86 31.4928ZM292.801 22.813C290.505 20.1217 287.352 19.0272 284.139 19.0272V29.9417C284.53 29.9417 284.66 30.004 284.634 29.9931C284.621 29.988 284.591 29.9734 284.555 29.9471C284.519 29.9209 284.5 29.8994 284.497 29.8959L292.801 22.813ZM284.139 19.0272C280.926 19.0272 277.772 20.1217 275.477 22.813L283.781 29.8959C283.778 29.8994 283.758 29.9209 283.722 29.9471C283.686 29.9734 283.656 29.988 283.644 29.9931C283.618 30.004 283.748 29.9417 284.139 29.9417V19.0272ZM275.53 22.752C273.336 25.2481 272.558 28.4449 272.417 31.4928L283.32 31.9961C283.4 30.2773 283.795 29.8808 283.728 29.9569L275.53 22.752ZM272.413 31.6046L272.358 33.7496L283.269 34.0293L283.324 31.8843L272.413 31.6046ZM272.358 34.0293L272.413 36.1743L283.324 35.8946L283.269 33.7496L272.358 34.0293ZM272.417 36.2861C272.559 39.3469 273.34 42.5153 275.477 45.0209L283.781 37.938C283.78 37.9372 283.759 37.9126 283.725 37.8489C283.69 37.7837 283.639 37.6738 283.584 37.5047C283.472 37.1577 283.358 36.6051 283.32 35.7828L272.417 36.2861ZM275.53 45.0819C277.842 47.7128 280.98 48.7517 284.139 48.7517V37.8372C283.729 37.8372 283.58 37.7735 283.591 37.778C283.597 37.7802 283.624 37.7922 283.66 37.8177C283.696 37.8433 283.719 37.867 283.728 37.877L275.53 45.0819ZM304.423 47.8045L308.282 43.9456L304.423 47.8045ZM304.423 19.9745L308.282 23.8334L308.282 23.8333L304.423 19.9745ZM310.583 19.9745L306.724 23.8333L306.724 23.8333L310.583 19.9745ZM310.968 22.7795H305.51V38.8998L315.303 26.0945L310.968 22.7795ZM327.468 23.9345L322.576 26.353L327.005 35.3126L332.147 26.7422L327.468 23.9345ZM331.208 20.4145L333.821 25.2054L333.863 25.1827L333.904 25.1593L331.208 20.4145ZM343.803 22.1195L347.802 18.406V18.406L343.803 22.1195ZM346.278 47.8045L342.419 43.9456L342.271 44.0938L342.134 44.2529L346.278 47.8045ZM339.898 47.8045L343.757 43.9456L343.757 43.9456L339.898 47.8045ZM338.028 26.5195L333.964 30.1624L334.031 30.2362L334.099 30.3076L338.028 26.5195ZM330.493 26.5195L326.567 22.7288L326.532 22.7645L326.499 22.8008L330.493 26.5195ZM328.623 47.8045L324.764 43.9456V43.9456L328.623 47.8045ZM320.318 26.5195L316.324 30.2382L316.39 30.3095L316.459 30.3783L320.318 26.5195ZM312.783 26.5195L308.857 22.7288L308.822 22.7645L308.789 22.8008L312.783 26.5195ZM305.358 42.7322C305.824 42.7322 306.368 42.8167 306.927 43.047C307.487 43.2777 307.94 43.604 308.282 43.9456L300.564 51.6633C301.856 52.9551 303.56 53.6467 305.358 53.6467V42.7322ZM308.282 43.9456C308.623 44.2871 308.949 44.7401 309.18 45.3003C309.41 45.8595 309.495 46.403 309.495 46.8695H298.58C298.58 48.667 299.272 50.3716 300.564 51.6633L308.282 43.9456ZM309.495 46.8695V20.9095H298.58V46.8695H309.495ZM309.495 20.9095C309.495 21.3759 309.41 21.9194 309.18 22.4786C308.949 23.0389 308.623 23.4918 308.282 23.8334L300.564 16.1156C299.272 17.4073 298.58 19.1119 298.58 20.9095H309.495ZM308.282 23.8333C307.94 24.1749 307.487 24.5012 306.927 24.7319C306.368 24.9622 305.824 25.0467 305.358 25.0467V14.1322C303.56 14.1322 301.856 14.8238 300.564 16.1156L308.282 23.8333ZM305.358 25.0467H309.648V14.1322H305.358V25.0467ZM309.648 25.0467C309.181 25.0467 308.638 24.9622 308.079 24.7319C307.518 24.5012 307.065 24.1749 306.724 23.8333L314.442 16.1156C313.15 14.8238 311.445 14.1322 309.648 14.1322V25.0467ZM306.724 23.8333C306.382 23.4918 306.056 23.0389 305.825 22.4786C305.595 21.9194 305.51 21.3759 305.51 20.9095H316.425C316.425 19.1119 315.733 17.4073 314.442 16.1156L306.724 23.8333ZM305.51 20.9095V22.7795H316.425V20.9095H305.51ZM315.303 26.0945C316.078 25.0806 317.063 24.4967 318.943 24.4967V13.5822C314.002 13.5822 309.671 15.4917 306.633 19.4644L315.303 26.0945ZM318.943 24.4967C320.253 24.4967 320.993 24.7569 321.409 24.9958C321.789 25.214 322.193 25.5794 322.576 26.353L332.36 21.5159C331.129 19.0262 329.306 16.9441 326.844 15.5306C324.418 14.1378 321.703 13.5822 318.943 13.5822V24.4967ZM332.147 26.7422C332.49 26.1707 332.995 25.6559 333.821 25.2054L328.594 15.6235C326.194 16.933 324.205 18.7648 322.788 21.1267L332.147 26.7422ZM333.904 25.1593C334.689 24.7134 335.5 24.4967 336.433 24.4967V13.5822C333.625 13.5822 330.954 14.2822 328.512 15.6696L333.904 25.1593ZM336.433 24.4967C338.046 24.4967 339.011 24.9793 339.804 25.8329L347.802 18.406C344.781 15.1529 340.833 13.5822 336.433 13.5822V24.4967ZM339.804 25.8329C340.454 26.5337 341.205 27.9854 341.205 31.0845H352.12C352.12 26.3369 350.964 21.8119 347.802 18.406L339.804 25.8329ZM341.205 31.0845V46.8695H352.12V31.0845H341.205ZM341.205 46.8695C341.205 46.403 341.29 45.8595 341.52 45.3003C341.751 44.7401 342.077 44.2871 342.419 43.9456L350.137 51.6633C351.428 50.3716 352.12 48.667 352.12 46.8695H341.205ZM342.134 44.2529C342.583 43.7289 343.158 43.3119 343.801 43.047C344.42 42.792 344.969 42.7322 345.343 42.7322V53.6467C347.001 53.6467 348.963 53.0575 350.421 51.356L342.134 44.2529ZM345.343 42.7322H340.833V53.6467H345.343V42.7322ZM340.833 42.7322C341.299 42.7322 341.843 42.8167 342.402 43.047C342.962 43.2777 343.415 43.604 343.757 43.9456L336.039 51.6633C337.331 52.9551 339.035 53.6467 340.833 53.6467V42.7322ZM343.757 43.9456C344.098 44.2871 344.424 44.74 344.655 45.3003C344.885 45.8595 344.97 46.403 344.97 46.8695H334.055C334.055 48.667 334.747 50.3716 336.039 51.6633L343.757 43.9456ZM344.97 46.8695V31.5245H334.055V46.8695H344.97ZM344.97 31.5245C344.97 28.6352 344.383 25.2486 341.956 22.7313L334.099 30.3076C333.867 30.0669 333.857 29.9155 333.91 30.093C333.968 30.2894 334.055 30.7343 334.055 31.5245H344.97ZM342.091 22.8765C339.962 20.5022 337.119 19.4672 334.178 19.4672V30.3817C334.382 30.3817 334.38 30.4141 334.262 30.365C334.205 30.3417 334.143 30.3079 334.082 30.2649C334.022 30.2221 333.983 30.1836 333.964 30.1624L342.091 22.8765ZM334.178 19.4672C331.212 19.4672 328.583 20.6406 326.567 22.7288L334.419 30.3101C334.455 30.2725 334.467 30.2663 334.452 30.2771C334.436 30.2885 334.402 30.3099 334.352 30.3315C334.302 30.3532 334.253 30.3675 334.213 30.3755C334.174 30.3832 334.16 30.3817 334.178 30.3817V19.4672ZM326.499 22.8008C324.159 25.3138 323.55 28.6202 323.55 31.5245H334.465C334.465 30.7622 334.55 30.3239 334.611 30.1205C334.666 29.9362 334.669 30.0426 334.487 30.2382L326.499 22.8008ZM323.55 31.5245V46.8695H334.465V31.5245H323.55ZM323.55 46.8695C323.55 46.403 323.635 45.8595 323.865 45.3003C324.096 44.74 324.422 44.2871 324.764 43.9456L332.482 51.6633C333.773 50.3716 334.465 48.667 334.465 46.8695H323.55ZM324.764 43.9456C325.105 43.604 325.558 43.2777 326.119 43.047C326.678 42.8167 327.221 42.7322 327.688 42.7322V53.6467C329.485 53.6467 331.19 52.9551 332.482 51.6633L324.764 43.9456ZM327.688 42.7322H323.178V53.6467H327.688V42.7322ZM323.178 42.7322C323.644 42.7322 324.188 42.8167 324.747 43.047C325.307 43.2777 325.76 43.604 326.102 43.9456L318.384 51.6633C319.676 52.9551 321.38 53.6467 323.178 53.6467V42.7322ZM326.102 43.9456C326.443 44.2871 326.77 44.7401 327 45.3003C327.23 45.8595 327.315 46.403 327.315 46.8695H316.4C316.4 48.667 317.092 50.3716 318.384 51.6633L326.102 43.9456ZM327.315 46.8695V31.5245H316.4V46.8695H327.315ZM327.315 31.5245C327.315 28.5922 326.691 25.1749 324.177 22.6606L316.459 30.3783C316.227 30.1469 316.209 29.9913 316.257 30.1456C316.311 30.3229 316.4 30.7488 316.4 31.5245H327.315ZM324.312 22.8008C322.222 20.5561 319.476 19.4672 316.523 19.4672V30.3817C316.593 30.3817 316.619 30.3878 316.61 30.386C316.599 30.3839 316.563 30.3757 316.512 30.3542C316.46 30.3325 316.412 30.3052 316.372 30.2771C316.333 30.2495 316.318 30.232 316.324 30.2382L324.312 22.8008ZM316.523 19.4672C313.562 19.4672 310.903 20.6098 308.857 22.7288L316.709 30.3101C316.739 30.2785 316.747 30.2762 316.728 30.289C316.709 30.3025 316.675 30.3233 316.629 30.3431C316.582 30.3628 316.541 30.3741 316.513 30.3796C316.487 30.3848 316.487 30.3817 316.523 30.3817V19.4672ZM308.789 22.8008C306.449 25.3138 305.84 28.6202 305.84 31.5245H316.755C316.755 30.7622 316.84 30.3239 316.901 30.1205C316.956 29.9362 316.959 30.0426 316.777 30.2382L308.789 22.8008ZM305.84 31.5245V46.8695H316.755V31.5245H305.84ZM305.84 46.8695C305.84 46.403 305.925 45.8595 306.155 45.3003C306.386 44.7401 306.712 44.2871 307.054 43.9456L314.772 51.6633C316.063 50.3716 316.755 48.667 316.755 46.8695H305.84ZM307.054 43.9456C307.395 43.604 307.848 43.2777 308.409 43.047C308.968 42.8167 309.511 42.7322 309.978 42.7322V53.6467C311.775 53.6467 313.48 52.9551 314.772 51.6633L307.054 43.9456ZM309.978 42.7322H305.358V53.6467H309.978V42.7322Z" fill="#FB37FF" fill-opacity="0.2"/>
</g>
<defs>
<filter id="filter0_ddi" x="0.0592327" y="0.283008" width="362.975" height="74.368" filterUnits="userSpaceOnUse" color-interpolation-filters="sRGB">
<feFlood flood-opacity="0" result="BackgroundImageFix"/>
<feColorMatrix in="SourceAlpha" type="matrix" values="0 0 0 0 0 0 0 0 0 0 0 0 0 0 0 0 0 0 127 0"/>
<feOffset dy="5.45729"/>
<feGaussianBlur stdDeviation="2.09896"/>
<feColorMatrix type="matrix" values="0 0 0 0 0.3 0 0 0 0 0 0 0 0 0 0.26 0 0 0 0.7 0"/>
<feBlend mode="multiply" in2="BackgroundImageFix" result="effect1_dropShadow"/>
<feColorMatrix in="SourceAlpha" type="matrix" values="0 0 0 0 0 0 0 0 0 0 0 0 0 0 0 0 0 0 127 0"/>
<feOffset dy="8.39583"/>
<feGaussianBlur stdDeviation="5.45729"/>
<feColorMatrix type="matrix" values="0 0 0 0 0.6 0 0 0 0 0 0 0 0 0 0.6 0 0 0 1 0"/>
<feBlend mode="color-dodge" in2="effect1_dropShadow" result="effect2_dropShadow"/>
<feBlend mode="normal" in="SourceGraphic" in2="effect2_dropShadow" result="shape"/>
<feColorMatrix in="SourceAlpha" type="matrix" values="0 0 0 0 0 0 0 0 0 0 0 0 0 0 0 0 0 0 127 0" result="hardAlpha"/>
<feOffset dx="-0.545729" dy="1.09146"/>
<feGaussianBlur stdDeviation="0.272865"/>
<feComposite in2="hardAlpha" operator="arithmetic" k2="-1" k3="1"/>
<feColorMatrix type="matrix" values="0 0 0 0 1 0 0 0 0 1 0 0 0 0 1 0 0 0 0.5 0"/>
<feBlend mode="normal" in2="shape" result="effect3_innerShadow"/>
</filter>
</defs>
</svg>
