<svg width="23" height="22" viewBox="0 0 23 22" fill="none" xmlns="http://www.w3.org/2000/svg">
<path fill-rule="evenodd" clip-rule="evenodd" d="M19.6563 14.9982L18.2421 13.584C18.8763 12.9429 19.4592 12.2665 19.9805 11.5904C20.1111 11.421 20.2318 11.2594 20.3421 11.1073C20.2318 10.9551 20.1111 10.7935 19.9805 10.6241C19.3759 9.83997 18.6884 9.05546 17.9342 8.3261C15.8408 6.30163 13.6633 5.10725 11.5583 5.10725C11.0359 5.10725 10.5092 5.18078 9.98037 5.32227L8.3984 3.7403C9.43085 3.32863 10.4853 3.10725 11.5583 3.10725C14.2858 3.10725 16.8939 4.53788 19.3245 6.8884C20.1538 7.6903 20.9039 8.54641 21.5643 9.40288C21.9628 9.91969 22.2458 10.3262 22.4007 10.5685L22.7453 11.1073L22.4007 11.6461C22.2458 11.8883 21.9628 12.2948 21.5643 12.8116C20.9932 13.5524 20.3548 14.2928 19.6563 14.9982L19.6563 14.9982ZM16.5638 17.527C14.9525 18.5377 13.2792 19.1073 11.5583 19.1073C8.8307 19.1073 6.22257 17.6766 3.79196 15.3261C2.96274 14.5242 2.21256 13.6681 1.55216 12.8116C1.15366 12.2948 0.870725 11.8883 0.715815 11.6461L0.371216 11.1073L0.715815 10.5685C0.870725 10.3262 1.15366 9.91969 1.55216 9.40288C2.21256 8.54641 2.96274 7.6903 3.79196 6.8884C4.16257 6.53 4.53731 6.19299 4.91596 5.87918L0.851144 1.81436L2.26536 0.400146L22.2654 20.4001L20.8511 21.8144L16.5638 17.527ZM6.33797 7.30119C5.95057 7.6136 5.56503 7.95598 5.18229 8.3261C4.42809 9.05546 3.74064 9.83997 3.136 10.6241C3.00541 10.7935 2.88474 10.9551 2.77442 11.1073C2.88474 11.2594 3.00541 11.421 3.136 11.5904C3.74064 12.3745 4.42809 13.1591 5.18229 13.8884C7.27574 15.9129 9.45317 17.1073 11.5583 17.1073C12.7264 17.1073 13.9169 16.7395 15.1029 16.0661L13.5902 14.5534C12.9947 14.9053 12.3001 15.1073 11.5583 15.1073C9.34911 15.1073 7.55825 13.3164 7.55825 11.1073C7.55825 10.3654 7.76018 9.6708 8.11207 9.07529L6.33797 7.30119ZM9.62599 10.5892C9.58181 10.7544 9.55825 10.9281 9.55825 11.1073C9.55825 12.2118 10.4537 13.1073 11.5583 13.1073C11.7374 13.1073 11.9111 13.0837 12.0763 13.0395L9.62599 10.5892Z" fill="white" fill-opacity="0.3"/>
</svg>
