<svg width="23" height="17" viewBox="0 0 23 17" fill="none" xmlns="http://www.w3.org/2000/svg">
<path fill-rule="evenodd" clip-rule="evenodd" d="M11.3712 0.599854C14.0988 0.599854 16.7069 2.03048 19.1375 4.381C19.9667 5.1829 20.7169 6.03901 21.3773 6.89548C21.7758 7.41229 22.0587 7.81885 22.2136 8.06106L22.5582 8.59985L22.2136 9.13865C22.0587 9.38086 21.7758 9.78741 21.3773 10.3042C20.7169 11.1607 19.9667 12.0168 19.1375 12.8187C16.7069 15.1692 14.0988 16.5999 11.3712 16.5999C8.64366 16.5999 6.03553 15.1692 3.60492 12.8187C2.7757 12.0168 2.02551 11.1607 1.36512 10.3042C0.966615 9.78741 0.683682 9.38086 0.528773 9.13865L0.184174 8.59985L0.528773 8.06106C0.683682 7.81885 0.966615 7.41229 1.36512 6.89548C2.02551 6.03901 2.7757 5.1829 3.60492 4.381C6.03553 2.03048 8.64366 0.599854 11.3712 0.599854ZM19.7935 8.11673C19.1888 7.33257 18.5014 6.54806 17.7472 5.8187C15.6537 3.79423 13.4763 2.59985 11.3712 2.59985C9.26613 2.59985 7.0887 3.79423 4.99525 5.8187C4.24105 6.54806 3.5536 7.33257 2.94896 8.11673C2.81837 8.28609 2.6977 8.44768 2.58737 8.59985C2.6977 8.75203 2.81837 8.91362 2.94896 9.08298C3.5536 9.86714 4.24105 10.6517 4.99525 11.381C7.0887 13.4055 9.26613 14.5999 11.3712 14.5999C13.4763 14.5999 15.6537 13.4055 17.7472 11.381C18.5014 10.6517 19.1888 9.86714 19.7935 9.08298C19.924 8.91362 20.0447 8.75203 20.155 8.59985C20.0447 8.44768 19.924 8.28609 19.7935 8.11673ZM11.3712 12.5999C9.16207 12.5999 7.37121 10.809 7.37121 8.59985C7.37121 6.39071 9.16207 4.59985 11.3712 4.59985C13.5803 4.59985 15.3712 6.39071 15.3712 8.59985C15.3712 10.809 13.5803 12.5999 11.3712 12.5999ZM11.3712 10.5999C12.4758 10.5999 13.3712 9.70442 13.3712 8.59985C13.3712 7.49528 12.4758 6.59985 11.3712 6.59985C10.2666 6.59985 9.37121 7.49528 9.37121 8.59985C9.37121 9.70442 10.2666 10.5999 11.3712 10.5999Z" fill="white" fill-opacity="0.3"/>
</svg>
